<svg width="70" height="8" viewBox="0 0 70 8" fill="none" xmlns="http://www.w3.org/2000/svg">
<path fill-rule="evenodd" clip-rule="evenodd" d="M36.7696 5.53324C54.6545 7.51493 65.3794 2.70023 68.3654 0.248419L69.6346 1.79412C66.1183 4.68136 54.8037 9.54369 36.5494 7.52108C28.0876 6.5835 21.5573 6.77878 16.4503 6.9315C14.785 6.9813 13.271 7.02657 11.8908 7.02656C9.1245 7.02655 6.7895 6.84574 4.93037 6.03618C2.98836 5.19051 1.66046 3.70565 0.811982 1.36163L2.69257 0.6809C3.38411 2.59135 4.36625 3.60913 5.72887 4.20249C7.17439 4.83195 9.13861 5.02655 11.8908 5.02656C13.2019 5.02657 14.6688 4.98258 16.3001 4.93367C21.417 4.78024 28.1513 4.57832 36.7696 5.53324Z" fill="#DC5341"/>
</svg>
