<svg width="118" height="71" viewBox="0 0 118 71" fill="none" xmlns="http://www.w3.org/2000/svg">
<path d="M30.4054 40.3704C31.5995 39.0716 31.9252 37.1235 31.1653 35.8247C30.8396 35.2835 29.8626 34.3095 29.5369 34.3095C29.4284 34.3095 29.1027 34.3095 28.6685 34.3095C28.2343 34.3095 27.6915 34.2012 27.3658 34.2012C27.0402 34.2012 26.6059 34.2012 26.3888 34.3095C25.846 34.5259 24.4348 35.8247 24.2177 36.5823C24.0006 37.1235 24.0006 37.2317 24.1091 38.2058C24.3263 39.5046 24.6519 40.2622 25.4118 40.8034C26.0631 41.3445 26.9316 41.6692 28.1257 41.6692C29.1027 41.4527 29.5369 41.2363 30.4054 40.3704Z" fill="#83965A"/>
<path d="M116.164 43.0762C116.164 42.3186 116.056 41.3445 115.947 41.0198C115.839 40.6951 115.839 40.3704 115.947 40.2622C115.947 40.154 115.947 39.3963 115.839 38.5305C115.622 35.7165 115.513 34.093 115.404 32.7942C115.404 32.0366 115.296 30.9543 115.187 30.1966C115.079 29.5473 115.079 28.4649 114.97 27.9238C114.97 27.3826 114.862 26.1921 114.753 25.5427C114.645 24.7851 114.536 23.4863 114.536 22.6204C114.427 21.7546 114.319 20.6723 114.319 20.0229C114.319 19.3735 114.21 18.7241 114.102 18.2912C113.668 14.0701 113.342 11.689 113.125 11.4726C113.016 11.3643 112.908 11.1479 112.908 11.0396C112.908 10.8232 112.256 10.282 112.039 10.282C112.039 10.282 111.496 10.0655 111.062 9.74085C110.519 9.41616 109.977 9.09146 109.76 8.98323C109.542 8.875 109 8.5503 108.457 8.22561C108.023 7.90091 107.263 7.57622 107.046 7.46799C104.983 6.38567 103.463 5.62805 102.703 5.41159C102.269 5.19512 101.726 4.97866 101.618 4.97866C101.509 4.87043 101.292 4.7622 101.184 4.7622C101.075 4.7622 100.967 4.54573 100.641 4.4375C100.207 4.22104 99.4468 4.00457 98.3612 3.67988C98.1441 3.57165 97.6013 3.46341 97.1671 3.35518C92.7163 2.16463 91.6308 1.94817 89.0254 1.62348C87.0714 1.40701 81.4265 1.29878 80.0153 1.51524C79.4725 1.62348 78.6041 1.73171 78.0613 1.73171C76.8672 1.83994 75.456 2.0564 75.3474 2.16463C75.2389 2.16463 74.8046 2.27287 74.3704 2.3811C73.9362 2.48933 73.0677 2.70579 72.4164 2.81402C71.8736 2.92226 71.1137 3.13872 70.7881 3.13872C70.571 3.24695 69.9196 3.46341 69.3768 3.67988C68.8341 3.89634 68.3998 4.00457 68.2913 4.00457C68.1827 4.00457 67.2057 4.32927 66.1202 4.65396C65.0346 4.97866 63.9491 5.41159 63.6234 5.51982C62.6464 5.84451 60.8009 6.4939 60.3667 6.71037C60.1496 6.8186 59.9325 6.92683 59.8239 6.92683C59.7154 6.92683 59.2812 7.03506 58.9555 7.25152C58.6298 7.35976 58.0871 7.57622 57.6528 7.68445C57.3272 7.79268 56.1331 8.11738 55.0475 8.55031C53.9619 8.875 52.7678 9.30793 52.3336 9.41616C51.8994 9.52439 51.3566 9.74085 51.2481 9.84909C51.0309 9.74085 50.4882 9.95732 49.9454 10.1738C49.5112 10.282 48.9684 10.4985 48.8598 10.6067C48.5342 10.7149 44.9518 11.9055 43.2149 12.4466C42.5636 12.6631 41.5866 12.9878 41.0438 13.096C40.6096 13.2043 39.7412 13.4207 39.3069 13.529C38.8727 13.6372 38.3299 13.7454 38.0043 13.8537C37.57 13.9619 36.4845 14.1784 35.2904 14.3948C34.9647 14.3948 34.4219 14.6113 34.0963 14.7195C33.7706 14.8277 33.2278 14.936 32.9021 14.936C32.5765 14.936 32.2508 14.936 32.1423 15.0442C32.0337 15.1524 31.5995 15.1524 31.1653 15.2607C30.731 15.2607 29.754 15.3689 29.1027 15.4771C27.1487 15.6936 23.0236 15.3689 20.0926 14.936C19.3327 14.8277 18.4643 14.6113 18.1386 14.6113C17.1616 14.503 16.7274 14.3948 16.1846 14.2866C15.7504 14.1784 14.4477 13.8537 13.3621 13.7454C13.145 13.7454 12.8194 13.6372 12.4937 13.529C12.168 13.4207 11.4081 13.2043 10.7568 13.096C10.1055 12.8796 9.45413 12.7713 9.23702 12.6631C8.36857 12.4466 6.0889 11.689 5.76324 11.5808C5.43757 11.1479 4.89479 10.9314 4.35201 10.7149C3.91779 10.4985 3.04935 10.1738 2.50657 9.84909L1.52957 9.30793L1.74668 9.84909C1.85523 10.1738 1.96379 10.7149 2.07235 11.0396C2.07235 11.3643 2.1809 11.9055 2.1809 12.2302C2.28946 12.5549 2.39801 13.2043 2.39801 13.529C2.83224 15.6936 3.1579 17.4253 3.37501 18.2912C3.48357 18.8323 3.70068 19.4817 3.70068 19.8064C3.70068 20.0229 3.91779 20.6723 4.02635 21.2134C4.56913 23.1616 4.78624 23.7027 4.78624 24.1357C4.78624 24.4604 4.89479 24.7851 5.00335 25.0015C5.1119 25.218 5.22046 25.6509 5.32902 26.0838C5.43757 26.5168 5.65468 27.2744 5.76324 27.8155C5.87179 28.3567 6.0889 29.0061 6.0889 29.2226C6.0889 29.439 6.30602 30.0884 6.41457 30.6296C6.52313 31.1707 6.74024 31.8201 6.84879 32.1448C7.06591 32.7942 7.60868 34.5259 8.04291 35.5C8.36857 36.2576 10.1055 39.2881 10.3226 39.5046C10.5397 39.721 10.4311 39.3963 10.214 38.6387C10.1055 38.314 9.88835 37.6646 9.88835 37.3399C9.7798 36.7988 9.34557 35.1753 8.69424 32.9024C8.15146 30.9543 8.04291 30.6296 7.93435 30.0884C7.8258 29.7637 7.60868 28.8979 7.50013 28.032C7.28302 27.1662 7.06591 26.1921 6.95735 25.7591C6.74024 24.6768 6.41457 23.2698 6.30602 22.8369C6.19746 22.6204 6.19746 22.1875 6.0889 21.8628C5.98035 21.2134 5.76324 19.8064 5.43757 18.7241C5.32902 18.3994 5.22046 18.0747 5.1119 17.9665C4.67768 17.4253 5.22046 16.9924 6.52313 16.7759C6.95735 16.6677 7.60868 16.5595 7.8258 16.343C8.26002 16.1265 8.8028 15.3689 8.8028 15.0442C8.8028 14.8277 9.45413 14.0701 9.88835 13.9619C10.1055 13.8537 11.2996 14.1784 11.7338 14.3948C11.9509 14.503 12.7108 14.7195 13.4707 14.8277C14.2306 15.0442 15.099 15.1524 15.3161 15.2607C15.5332 15.3689 15.9675 15.3689 16.4017 15.4771C16.7274 15.4771 17.1616 15.5854 17.2701 15.5854C17.3787 15.6936 18.03 15.8018 18.6814 15.8018C19.3327 15.9101 20.3097 16.0183 20.8525 16.0183C22.5894 16.2348 23.3493 16.2348 26.7145 16.2348C30.8396 16.2348 32.9022 16.0183 37.3529 15.3689C39.6326 15.0442 40.0668 14.936 40.8267 14.7195C41.2609 14.6113 41.6952 14.503 41.9123 14.503C42.1294 14.503 42.3465 14.503 42.455 14.3948C42.6722 14.2866 45.4946 13.3125 46.2545 13.096C46.5802 12.9878 47.0144 12.7713 47.34 12.6631C47.5572 12.5549 48.0999 12.3384 48.3171 12.2302C48.6427 12.122 48.9684 11.9055 49.1855 11.9055C49.4026 11.7973 49.6197 11.689 49.7283 11.689C49.8368 11.689 50.1625 11.5808 50.3796 11.4726C50.5967 11.3643 50.8138 11.2561 50.9224 11.2561C51.0309 11.2561 51.3566 11.1479 51.6823 11.0396C53.8534 10.0655 54.8304 9.74085 56.2416 9.30793C57.0015 8.98323 57.8699 8.76677 58.0871 8.76677C58.3042 8.76677 58.7384 8.55031 58.9555 8.44207C59.1726 8.33384 59.4983 8.22561 59.6068 8.22561C59.7154 8.22561 60.0411 8.11738 60.2582 8.00915C60.4753 7.90091 61.0181 7.79268 61.3437 7.68445C61.6694 7.57622 62.3207 7.35976 62.755 7.25152C63.1892 7.14329 64.0576 6.8186 64.709 6.71037C65.3603 6.60213 66.4458 6.27744 67.0972 6.06098C67.8571 5.84451 68.8341 5.51982 69.3768 5.41159C69.9196 5.30335 70.571 5.08689 70.7881 5.08689C71.2223 4.97866 72.4164 4.7622 74.2619 4.4375C74.9132 4.32927 75.6731 4.22104 75.7816 4.22104C77.5185 3.89634 86.9629 3.57165 89.6768 3.78811C90.4366 3.89634 91.3051 4.00457 91.4136 4.00457C91.6308 4.11281 92.2821 4.22104 92.9334 4.32927C94.019 4.54573 94.7789 4.7622 96.1901 5.08689C99.0125 5.84451 100.315 6.27744 100.749 6.4939C101.075 6.60213 101.401 6.71037 101.509 6.71037C101.618 6.71037 101.944 6.8186 102.052 6.92683C102.486 7.14329 105.309 8.22561 106.829 8.76677C107.914 9.1997 108.783 9.63262 109.217 9.95732C109.542 10.1738 109.542 10.3902 109.651 10.9314C109.651 11.4726 109.76 11.7973 110.302 12.4466C110.845 13.3125 111.062 13.529 111.931 13.9619C112.256 14.1784 112.365 14.3948 112.582 14.8277C112.799 15.3689 113.016 17.3171 113.016 18.0747C113.016 18.1829 113.125 18.8323 113.233 19.3735C113.342 20.0229 113.45 20.6723 113.45 20.997C113.45 21.3216 113.559 22.1875 113.668 22.9451C113.776 23.7027 113.885 25.3262 113.993 26.5168C114.102 27.7073 114.21 29.439 114.21 30.5213C114.319 32.9024 114.427 34.5259 114.536 37.0152C114.536 38.2058 114.645 39.8293 114.645 40.6951C114.645 41.561 114.753 44.8079 114.753 47.7302C114.753 50.7607 114.753 53.3582 114.862 53.4665C114.97 53.8994 114.862 54.1159 114.102 54.5488C113.342 54.9817 113.016 55.4146 112.365 56.7134C112.148 57.1463 111.931 57.5793 111.714 57.6875C111.388 57.7957 111.062 57.6875 110.954 57.3628C110.845 57.0381 110.845 57.0381 108.783 56.497C106.503 55.8476 106.069 55.6311 104.875 55.4146C104.332 55.3064 103.68 55.1982 103.463 55.0899C103.246 54.9817 102.486 54.8735 101.835 54.7652C101.184 54.657 100.315 54.5488 100.098 54.4406C99.7724 54.3323 99.2297 54.3323 98.6869 54.3323C98.1441 54.3323 97.2756 54.2241 96.8414 54.2241C95.5388 54.1159 91.8479 54.1159 90.9794 54.3323C90.5452 54.4406 89.5682 54.5488 88.6998 54.7652C87.8313 54.8735 86.7457 55.0899 86.4201 55.1982C84.6832 55.6311 81.1009 56.8216 80.8837 57.0381C80.7752 57.1463 80.5581 57.1463 80.341 57.2546C79.9067 57.3628 79.364 57.5793 78.7126 57.7957C78.6041 57.904 78.1699 58.0122 77.7356 58.1204C77.3014 58.2287 76.2159 58.6616 75.3474 58.9863C74.3704 59.311 73.1763 59.7439 72.525 59.9604C71.2223 60.3933 69.3768 61.1509 69.0512 61.3674C68.7255 61.5838 67.2057 62.2332 66.9886 62.2332C66.9886 62.2332 66.663 62.3415 66.4458 62.4497C65.3603 62.9909 64.2747 63.3156 62.755 63.8567C61.8865 64.1814 60.9095 64.5061 60.6924 64.5061C59.824 64.939 57.8699 65.4802 56.4587 65.6966C55.9159 65.8049 55.3732 65.9131 55.3732 65.9131C55.3732 65.9131 54.9389 66.0213 54.5047 66.1296C54.0705 66.2378 53.5277 66.346 53.2021 66.346C52.8764 66.4543 52.2251 66.5625 51.6823 66.6707C51.1395 66.779 50.3796 66.8872 50.0539 66.9954C46.7973 67.6448 46.0374 67.7531 42.8893 67.7531C39.524 67.8613 37.2444 67.6448 34.0963 66.9954C33.0107 66.779 32.5765 66.6707 30.731 66.1296C30.0797 65.9131 29.4284 65.6966 29.1027 65.6966C28.8856 65.5884 28.2343 65.4802 27.8 65.2637C26.4974 64.8308 25.6289 64.6143 25.4118 64.6143C25.3033 64.6143 24.9776 64.5061 24.7605 64.3979C24.5434 64.2896 24.2177 64.1814 24.1091 64.1814C24.0006 64.1814 23.4578 63.9649 22.915 63.6402C22.3723 63.3156 21.8295 63.0991 21.8295 63.2073C21.8295 63.532 23.1321 65.2637 23.4578 65.2637C23.4578 65.2637 23.892 65.372 24.2177 65.5884C25.5204 66.1296 27.0401 66.779 27.2573 66.8872C27.4744 66.8872 27.6915 66.9954 27.9086 67.1037C28.5599 67.4284 30.0797 67.8613 30.2968 67.8613C30.4054 67.8613 30.731 67.9695 30.9481 68.0778C31.1653 68.186 31.8166 68.2942 32.3594 68.4024C32.9021 68.5107 33.5535 68.6189 33.7706 68.7271C34.0963 68.8354 34.639 68.9436 35.0733 68.9436C36.0503 69.0518 37.2444 69.2683 37.3529 69.3765C37.3529 69.3765 38.3299 69.4848 39.524 69.593C41.3695 69.7012 43.3235 69.593 45.1689 69.3765C45.386 69.3765 46.1459 69.2683 46.9058 69.1601C47.6657 69.0518 48.5342 68.9436 48.7513 68.9436C48.9684 68.8354 49.2941 68.8354 49.5112 68.8354C49.7283 68.8354 50.1625 68.8354 50.4882 68.7271C50.8138 68.6189 51.7908 68.5107 52.4422 68.4024C53.2021 68.2942 54.3962 68.0777 55.1561 67.8613C55.9159 67.6448 56.8929 67.4284 57.3272 67.3201C58.0871 67.2119 58.9555 66.8872 60.4753 66.4543C60.801 66.346 61.3437 66.2378 61.5608 66.1296C61.778 66.1296 62.3207 65.9131 62.5378 65.9131C62.8635 65.8049 63.5148 65.5884 64.0576 65.4802C66.0116 64.939 67.5314 64.3979 69.3768 63.7485C70.0282 63.532 70.6795 63.3156 70.7881 63.3156C70.8966 63.3156 71.0052 63.3156 71.1137 63.2073C71.2223 63.0991 71.4394 62.9909 71.6565 62.9909C72.4164 62.6662 74.3704 61.9085 74.479 61.8003C74.5875 61.8003 75.1303 61.4756 75.6731 61.2591C76.2159 61.0427 76.9757 60.718 77.3014 60.5015C77.6271 60.3933 78.7126 59.8521 79.7982 59.5274C80.8837 59.0945 81.9693 58.7698 82.1864 58.6616C82.4035 58.5534 82.6206 58.4451 82.6206 58.4451C82.6206 58.4451 82.8378 58.3369 83.0549 58.2287C84.1404 57.7957 87.2885 56.9299 89.134 56.7134C89.7853 56.6052 90.7623 56.497 91.3051 56.3887C92.3906 56.1723 95.4302 55.9558 96.95 55.9558C98.3612 55.9558 102.269 56.2805 103.68 56.6052C104.006 56.7134 104.657 56.8217 105.309 56.9299C106.394 57.1463 108.457 57.7957 109 58.1204C109.217 58.2287 109.434 58.3369 109.542 58.3369C109.651 58.3369 110.085 58.4451 110.519 58.6616C111.822 59.2027 113.45 59.8521 113.993 60.0686C114.319 60.1768 114.645 60.2851 114.862 60.3933C115.513 60.718 116.816 61.2591 116.924 61.2591C116.924 61.2591 117.033 58.6616 117.033 55.6311C117.033 50.5442 117.033 48.596 116.816 45.782C116.273 44.9162 116.164 43.8338 116.164 43.0762Z" fill="#83965A"/>
<path d="M22.3723 61.8003C22.4808 61.9085 23.1321 62.2332 23.892 62.5579C25.0861 62.9909 25.7375 63.2073 26.823 63.532C27.0401 63.532 27.3658 63.7485 27.6915 63.8567C28.0171 63.9649 28.4514 64.0732 28.777 64.1814C29.1027 64.2896 29.4284 64.3979 29.5369 64.3979C29.6455 64.5061 29.8626 64.5061 30.0797 64.5061C30.2968 64.5061 30.9482 64.7226 31.5995 64.939C32.2508 65.1555 33.0107 65.2637 33.1193 65.2637C33.3364 65.2637 33.7706 65.372 34.2048 65.4802C36.1588 66.0213 41.8037 66.2378 44.5176 66.0213C45.2775 65.9131 46.1459 65.9131 46.3631 65.8049C46.9058 65.8049 47.6657 65.6967 49.077 65.372C49.7283 65.2637 50.3796 65.1555 50.5967 65.0473C50.8138 65.0473 51.1395 64.939 51.3566 64.939C51.8994 64.8308 53.4192 64.5061 54.0705 64.5061C54.2876 64.5061 54.7218 64.3979 55.0475 64.2896C55.3732 64.1814 55.8074 64.0732 56.1331 64.0732C57.5443 63.8567 62.3207 62.3415 65.4688 61.0427C66.4459 60.6098 67.4229 60.2851 67.5314 60.1768C67.7485 60.0686 69.1597 59.5274 69.8111 59.2027C70.3539 58.9863 70.6795 58.878 72.525 58.2287C73.502 57.904 74.479 57.5793 74.479 57.471C74.5875 57.471 74.8046 57.3628 74.9132 57.3628C75.2389 57.2546 79.364 55.9558 79.9068 55.7393C82.4035 54.7652 86.203 53.6829 88.5912 53.3582C89.3511 53.25 90.2195 53.1418 90.5452 53.0335C91.7393 52.8171 97.3842 52.9253 99.5553 53.1418C99.9896 53.25 100.967 53.3582 101.726 53.4665C104.549 53.8994 108.565 54.7652 109.651 55.3064C109.977 55.4146 110.628 55.6311 110.845 55.6311C110.954 55.6311 111.062 55.4146 111.171 55.1982C111.388 54.5488 112.365 53.4665 112.799 53.25L113.233 53.0335V46.5396C113.233 42.968 113.233 39.721 113.125 39.2881C113.125 38.8552 113.016 37.5564 113.016 36.3659C113.016 35.1753 112.908 33.7683 112.908 33.2271C112.908 32.7942 112.799 31.7119 112.799 30.846C112.799 29.9802 112.691 28.7896 112.582 28.1402C112.473 27.4909 112.473 26.625 112.473 26.1921C112.473 25.3262 112.256 23.5945 112.039 20.7805C111.931 19.6982 111.822 18.2912 111.714 17.5335C111.496 14.8277 111.496 15.0442 110.845 14.7195C110.194 14.3948 109.108 13.2043 108.674 12.3384C108.565 12.0137 108.348 11.4726 108.348 11.1479C108.24 10.4985 108.24 10.4985 107.697 10.282C107.371 10.1738 106.937 9.95732 106.611 9.84909C106.286 9.84909 106.069 9.74085 105.96 9.74085C105.852 9.74085 105.309 9.52439 102.486 8.44207C102.052 8.22561 101.509 8.11738 101.401 8.11738C101.292 8.11738 100.858 8.00915 100.424 7.79268C99.3382 7.46799 97.0585 6.71037 96.1901 6.4939C95.8644 6.38567 95.2131 6.27744 94.8874 6.16921C94.1275 5.95274 92.8249 5.62805 91.9564 5.51982C91.6308 5.51982 91.088 5.41159 90.6538 5.30335C90.111 5.19512 88.8083 5.08689 86.4201 5.08689C81.6436 4.97866 78.2784 5.19512 75.6731 5.51982C74.479 5.73628 73.2849 5.84451 72.9592 5.95274C72.1993 6.06098 71.0052 6.38567 68.3999 7.14329C67.5314 7.46799 66.3373 7.68445 66.0116 7.79268C65.5774 7.90091 65.1432 8.00915 65.0346 8.11738C64.9261 8.11738 64.3833 8.33384 63.9491 8.44207C63.5149 8.55031 62.6464 8.875 61.9951 8.98323C60.6924 9.41616 60.6924 9.41616 57.4357 10.4985C56.0245 10.9314 54.2876 11.5808 53.5277 11.9055C52.8764 12.2302 52.0079 12.5549 51.6823 12.6631C51.3566 12.7713 50.9224 12.9878 50.5967 13.096C50.3796 13.2043 50.0539 13.3125 49.9454 13.3125C49.8368 13.3125 49.1855 13.529 48.5342 13.7454C47.8828 13.9619 47.1229 14.2866 46.9058 14.3948C46.3631 14.6113 45.3861 14.936 44.8433 15.1524C43.6492 15.6936 38.547 16.8841 37.3529 16.8841C37.2444 16.8841 36.9187 16.9924 36.593 16.9924C36.2674 16.9924 35.5075 17.1006 34.7476 17.2088C33.9877 17.3171 33.2278 17.3171 33.0107 17.4253C29.9711 17.8582 22.2637 17.8582 20.3097 17.4253C19.984 17.3171 19.3327 17.3171 18.7899 17.2088C17.8129 17.1006 17.5958 17.1006 15.7504 16.6677C13.4707 16.2348 11.7338 15.6936 10.9739 15.3689C10.7568 15.2607 10.4311 15.1524 10.214 15.1524C9.99691 15.1524 9.88835 15.2607 9.88835 15.4771C9.88835 16.5595 8.15146 17.9665 6.74024 17.9665C6.30602 17.9665 6.30602 18.0747 6.41457 18.6159C6.52313 18.9406 6.63168 19.6982 6.84879 20.3476C6.95735 20.997 7.17446 21.6463 7.17446 21.8628C7.28302 22.2957 7.71724 24.1357 7.8258 25.0015C7.8258 25.3262 8.04291 26.1921 8.26002 26.9497C8.47713 27.7073 8.8028 28.8979 9.01991 29.7637C9.23702 30.6296 9.45413 31.7119 9.67124 32.1448C9.7798 32.5777 9.99691 33.2271 9.99691 33.5518C10.1055 34.3095 10.8654 36.907 11.9509 40.2622C12.168 40.8034 12.2766 41.4527 12.2766 41.7774C12.3851 42.4268 12.7108 42.8598 14.4477 44.375C16.5102 46.1067 17.053 46.5396 18.3557 46.9726C19.6584 47.5137 19.8755 47.8384 19.5498 49.029C19.4413 49.3537 19.3327 49.8948 19.2241 50.2195C19.007 50.9771 19.007 55.3064 19.2241 56.064C19.3327 56.3887 19.4413 56.9299 19.4413 57.3628C19.5498 57.7957 19.5498 58.2287 19.6584 58.3369C19.6584 58.5534 19.8755 58.6616 20.5268 58.7698C20.961 58.878 21.7209 59.0945 22.0466 59.2027C22.4808 59.311 22.915 59.5274 23.1321 59.5274C23.3493 59.5274 23.6749 59.6357 24.0006 59.7439C24.3263 59.8521 24.7605 60.0686 25.1947 60.1768C26.0631 60.5015 26.3888 60.8262 26.3888 61.2591C26.3888 61.9085 25.6289 62.0168 24.4348 61.4756C24.1091 61.3674 23.7835 61.2591 23.6749 61.2591C23.5664 61.2591 23.3493 61.2591 23.2407 61.1509C23.0236 61.0427 22.3723 60.8262 20.8525 60.3933C20.6354 60.2851 20.5268 60.3933 20.6354 60.6098C20.7439 60.8262 21.938 61.6921 22.0466 61.6921C22.1551 61.6921 22.2637 61.6921 22.3723 61.8003ZM91.6308 30.3049C91.6308 28.7896 91.7393 28.2485 92.2821 27.4909C93.4762 25.7591 94.8874 24.8933 96.7329 24.6768C97.1671 24.6768 97.6013 24.5686 97.7099 24.5686C97.927 24.5686 99.5553 25.218 99.881 25.5427C99.9896 25.6509 100.315 25.8674 100.424 25.9756C101.075 26.3003 101.944 27.7073 102.052 28.4649C102.269 29.9802 102.161 31.9284 101.726 32.4695C101.618 32.5777 101.401 32.9024 101.184 33.2271C100.749 33.7683 99.6639 34.7424 98.904 35.0671C97.4928 35.8247 94.8874 35.6082 93.4762 34.5259C92.7163 33.8765 92.3907 33.4436 91.8479 32.3613C91.6308 31.3872 91.6308 31.279 91.6308 30.3049ZM44.6262 31.279C44.7347 29.9802 44.8433 29.5473 45.1689 28.1402C45.2775 27.7073 45.3861 27.0579 45.4946 26.7332C45.6032 26.4085 45.8203 25.7591 45.9288 25.3262C46.1459 24.8933 46.3631 24.2439 46.5802 23.9192C46.9058 23.0534 47.4486 21.7546 47.7743 21.3216C49.1855 18.9406 51.4652 16.2348 53.0935 15.0442C53.4192 14.8277 53.962 14.3948 54.2876 14.1784C54.7218 13.8537 55.5903 13.4207 57.2186 12.6631C57.7614 12.4466 59.4983 12.0137 60.801 11.9055C62.4293 11.689 64.8175 12.0137 66.663 12.5549C67.4229 12.7713 69.4854 13.8537 70.4624 14.3948C71.8736 15.2607 73.1763 16.4512 74.3704 17.9665C75.2389 19.0488 75.456 19.3735 76.3244 20.6723C76.8672 21.6463 78.1699 24.1357 78.4955 25.0015C78.6041 25.4345 78.8212 25.7591 78.8212 25.8674C78.8212 25.8674 78.9297 26.0838 78.9297 26.1921C78.9297 26.3003 79.0383 26.7332 79.1469 27.1662C79.4725 28.032 80.1239 31.4954 80.2324 32.5777C80.341 33.8765 80.2324 36.907 80.1239 38.314C79.7982 40.8034 79.6896 41.6692 78.6041 44.9162C78.387 45.5656 77.1929 48.0549 76.7586 48.8125C76.3244 49.4619 75.5645 50.6524 75.456 50.7607C75.456 50.7607 75.0218 51.3018 74.479 51.843C74.0448 52.3841 73.6105 52.9253 73.502 52.9253C73.502 52.9253 73.0678 53.25 72.6335 53.5747C71.3309 54.7652 71.0052 54.9817 68.617 56.2805C66.9886 57.1463 63.9491 57.6875 61.8865 57.5793C60.4753 57.471 59.7154 57.3628 58.1956 56.8216C55.3732 55.9558 53.0935 54.4405 50.3796 51.5183C49.9454 50.9771 48.2085 48.596 48.2085 48.4878C48.2085 48.3796 48.0999 48.1631 47.8828 48.0549C47.6657 47.7302 47.3401 47.189 46.3631 45.0244C45.8203 43.9421 45.1689 41.4527 44.7347 39.2881C44.5176 37.1235 44.4091 33.8765 44.6262 31.279ZM25.5204 42.5351C23.7835 41.6692 23.0236 40.6951 22.5894 38.6387C22.2637 37.3399 22.3723 36.2576 22.6979 35.8247C22.8065 35.7165 22.8065 35.5 22.8065 35.3918C22.8065 35.0671 23.4578 34.3095 24.869 33.1189C24.9776 33.0107 25.4118 32.7942 25.7375 32.686C26.2803 32.4695 26.7145 32.5777 28.777 32.686C30.6225 32.9024 31.4909 33.4436 32.3594 34.9588C32.685 35.6082 32.7936 35.9329 32.9022 36.6906C33.0107 37.8811 33.0107 38.2058 32.5765 39.3963C32.1423 40.8034 31.1653 41.9939 30.0797 42.5351C29.3198 42.968 29.2113 42.968 27.6915 42.968C26.2803 42.968 26.1717 42.968 25.5204 42.5351Z" fill="#B2C786"/>
<path d="M96.1901 33.8765C97.2757 33.9848 98.0355 33.8765 99.0125 33.2271C99.881 32.686 100.532 31.8201 100.641 31.0625C100.858 30.1966 100.749 28.8979 100.424 28.2485C100.098 27.5991 99.3382 26.9497 98.3612 26.4085C97.7099 26.0838 96.7329 26.0838 95.7559 26.1921C94.996 26.3003 94.2361 27.0579 93.4762 28.2485C93.042 28.8979 93.042 28.8979 93.042 29.9802C93.042 31.0625 93.042 31.1707 93.4762 32.0366C94.2361 33.1189 94.996 33.6601 96.1901 33.8765Z" fill="#83965A"/>
<path d="M18.2471 57.471C18.03 56.2805 17.9215 55.8476 18.03 53.25C18.03 50.8689 18.03 50.2195 18.2471 49.6784C18.3557 49.2454 18.4643 48.9207 18.4643 48.8125C18.4643 48.7043 18.1386 48.4878 17.7044 48.3796C16.6188 47.9466 15.3161 46.9726 13.3621 45.2409C12.3851 44.375 10.9739 42.7515 10.5397 42.1021C10.4311 41.8857 10.214 41.6692 10.1055 41.561C9.99691 41.3445 9.67124 41.0198 9.56269 40.6951C8.91135 39.6128 8.8028 39.8293 9.34558 41.128C9.67124 42.1021 10.214 43.6174 10.3226 44.0503C10.5397 44.8079 12.9279 47.5137 13.7964 47.9466C14.122 48.1631 15.4247 48.9207 16.076 49.4619C16.8359 50.003 16.8359 50.003 16.8359 54.2241L16.9445 58.1204L17.3787 58.9863C17.5958 59.4192 17.9215 59.9604 18.03 60.0686C18.1386 60.1768 18.2471 60.2851 18.2471 60.3933C18.2471 60.5015 19.5498 62.3415 19.6584 62.2332C19.6584 62.2332 19.5498 61.9085 19.4413 61.5838C19.007 60.718 18.6814 59.4192 18.2471 57.471Z" fill="#83965A"/>
<path d="M15.4247 52.7088C15.3161 50.6524 15.2076 50.436 14.6648 50.0031C14.4477 49.7866 14.122 49.5701 14.0135 49.5701C13.9049 49.4619 13.5792 49.2454 13.145 49.029C12.8194 48.8125 12.4937 48.596 12.3851 48.4878C12.168 48.1631 11.8424 48.0549 11.8424 48.1631C11.8424 48.2713 12.168 48.8125 12.3851 49.4619C12.7108 50.1113 12.9279 50.7607 12.9279 50.7607C12.9279 50.9771 15.5332 56.1723 15.6418 56.1723C15.6418 56.1723 15.6418 55.7393 15.5332 55.1982C15.5332 54.7653 15.4247 53.5747 15.4247 52.7088Z" fill="#83965A"/>
<path d="M48.0999 44.6997C48.3171 45.1326 48.5342 45.6738 48.6427 45.8902C48.7513 46.1067 49.0769 46.6479 49.2941 47.0808C49.5112 47.5137 49.7283 47.8384 49.7283 47.8384C49.7283 48.0549 51.0309 49.7866 52.0079 50.8689C53.3106 52.2759 53.7448 52.7088 54.2876 53.0335C54.5047 53.1418 55.0475 53.5747 55.5903 53.8994C56.0245 54.2241 56.5673 54.5488 56.6758 54.5488C56.7844 54.5488 57.3272 54.7652 57.7614 54.9817C59.3897 55.7393 62.3207 56.1723 64.1662 55.9558C66.1202 55.6311 67.0972 55.4146 68.2913 54.7652C69.4854 54.1159 71.0052 53.25 71.2223 52.9253C71.3309 52.8171 71.6565 52.4924 71.9822 52.2759C72.9592 51.4101 74.8046 49.2454 75.3474 48.1631C75.9988 46.9726 76.9758 44.9162 76.9758 44.9162C76.9758 44.8079 77.0843 44.5915 77.1929 44.4832C77.6271 43.4009 78.2784 41.2363 78.4955 39.5046C78.8212 37.7729 78.8212 37.4482 78.8212 35.3918C78.8212 32.9024 78.7126 32.1448 78.2784 29.6555C77.41 25.0015 74.6961 19.9146 71.7651 17.3171C71.4394 16.9924 70.8966 16.5595 70.6795 16.343C70.0282 15.8018 69.3769 15.3689 68.2913 14.8277C66.7715 14.0701 66.3373 13.8537 65.4688 13.6372C65.0346 13.529 64.4919 13.4207 64.2747 13.3125C63.732 13.2043 61.4523 13.2043 60.3667 13.4207C59.0641 13.6372 57.7614 13.9619 57.1101 14.3948C56.7844 14.6113 56.4587 14.7195 56.3502 14.7195C55.8074 14.7195 52.5507 17.3171 51.5737 18.5076C49.9454 20.564 49.1855 21.7546 48.2085 23.811C47.4486 25.5427 46.7973 28.1402 46.2545 30.846C46.0374 32.0366 46.0374 35.6082 46.2545 37.2317C46.4716 39.8293 47.2315 42.8598 48.0999 44.6997Z" fill="#83965A"/>
<path fill-rule="evenodd" clip-rule="evenodd" d="M78.9298 0.216463C77.6271 0.324695 76.2159 0.541159 75.8902 0.64939C73.1763 1.19055 70.8966 1.62348 69.8111 1.94817C69.3769 2.0564 68.8341 2.27287 68.617 2.27287C66.5544 2.81402 64.8175 3.35518 64.709 3.46341C64.6004 3.46341 64.2747 3.67988 63.9491 3.67988C63.6234 3.78811 63.0806 3.89634 62.6464 4.1128C62.3207 4.22104 61.9951 4.32927 61.9951 4.32927C61.8865 4.32927 61.5609 4.4375 61.2352 4.65396C60.0411 5.08689 58.5213 5.62805 58.4127 5.62805C58.3042 5.62805 58.0871 5.73628 57.87 5.84451C57.5443 5.95274 56.4587 6.38567 55.2646 6.71037C54.0705 7.03506 52.985 7.46799 52.8764 7.57622C52.6593 7.68445 51.5737 8.00915 50.4882 8.44207C49.4026 8.76677 47.2315 9.52439 45.8203 9.95732C44.4091 10.3902 43.1064 10.8232 42.9978 10.8232C42.8893 10.8232 42.7807 10.8232 42.6722 10.9314C42.4551 11.1479 38.2214 12.2302 35.8332 12.7713C35.1818 12.8796 34.3134 13.096 33.9877 13.2043C33.3364 13.3125 31.708 13.6372 29.2113 13.8537C27.8 13.9619 25.0861 13.9619 22.6979 13.6372C19.6584 13.3125 17.2701 12.8796 16.7274 12.7713C16.4017 12.6631 16.076 12.5549 15.9675 12.5549C15.7504 12.5549 13.9049 12.122 12.8194 11.9055C11.9509 11.689 10.3226 11.2561 9.88835 11.1479C9.67124 11.1479 9.12846 10.9314 8.58569 10.8232C8.15146 10.6067 7.60868 10.3902 7.28302 10.3902C7.06591 10.282 6.63168 10.1738 6.30602 10.0655C5.98035 9.95732 5.43757 9.63262 5.00335 9.52439C4.56913 9.41616 3.59213 8.875 2.61512 8.44207C0.878234 7.68445 0.444011 7.57622 0.118344 7.90092C-0.0987672 8.22561 0.00978845 8.5503 0.2269 9.63262C0.335455 9.95732 0.444011 10.4985 0.444011 10.8232C0.444011 11.1479 0.661122 11.9055 0.769678 12.3384C1.09535 13.9619 1.31246 15.2607 1.42101 16.0183C1.52957 16.8841 1.96379 18.7241 2.50657 20.564C2.61512 21.2134 2.83224 21.971 2.94079 22.2957C3.04935 22.6204 3.1579 23.0534 3.26646 23.1616C3.26646 23.3781 3.26646 23.7027 3.26646 23.811C3.26646 24.0274 3.37501 24.4604 3.59213 25.0015C3.70068 25.4345 3.91779 26.0838 3.91779 26.3003C3.91779 26.5168 4.1349 27.1662 4.24346 27.5991C4.35201 28.032 4.56913 28.7896 4.67768 29.2226C4.78624 29.6555 4.89479 30.0884 4.89479 30.1966C5.00335 30.5213 5.54613 32.5777 5.76324 33.9848C5.87179 34.3095 5.98035 34.9588 6.08891 35.5C6.19746 35.9329 6.52313 36.907 6.63168 37.6646C6.8488 38.4223 7.06591 39.1799 7.17446 39.3963C7.28302 39.6128 7.39157 40.0457 7.50013 40.4787C7.71724 41.3445 7.93435 42.1021 8.26002 42.8598C8.36857 43.1845 8.47713 43.6174 8.58569 43.8338C8.58569 44.0503 8.8028 44.6997 9.01991 45.2409C9.23702 45.782 9.56269 46.7561 9.7798 47.2973C9.99691 47.8384 10.214 48.3796 10.214 48.4878C10.214 48.596 10.4311 49.029 10.6482 49.4619C11.8424 52.2759 13.5792 55.7393 15.2076 58.6616C15.3161 58.8781 15.6418 59.5274 15.9675 59.9604C16.1846 60.3933 16.5102 60.8262 16.5102 60.8262C16.5102 60.8262 16.8359 61.2591 17.1616 61.6921C18.5728 63.7485 19.6584 64.939 20.6354 65.372C20.961 65.5884 21.3953 65.8049 21.6124 65.9131C21.8295 66.0213 22.4808 66.346 23.0236 66.5625C23.5664 66.779 24.5434 67.2119 25.0861 67.4284C26.1717 67.8613 28.1257 68.6189 28.9942 68.8354C29.3198 68.9436 29.754 69.0518 30.0797 69.1601C30.731 69.3765 31.8166 69.593 32.9022 69.8095C33.2278 69.8095 33.5535 69.9177 33.662 69.9177C33.7706 69.9177 34.0963 70.0259 34.4219 70.0259C34.8562 70.0259 35.1818 70.1342 35.2904 70.2424C35.7246 70.4588 39.4155 70.7835 40.9353 70.7835C42.0208 70.7835 44.0834 70.6753 44.5176 70.5671C44.7347 70.5671 45.4946 70.4588 46.1459 70.3506C46.9058 70.2424 47.9914 70.1341 48.7513 70.0259C49.4026 69.9177 50.8138 69.7012 51.8994 69.593C52.985 69.4848 54.1791 69.1601 54.7218 69.0518C55.1561 68.9436 55.6988 68.7271 55.8074 68.7271C56.0245 68.7271 57.3272 68.4024 58.4127 68.0778C58.7384 67.9695 59.3897 67.8613 59.824 67.6448C60.2582 67.5366 60.6924 67.3201 60.9095 67.3201C61.1266 67.2119 61.3437 67.1037 61.5609 67.1037C61.778 67.1037 62.4293 66.9954 62.9721 66.779C63.5149 66.5625 64.2747 66.346 64.709 66.346C65.1432 66.346 65.5774 66.1296 65.9031 66.0213C66.2287 65.9131 66.9886 65.5884 67.64 65.4802C68.2913 65.2637 68.9426 65.0473 69.0512 65.0473C69.1597 64.939 69.3769 64.939 69.4854 64.8308C71.7651 63.9649 74.0447 62.9909 77.3014 61.5838C78.387 61.0427 80.0153 60.5015 81.5351 59.9604C82.295 59.7439 82.9463 59.4192 83.0549 59.311C83.1634 59.2027 83.3805 59.0945 83.4891 59.0945C83.5977 59.0945 84.1404 58.9863 84.5747 58.7698C85.5517 58.4451 86.6372 58.2287 87.7228 58.0122C88.0484 57.904 88.9169 57.7957 89.4597 57.6875C91.1965 57.3628 92.2821 57.2546 92.8249 57.1463C97.2757 56.8216 99.5553 56.9299 104.657 58.0122C105.092 58.1204 105.743 58.3369 106.069 58.4451C106.394 58.5534 107.263 58.8781 108.131 59.2027C108.891 59.5274 109.76 59.8521 110.085 59.9604C110.411 60.0686 110.628 60.1768 110.628 60.1768C110.737 60.1768 113.342 61.2591 113.668 61.4756C113.776 61.5838 114.102 61.6921 114.319 61.8003C114.536 61.9085 115.079 62.125 115.404 62.3415C116.273 62.7744 117.033 62.7744 117.358 62.5579L117.684 62.3415V56.9299C117.684 51.9512 117.576 46.4314 117.467 45.0244C117.467 44.6997 117.358 43.7256 117.358 42.8598C117.358 41.9939 117.25 41.0198 117.141 40.6951C117.033 40.3704 117.033 40.0457 117.141 39.9375C117.25 39.8293 117.141 38.7469 116.816 35.2835C116.707 34.5259 116.707 33.3354 116.599 32.4695C116.599 31.6037 116.49 30.5213 116.381 30.0884C116.273 29.5473 116.273 28.7896 116.164 28.3567C116.164 27.9238 116.056 26.8415 115.947 25.9756C115.839 25.1098 115.839 23.9192 115.73 23.2698C115.73 22.7287 115.622 21.971 115.622 21.7546C115.622 21.5381 115.513 20.997 115.513 20.6723C115.513 20.3476 115.404 19.6982 115.296 19.2652C115.187 18.8323 115.079 17.6418 114.97 16.6677C114.536 12.8796 114.21 10.7149 113.776 9.95732C113.559 9.63262 112.799 8.76677 112.582 8.76677C112.473 8.76677 112.039 8.44207 111.496 8.11738C110.954 7.79268 110.194 7.25152 109.651 7.03506C109.217 6.8186 108.783 6.4939 108.674 6.4939C108.565 6.38567 106.611 5.41159 104.766 4.4375C104.332 4.22104 103.463 3.89634 103.029 3.67988C102.812 3.57165 102.486 3.46341 102.378 3.35518C101.944 3.13872 99.0126 2.16463 98.7954 2.16463C98.6869 2.16463 98.3612 2.0564 98.2527 1.94817C98.0356 1.83994 97.8184 1.73171 97.6013 1.73171C97.3842 1.73171 97.7099 1.94817 97.3842 1.83994C97.1671 1.73171 96.7329 1.62348 96.4072 1.62348C96.1901 1.62348 95.4302 1.40701 94.8874 1.29878C91.5222 0.432927 88.6998 0 84.3575 0C81.9693 0 80.8838 0 78.9298 0.216463ZM89.0254 1.73171C91.6308 2.0564 92.7163 2.27287 97.1671 3.46341C97.6013 3.57165 98.1441 3.67988 98.3612 3.78811C99.4468 4.1128 100.207 4.32927 100.641 4.54573C100.858 4.65396 101.184 4.7622 101.401 4.7622C101.509 4.7622 101.726 4.87043 101.835 4.97866C101.944 5.08689 102.486 5.30335 102.921 5.41159C103.68 5.62805 105.2 6.38567 107.263 7.46799C107.588 7.68445 108.24 8.00915 108.674 8.22561C109.108 8.5503 109.76 8.875 109.977 8.98323C110.194 9.09146 110.737 9.41616 111.279 9.74085C111.822 10.0655 112.256 10.282 112.256 10.282C112.473 10.282 113.125 10.8232 113.125 11.0396C113.125 11.1479 113.233 11.3643 113.342 11.4726C113.559 11.689 113.885 14.0701 114.319 18.2912C114.319 18.7241 114.427 19.4817 114.536 20.0229C114.645 20.564 114.645 21.7546 114.753 22.6204C114.862 23.4863 114.97 24.7851 114.97 25.5427C115.079 26.3003 115.079 27.3826 115.187 27.9238C115.187 28.4649 115.296 29.5473 115.404 30.1966C115.513 30.846 115.513 32.0366 115.622 32.7942C115.73 34.093 115.839 35.7165 116.056 38.5305C116.164 39.3963 116.164 40.154 116.164 40.2622C116.164 40.3704 116.164 40.6951 116.164 41.0198C116.273 41.3445 116.273 42.3186 116.381 43.0762C116.381 43.8338 116.49 44.9162 116.49 45.4573C116.707 48.2713 116.707 50.2195 116.707 55.3064C116.707 58.4451 116.707 60.9345 116.599 60.9345C116.49 61.0427 115.187 60.3933 114.536 60.0686C114.319 59.9604 113.993 59.8521 113.668 59.7439C113.125 59.5274 111.496 58.8781 110.194 58.3369C109.76 58.1204 109.325 58.0122 109.217 58.0122C109.108 58.0122 108.891 57.904 108.674 57.7957C108.131 57.471 106.177 56.9299 104.983 56.6052C104.44 56.497 103.68 56.2805 103.355 56.2805C101.944 55.9558 98.0356 55.6311 96.6243 55.6311C95.1045 55.6311 92.1736 55.9558 90.9794 56.064C90.4367 56.1723 89.3511 56.2805 88.8083 56.3887C87.0714 56.6052 83.9233 57.471 82.7292 57.904C82.5121 58.0122 82.295 58.1204 82.295 58.1204C82.295 58.1204 82.0779 58.2287 81.8608 58.3369C81.6437 58.4451 80.5581 58.8781 79.4725 59.2027C78.387 59.6357 77.3014 60.0686 76.9758 60.1768C76.6501 60.2851 75.9988 60.6098 75.3474 60.9345C74.8046 61.1509 74.2619 61.3674 74.1533 61.4756C74.0448 61.5838 72.0907 62.3415 71.3309 62.6662C71.1137 62.7744 70.8966 62.8826 70.7881 62.8826C70.6795 62.8826 70.571 62.9909 70.4624 62.9909C70.3539 62.9909 69.7025 63.2073 69.0512 63.4238C67.2057 64.0732 65.686 64.6143 63.732 65.1555C63.1892 65.2637 62.4293 65.4802 62.2122 65.5884C61.8865 65.6966 61.4523 65.8049 61.2352 65.8049C61.0181 65.8049 60.4753 66.0213 60.1496 66.1296C58.6298 66.6707 57.7614 66.8872 57.0015 66.9954C56.5673 67.1037 55.5903 67.3201 54.8304 67.5366C54.0705 67.7531 52.7678 67.9695 52.1165 68.0778C51.3566 68.186 50.4882 68.2942 50.1625 68.4024C49.8368 68.5107 49.4026 68.5107 49.1855 68.5107C48.9684 68.5107 48.6427 68.5107 48.4256 68.6189C48.2085 68.7271 47.3401 68.8354 46.5802 68.8354C45.8203 68.9436 44.9518 68.9436 44.8433 69.0518C42.9978 69.2683 41.0438 69.2683 39.1984 69.2683C38.0043 69.1601 37.1358 69.1601 37.0273 69.0518C36.9187 68.9436 35.7246 68.7271 34.7476 68.6189C34.3134 68.5107 33.7706 68.4024 33.4449 68.4024C33.1193 68.2942 32.4679 68.186 32.0337 68.0778C31.4909 67.9695 30.9482 67.8613 30.6225 67.7531C30.4054 67.6448 30.0797 67.5366 29.9712 67.5366C29.754 67.5366 28.2343 67.1037 27.5829 66.779C27.3658 66.6707 27.1487 66.5625 26.9316 66.5625C26.6059 66.4543 25.1947 65.8049 23.892 65.2637C23.5664 65.1555 23.2407 64.939 23.1321 64.939C22.8065 64.939 21.5038 63.2073 21.5038 62.8826C21.5038 62.8826 21.938 63.0991 22.5894 63.3156C23.1321 63.6402 23.7835 63.8567 23.7835 63.8567C23.892 63.8567 24.1091 63.9649 24.4348 64.0732C24.6519 64.1814 24.9776 64.2896 25.0861 64.2896C25.3033 64.2896 26.1717 64.5061 27.4744 64.939C27.9086 65.0473 28.5599 65.2637 28.777 65.372C28.9942 65.4802 29.754 65.6966 30.4054 65.8049C32.2508 66.346 32.685 66.4543 33.7706 66.6707C36.8102 67.3201 39.0898 67.4284 42.5636 67.4284C45.8203 67.3201 46.4716 67.3201 49.7283 66.6707C50.0539 66.5625 50.8138 66.4543 51.3566 66.346C51.8994 66.2378 52.6593 66.1296 52.8764 66.0213C53.2021 65.9131 53.7448 65.9131 54.1791 65.8049C54.6133 65.6966 54.939 65.6966 55.0475 65.5884C55.0475 65.5884 55.5903 65.4802 56.1331 65.372C57.5443 65.1555 59.4983 64.6143 60.3667 64.1814C60.5838 64.0732 61.4523 63.7485 62.4293 63.532C64.0576 62.9909 65.0346 62.6662 66.1202 62.125C66.4459 62.0168 66.663 61.9085 66.663 61.9085C66.7715 61.9085 68.3999 61.2591 68.7255 61.0427C69.0512 60.8262 70.8966 60.1768 72.1993 59.6357C72.7421 59.4192 74.0448 58.9863 75.0218 58.6616C75.9988 58.3369 77.0843 57.904 77.41 57.7957C77.8442 57.6875 78.2784 57.471 78.387 57.471C78.9298 57.2546 79.5811 57.0381 80.0153 56.9299C80.2324 56.9299 80.4495 56.8216 80.5581 56.7134C80.7752 56.497 84.4661 55.3064 86.0944 54.8735C86.5287 54.7652 87.5057 54.5488 88.3741 54.4406C89.2425 54.3323 90.3281 54.1159 90.6538 54.0076C91.5222 53.7912 95.2131 53.7912 96.5158 53.8994C97.0586 53.8994 97.927 54.0076 98.3612 54.0076C98.904 54.0076 99.5553 54.1159 99.7724 54.1159C100.098 54.1159 100.858 54.3323 101.509 54.4406C102.269 54.5488 102.921 54.657 103.138 54.7652C103.355 54.8735 104.006 54.9817 104.549 55.0899C105.743 55.3064 106.177 55.4146 108.457 56.1723C110.519 56.8217 110.519 56.8216 110.628 57.0381C110.737 57.3628 111.062 57.471 111.388 57.3628C111.496 57.3628 111.822 56.9299 112.039 56.3887C112.691 55.0899 113.016 54.5488 113.776 54.2241C114.536 53.7912 114.753 53.5747 114.536 53.1418C114.427 53.0335 114.427 50.436 114.427 47.4055C114.427 44.375 114.427 41.2363 114.319 40.3704C114.319 39.5046 114.21 37.8811 114.21 36.6906C114.102 34.093 114.102 32.5777 113.885 30.1966C113.776 29.2226 113.668 27.3826 113.668 26.1921C113.559 25.0015 113.45 23.3781 113.342 22.6204C113.233 21.8628 113.125 20.997 113.125 20.6723C113.125 20.3476 113.016 19.5899 112.908 19.0488C112.799 18.5076 112.691 17.8582 112.691 17.75C112.691 17.1006 112.365 15.0442 112.256 14.503C112.148 14.0701 111.931 13.8537 111.605 13.6372C110.845 13.096 110.628 12.8796 109.977 12.122C109.542 11.3643 109.434 11.1479 109.325 10.6067C109.325 10.0655 109.217 9.84909 108.891 9.63262C108.457 9.30793 107.588 8.76677 106.503 8.44207C105.092 7.90092 102.161 6.8186 101.726 6.60213C101.509 6.4939 101.292 6.38567 101.184 6.38567C101.075 6.38567 100.749 6.27744 100.424 6.16921C99.9896 6.06098 98.6869 5.62805 95.8644 4.7622C94.5618 4.32927 93.6933 4.22104 92.6078 4.00457C91.9564 3.89634 91.3051 3.78811 91.088 3.67988C90.8709 3.57165 90.111 3.46341 89.3511 3.46341C86.6372 3.24695 77.1929 3.57165 75.456 3.89634C75.3474 3.89634 74.6961 4.00457 73.9362 4.1128C72.0907 4.4375 71.0052 4.65396 70.4624 4.7622C70.571 5.08689 69.9196 5.19512 69.3768 5.41159C68.8341 5.51982 67.7485 5.84451 67.0972 6.06098C66.3373 6.27744 65.2517 6.60213 64.709 6.71037C64.0576 6.8186 63.1892 7.14329 62.755 7.25152C62.3207 7.46799 61.6694 7.57622 61.3437 7.68445C61.0181 7.79268 60.5838 7.90091 60.2582 8.00915C60.0411 8.11738 59.7154 8.22561 59.6068 8.22561C59.4983 8.22561 59.1726 8.33384 58.9555 8.44207C58.6298 8.65854 58.1956 8.76677 57.9785 8.875C57.7614 8.98323 56.893 9.1997 56.1331 9.41616C54.7218 9.84909 53.8534 10.282 51.5737 11.1479C51.2481 11.2561 50.9224 11.3643 50.8138 11.3643C50.7053 11.3643 50.4882 11.4726 50.2711 11.5808C50.0539 11.689 49.7283 11.7973 49.6197 11.7973C49.5112 11.7973 49.1855 11.9055 49.077 12.0137C48.8598 12.122 48.5342 12.2302 48.2085 12.3384C47.8828 12.4466 47.4486 12.6631 47.2315 12.7713C47.0144 12.8796 46.4716 13.096 46.1459 13.2043C45.3861 13.4207 42.6722 14.2866 42.3465 14.503C42.2379 14.6113 42.0208 14.6113 41.8037 14.6113C41.5866 14.6113 41.1524 14.7195 40.7182 14.8277C39.9583 15.0442 39.524 15.1524 37.2444 15.4771C32.685 16.1265 30.731 16.343 26.6059 16.343C23.2407 16.343 22.4808 16.343 20.7439 16.1265C20.3097 16.0183 19.3327 15.9101 18.5728 15.9101C17.9215 15.8018 17.2701 15.6936 17.1616 15.6936C17.053 15.6936 16.7274 15.5854 16.2931 15.5854C15.9675 15.5854 15.4247 15.4771 15.2076 15.3689C14.9905 15.2607 14.122 15.1524 13.3621 14.936C12.6022 14.7195 11.7338 14.503 11.6252 14.503C11.0825 14.1784 9.99691 13.9619 9.7798 14.0701C9.45413 14.1784 8.69424 14.8277 8.69424 15.1524C8.69424 15.5854 8.26002 16.2348 7.71724 16.4512C7.60868 16.5595 6.95735 16.6677 6.52313 16.7759C5.32902 16.9924 4.67768 17.4253 5.1119 17.9665C5.22046 18.0747 5.32902 18.3994 5.43757 18.7241C5.65468 19.8064 5.98035 21.2134 6.0889 21.8628C6.19746 22.1875 6.19746 22.6204 6.30602 22.8369C6.41457 23.2698 6.74024 24.6768 6.95735 25.7591C7.06591 26.1921 7.28302 27.1662 7.50013 28.032C7.71724 28.8979 7.93435 29.7637 7.93435 30.0884C8.04291 30.6296 8.15146 30.9543 8.69424 32.9024C9.34557 35.0671 9.7798 36.6906 9.88835 37.3399C9.99691 37.6646 10.1055 38.2058 10.214 38.6387C10.4311 39.3963 10.5397 39.721 10.3226 39.5046C10.1055 39.2881 8.36857 36.2576 8.04291 35.5C7.60868 34.5259 7.06591 32.9024 6.84879 32.1448C6.74024 31.9284 6.63168 31.1707 6.41457 30.6296C6.30602 30.0884 6.0889 29.439 6.0889 29.2226C5.98035 29.0061 5.87179 28.3567 5.76324 27.8155C5.65468 27.2744 5.43757 26.5168 5.32902 26.0838C5.22046 25.6509 5.1119 25.218 5.00335 25.0015C4.89479 24.7851 4.78624 24.4604 4.78624 24.1357C4.67768 23.5945 4.56913 23.0534 4.02635 21.2134C3.91779 20.7805 3.70068 20.1311 3.70068 19.8064C3.70068 19.5899 3.48357 18.8323 3.37501 18.2912C3.1579 17.4253 2.83224 15.8018 2.39801 13.529C2.28946 13.2043 2.1809 12.5549 2.1809 12.2302C2.1809 11.9055 2.07235 11.3643 1.96379 11.0396C1.96379 10.7149 1.85523 10.1738 1.74668 9.84909L1.52957 9.30793L2.50657 9.84909C3.04935 10.1738 3.91779 10.4985 4.35201 10.7149C4.78624 10.9314 5.43757 11.1479 5.54613 11.2561C5.87179 11.3643 8.26002 12.122 9.01991 12.3384C9.23702 12.4466 9.99691 12.5549 10.5397 12.7713C11.191 12.9878 11.9509 13.2043 12.2766 13.2043C12.6022 13.3125 13.0365 13.4207 13.145 13.4207C14.2306 13.6372 15.5332 13.8537 15.9675 13.9619C16.5102 14.1784 16.9445 14.1784 17.9215 14.2866C18.2471 14.2866 19.1156 14.503 19.8755 14.6113C22.8065 15.0442 26.9316 15.3689 28.8856 15.1524C29.6455 15.0442 30.5139 15.0442 30.9482 14.936C31.3824 14.936 31.8166 14.8277 31.9252 14.7195C32.0337 14.6113 32.3594 14.6113 32.685 14.6113C33.0107 14.6113 33.5535 14.503 33.8792 14.3948C34.2048 14.2866 34.7476 14.1784 35.0733 14.0701C36.2674 13.8537 37.4615 13.6372 37.7872 13.529C38.0043 13.4207 38.5471 13.3125 39.0898 13.2043C39.5241 13.096 40.2839 12.8796 40.8267 12.7713C41.2609 12.6631 42.2379 12.3384 42.9978 12.122C44.7347 11.5808 48.4256 10.3902 48.6427 10.282C48.7513 10.1738 49.2941 10.0655 49.7283 9.84909C50.4882 9.95732 51.031 9.74085 51.2481 9.74085C51.4652 9.63262 51.8994 9.52439 52.3336 9.30793C52.7678 9.1997 53.962 8.76677 55.0475 8.44207C56.1331 8.11738 57.2186 7.68445 57.6528 7.57622C57.9785 7.46799 58.6298 7.25152 58.9555 7.14329C59.2812 7.03506 59.7154 6.8186 59.824 6.8186C59.9325 6.8186 60.2582 6.71037 60.3667 6.60213C60.801 6.38567 62.6464 5.73628 63.6234 5.41159C63.9491 5.30335 65.0346 4.97866 66.1202 4.54573C67.2058 4.22104 68.1827 3.89634 68.2913 3.89634C68.3999 3.89634 68.8341 3.78811 69.3769 3.57165C69.9196 3.46341 70.571 3.24695 70.8966 3.24695C71.2223 3.13872 71.9822 3.03049 72.525 2.92226C73.0678 2.81402 73.9362 2.59756 74.479 2.48933C74.9132 2.3811 75.3474 2.27287 75.456 2.27287C75.5645 2.16463 76.8672 1.94817 78.1699 1.83994C78.7126 1.83994 79.5811 1.73171 80.1239 1.62348C81.4265 1.40701 87.0714 1.51524 89.0254 1.73171ZM90.6538 5.30335C91.088 5.41159 91.6308 5.51982 91.9564 5.51982C92.7163 5.62805 94.1275 5.95274 94.8874 6.16921C95.2131 6.27744 95.8644 6.4939 96.1901 6.4939C97.0585 6.71037 99.3382 7.46799 100.424 7.79268C100.858 7.90091 101.401 8.11738 101.401 8.11738C101.401 8.11738 101.944 8.22561 102.486 8.44207C105.309 9.52439 105.96 9.74085 105.96 9.74085C105.96 9.74085 106.286 9.84909 106.503 9.95732C106.829 10.0655 107.263 10.282 107.588 10.3902C108.131 10.6067 108.131 10.6067 108.24 11.2561C108.24 11.5808 108.457 12.122 108.565 12.4466C109 13.3125 110.085 14.503 110.737 14.8277C111.388 15.1524 111.279 14.936 111.605 17.6418C111.714 18.3994 111.822 19.8064 111.931 20.8887C112.148 23.7027 112.365 25.4345 112.365 26.3003C112.365 26.7332 112.473 27.5991 112.473 28.2485C112.473 28.8979 112.582 30.0884 112.691 30.9543C112.691 31.8201 112.799 32.7942 112.799 33.3354C112.799 33.7683 112.908 35.1753 112.908 36.4741C112.908 37.6646 113.016 38.9634 113.016 39.3963C113.016 39.8293 113.125 43.0762 113.125 46.6479V53.1418L112.691 53.3582C112.256 53.5747 111.279 54.657 111.062 55.3064C110.954 55.5229 110.845 55.7393 110.737 55.7393C110.628 55.7393 109.868 55.5229 109.542 55.4146C108.348 54.8735 104.332 54.0076 101.618 53.5747C100.858 53.4665 99.9896 53.3582 99.4468 53.25C97.2757 52.9253 91.5222 52.8171 90.4367 53.1418C90.111 53.25 89.2425 53.3582 88.4827 53.4665C86.0944 53.7912 82.4035 54.8735 79.7982 55.8476C79.2554 56.064 75.1303 57.3628 74.8046 57.471C74.5875 57.471 74.3704 57.5793 74.3704 57.5793C74.2619 57.6875 73.3934 58.0122 72.4164 58.3369C70.6795 58.8781 70.2453 59.0945 69.7025 59.311C69.0512 59.6357 67.64 60.1768 67.4229 60.2851C67.2057 60.3933 66.3373 60.718 65.3603 61.1509C62.1036 62.4497 57.4357 63.9649 56.0245 64.1814C55.6988 64.1814 55.2646 64.2896 54.939 64.3979C54.6133 64.5061 54.1791 64.6143 53.962 64.6143C53.3106 64.7226 51.7908 64.939 51.2481 65.0473C51.031 65.1555 50.5967 65.1555 50.4882 65.1555C50.2711 65.1555 49.6197 65.2637 48.9684 65.4802C47.5572 65.8049 46.9058 65.9131 46.2545 65.9131C46.0374 65.9131 45.1689 66.0213 44.4091 66.1296C41.6952 66.346 36.0503 66.1296 34.0963 65.5884C33.662 65.4802 33.2278 65.372 33.0107 65.372C32.7936 65.372 32.1423 65.1555 31.4909 65.0473C30.8396 64.8308 30.0797 64.6143 29.9712 64.6143C29.754 64.6143 29.5369 64.5061 29.4284 64.5061C29.3198 64.3979 28.9942 64.3979 28.6685 64.2896C28.3428 64.1814 27.9086 64.0732 27.5829 63.9649C27.2573 63.8567 26.9316 63.7485 26.7145 63.6402C25.5204 63.3156 24.869 63.0991 23.7835 62.6662C23.0236 62.3415 22.3723 62.0168 22.2637 61.9085C22.2637 61.6921 22.1551 61.6921 22.0466 61.6921C21.8295 61.6921 20.6354 60.8262 20.6354 60.6098C20.5268 60.2851 20.6354 60.2851 21.1781 60.3933C22.8065 60.8262 23.4578 61.0427 23.5664 61.1509C23.6749 61.2591 23.892 61.2591 24.0006 61.2591C24.1091 61.2591 24.4348 61.3674 24.7605 61.4756C25.9546 62.0168 26.7145 61.9085 26.7145 61.2591C26.7145 60.8262 26.3888 60.5015 25.5204 60.1768C25.1947 60.0686 24.6519 59.8521 24.3263 59.7439C24.0006 59.6357 23.6749 59.5274 23.4578 59.5274C23.2407 59.5274 22.8065 59.4192 22.3723 59.2027C21.938 59.0945 21.2867 58.878 20.8525 58.7698C20.0926 58.6616 19.984 58.5534 19.984 58.3369C19.984 58.2287 19.8755 57.7957 19.7669 57.3628C19.6584 56.9299 19.5498 56.3887 19.5498 56.064C19.3327 55.3064 19.4413 51.0854 19.5498 50.2195C19.6584 49.8948 19.7669 49.3537 19.8755 49.029C20.2011 47.8384 20.0926 47.5137 18.6814 46.9726C17.3787 46.4314 16.8359 46.1067 14.7734 44.375C13.0365 42.8598 12.7108 42.4268 12.6022 41.7774C12.6022 41.4527 12.3851 40.8034 12.2766 40.2622C11.191 36.7988 10.4311 34.3095 10.3226 33.5518C10.3226 33.3354 10.1055 32.686 9.99691 32.1448C9.88835 31.7119 9.56269 30.5213 9.34558 29.7637C9.12846 28.8979 8.8028 27.5991 8.58569 26.9497C8.36857 26.1921 8.15146 25.3262 8.15146 25.0015C8.04291 24.2439 7.60868 22.404 7.50013 21.8628C7.39157 21.6463 7.28302 20.997 7.17446 20.3476C7.06591 19.6982 6.84879 18.9405 6.74024 18.6159C6.52313 18.2912 6.52313 18.1829 6.95735 18.1829C8.26002 18.1829 10.1055 16.7759 10.1055 15.6936C10.1055 15.4771 10.214 15.3689 10.4311 15.3689C10.6482 15.3689 10.9739 15.4771 11.191 15.5854C12.0595 15.9101 13.6878 16.343 15.9675 16.8841C17.8129 17.3171 18.03 17.3171 19.007 17.4253C19.5498 17.4253 20.2011 17.5335 20.5268 17.6418C22.4808 18.0747 30.1883 17.9665 33.2278 17.6418C33.4449 17.6418 34.2048 17.5335 34.9647 17.4253C35.7246 17.3171 36.4845 17.2088 36.8102 17.2088C37.1358 17.1006 37.4615 17.1006 37.57 17.1006C38.7642 17.1006 43.8663 15.9101 45.0604 15.3689C45.4946 15.1524 46.4716 14.8277 47.1229 14.6113C47.3401 14.503 48.1 14.2866 48.7513 13.9619C49.4026 13.6372 50.054 13.529 50.1625 13.529C50.2711 13.529 50.5967 13.4207 50.8138 13.3125C51.031 13.2043 51.5737 12.9878 51.8994 12.8796C52.2251 12.7713 53.0935 12.4466 53.7448 12.122C54.3962 11.7973 56.1331 11.1479 57.6528 10.7149C60.801 9.63262 60.801 9.63262 62.2122 9.1997C62.755 8.98323 63.6234 8.76677 64.1662 8.65854C64.6004 8.55031 65.1432 8.44207 65.2517 8.33384C65.3603 8.22561 65.7945 8.11738 66.2287 8.00915C66.663 7.90091 67.7485 7.57622 68.617 7.35976C71.2223 6.60213 72.525 6.27744 73.1763 6.16921C73.502 6.16921 74.8046 5.95274 75.8902 5.73628C78.4955 5.30335 81.8608 5.19512 86.6372 5.30335C88.8083 5.08689 90.111 5.19512 90.6538 5.30335ZM9.45413 40.5869C9.67124 40.9116 9.88835 41.2363 9.99691 41.4527C10.1055 41.6692 10.3226 41.8857 10.4311 41.9939C10.8654 42.6433 12.2766 44.2668 13.2536 45.1326C15.2076 46.8643 16.5103 47.8384 17.5958 48.2713C18.03 48.4878 18.3557 48.7043 18.3557 48.7043C18.3557 48.8125 18.2471 49.1372 18.1386 49.5701C18.03 50.1113 17.9215 50.8689 17.9215 53.1418C17.9215 55.7393 17.9215 56.1723 18.1386 57.3628C18.5728 59.311 18.8985 60.6098 19.1156 61.3674C19.2241 61.6921 19.3327 62.0168 19.3327 62.0168C19.2241 62.125 17.9215 60.2851 17.9215 60.1768C17.9215 60.0686 17.8129 59.9604 17.7044 59.8521C17.5958 59.7439 17.2701 59.311 17.053 58.7698L16.6188 57.904V54.1159C16.5102 49.7866 16.5102 49.8948 15.8589 49.3537C15.3161 48.9207 14.0135 48.0549 13.5792 47.8384C12.7108 47.4055 10.3226 44.6997 10.1055 43.9421C9.99691 43.5091 9.56269 41.9939 9.12846 41.0198C8.8028 39.721 8.8028 39.6128 9.45413 40.5869ZM12.3851 48.3796C12.4937 48.4878 12.8194 48.7043 13.145 48.9207C13.4707 49.1372 13.9049 49.3537 14.0135 49.4619C14.122 49.5701 14.4477 49.7866 14.6648 49.8948C15.3161 50.3277 15.3161 50.5442 15.4247 52.6006C15.4247 53.4665 15.5332 54.657 15.6418 55.1982C15.6418 55.6311 15.7504 56.064 15.7504 56.1723C15.6418 56.2805 13.0365 50.9771 13.0365 50.7607C13.0365 50.6524 12.8194 50.1113 12.4937 49.4619C12.168 48.8125 11.9509 48.1631 11.9509 48.1631C11.7338 47.9466 12.168 48.1631 12.3851 48.3796Z" fill="#0F0B0D"/>
<path fill-rule="evenodd" clip-rule="evenodd" d="M60.801 11.9055C59.4983 12.122 57.7614 12.4466 57.2186 12.6631C55.5903 13.4207 54.8304 13.8537 54.2876 14.1784C53.962 14.3948 53.4192 14.7195 53.0935 15.0442C51.4652 16.2348 49.1855 18.8323 47.7743 21.3216C47.5572 21.7546 46.9058 23.0534 46.5802 23.9192C46.4716 24.3521 46.1459 25.0015 45.9288 25.3262C45.7117 25.7591 45.4946 26.3003 45.4946 26.7332C45.3861 27.0579 45.2775 27.7073 45.1689 28.1402C44.8433 29.5473 44.7347 29.9802 44.6262 31.279C44.4091 33.8765 44.5176 37.0152 44.9518 39.2881C45.3861 41.561 46.0374 43.9421 46.5802 45.0244C47.5572 47.189 47.8828 47.7302 48.0999 48.0549C48.2085 48.2713 48.4256 48.4878 48.4256 48.4878C48.4256 48.7043 50.054 50.9771 50.5967 51.5183C53.3106 54.4405 55.5903 55.9558 58.4127 56.8216C60.0411 57.3628 60.6924 57.471 62.1036 57.5793C64.1662 57.6875 67.2057 57.1463 68.8341 56.2805C71.2223 54.9817 71.4394 54.8735 72.8506 53.5747C73.2849 53.1418 73.6105 52.9253 73.7191 52.9253C73.8276 52.9253 74.1533 52.4924 74.6961 51.843C75.1303 51.3018 75.5645 50.7607 75.6731 50.7607C75.7816 50.6524 76.5415 49.4619 76.9758 48.8125C77.41 48.0549 78.6041 45.5656 78.8212 44.9162C79.9068 41.6692 80.1239 40.8034 80.341 38.314C80.5581 36.907 80.5581 33.8765 80.4495 32.5777C80.341 31.4954 79.6896 28.032 79.364 27.1662C79.2554 26.7332 79.1469 26.3003 79.1469 26.1921C79.1469 26.0838 79.1469 25.8674 79.0383 25.8674C79.0383 25.8674 78.8212 25.4345 78.7126 25.0015C78.387 24.1357 77.0843 21.5381 76.5415 20.6723C75.6731 19.2652 75.456 18.9406 74.5875 17.9665C73.3934 16.4512 72.0908 15.2607 70.6795 14.3948C69.7025 13.8537 67.7485 12.7713 66.8801 12.5549C64.8175 12.0137 62.4293 11.689 60.801 11.9055ZM64.0576 13.4207C64.2747 13.529 64.8175 13.6372 65.2517 13.7454C66.1202 13.9619 66.5544 14.1784 68.0742 14.936C69.2683 15.4771 69.9196 15.9101 70.4624 16.4512C70.6795 16.6677 71.2223 17.1006 71.548 17.4253C74.479 20.0229 77.1929 25.0015 78.0613 29.7637C78.4955 32.1448 78.6041 32.9024 78.6041 35.5C78.6041 37.5564 78.6041 37.8811 78.2784 39.6128C78.0613 41.3445 77.41 43.5091 76.9758 44.5915C76.8672 44.8079 76.7586 45.0244 76.7586 45.0244C76.7586 45.1326 75.7816 47.0808 75.1303 48.2713C74.5875 49.2454 72.7421 51.5183 71.7651 52.3841C71.4394 52.7088 71.1138 52.9253 71.0052 53.0335C70.7881 53.3582 69.2683 54.2241 68.0742 54.8735C66.8801 55.4146 65.9031 55.7393 63.9491 56.064C62.1036 56.3887 59.2812 55.9558 57.5443 55.0899C57.1101 54.8735 56.6758 54.657 56.4587 54.657C56.3502 54.5488 55.8074 54.3323 55.3732 54.0076C54.939 53.6829 54.2876 53.3582 54.0705 53.1418C53.5277 52.8171 52.985 52.3841 51.7908 50.9771C50.8138 49.8948 49.5112 48.1631 49.5112 47.9466C49.5112 47.9466 49.2941 47.5137 49.077 47.189C48.8598 46.7561 48.5342 46.2149 48.4256 45.9985C48.3171 45.782 48.0999 45.2409 47.8828 44.8079C47.0144 42.968 46.2545 39.9375 46.0374 37.3399C45.8203 35.6082 45.8203 32.0366 46.0374 30.9543C46.4716 28.1402 47.2315 25.6509 47.9914 23.9192C48.8598 21.8628 49.6197 20.6723 51.3566 18.6159C52.3336 17.5335 55.5903 14.8277 56.1331 14.8277C56.2416 14.8277 56.5673 14.7195 56.893 14.503C57.5443 14.1784 58.7384 13.8537 60.1496 13.529C61.1266 13.3125 63.4063 13.3125 64.0576 13.4207Z" fill="#0F0B0D"/>
<path fill-rule="evenodd" clip-rule="evenodd" d="M96.7329 24.5686C94.8874 24.7851 93.3677 25.6509 92.2821 27.3826C91.8479 28.1402 91.6308 28.6814 91.6308 30.1966C91.6308 31.1707 91.6308 31.279 92.065 32.253C92.6078 33.4436 92.9334 33.8765 93.6933 34.4177C94.996 35.5 97.6013 35.7165 99.1211 34.9588C99.881 34.5259 100.967 33.6601 101.401 33.1189C101.618 32.9024 101.835 32.5777 101.944 32.3613C102.378 31.7119 102.595 29.872 102.269 28.3567C102.161 27.5991 101.184 26.1921 100.641 25.8674C100.424 25.7591 100.207 25.5427 100.098 25.4345C99.7724 25.218 98.1441 24.4604 97.927 24.4604C97.6013 24.5686 97.1671 24.5686 96.7329 24.5686ZM98.3612 26.3003C99.3382 26.7332 100.098 27.4909 100.424 28.1402C100.749 28.7896 100.858 30.0884 100.641 30.9543C100.424 31.7119 99.7724 32.5777 99.0126 33.1189C98.0355 33.7683 97.2757 33.9848 96.1901 33.7683C94.996 33.5518 94.2361 33.0107 93.5848 31.9284C93.1505 31.0625 93.1506 31.0625 93.1506 29.872C93.1506 28.7896 93.1505 28.6814 93.5848 28.1402C94.3447 26.9497 95.1046 26.3003 95.8644 26.0838C96.7329 25.9756 97.8184 26.0838 98.3612 26.3003Z" fill="#0F0B0D"/>
<path fill-rule="evenodd" clip-rule="evenodd" d="M25.7375 32.686C25.4118 32.7942 25.0861 32.9024 24.869 33.1189C23.4578 34.3095 22.8065 35.0671 22.8065 35.3918C22.8065 35.5 22.6979 35.6082 22.5894 35.8247C22.2637 36.2576 22.2637 37.3399 22.4808 38.6387C22.915 40.6951 23.6749 41.6692 25.4118 42.5351C26.0631 42.8598 26.1717 42.8598 27.6915 42.8598C29.2113 42.8598 29.2113 42.8598 30.0797 42.4268C31.1653 41.8857 32.1423 40.6951 32.5765 39.2881C33.0107 38.0976 33.0107 37.7729 32.9022 36.5823C32.7936 35.8247 32.685 35.5 32.3594 34.8506C31.4909 33.3354 30.6225 32.7942 28.777 32.5777C26.7145 32.5777 26.3888 32.5777 25.7375 32.686ZM28.5599 34.2012C28.9941 34.2012 29.4284 34.2012 29.4284 34.2012C29.754 34.2012 30.731 35.1753 31.0567 35.7165C31.8166 37.1235 31.4909 38.9634 30.2968 40.2622C29.5369 41.1281 28.9942 41.3445 27.9086 41.3445C26.7145 41.3445 25.846 41.0198 25.1947 40.4787C24.5434 39.9375 24.1091 39.0716 23.892 37.8811C23.7835 36.907 23.7835 36.7988 24.0006 36.2576C24.3263 35.5 25.6289 34.2012 26.1717 33.9848C26.3888 33.8765 26.823 33.8765 27.1487 33.8765C27.5829 34.093 28.1257 34.2012 28.5599 34.2012Z" fill="#0F0B0D"/>
<path fill-rule="evenodd" clip-rule="evenodd" d="M99.6639 9.09146C99.4468 9.19969 99.2297 9.30793 99.1211 9.41616C98.904 9.63262 99.0126 10.0655 99.4468 10.282C99.7725 10.3902 101.292 10.8232 103.138 11.2561C103.463 11.3643 104.332 11.5808 104.875 11.7973C106.177 12.2302 106.72 12.2302 106.937 11.7973C107.263 11.1479 106.72 10.7149 104.875 10.1738C104.332 9.95732 103.68 9.74085 103.463 9.74085C103.246 9.63262 103.029 9.52439 102.812 9.52439C102.703 9.52439 102.052 9.41616 101.509 9.30793C100.098 8.98323 100.098 8.98323 99.6639 9.09146Z" fill="#0F0B0D"/>
<path fill-rule="evenodd" clip-rule="evenodd" d="M60.0411 18.8323C59.824 19.0488 59.824 19.157 59.9325 19.8064C59.9325 20.564 59.9325 20.564 59.7154 20.564C59.4983 20.564 59.1726 20.6723 58.1956 21.1052C57.5443 21.4299 56.6758 22.0793 56.1331 22.6204C55.3732 23.378 54.6133 25.0015 54.3962 25.9756C54.1791 27.4909 54.7218 29.5473 55.6988 30.4131C56.4587 31.0625 57.7614 31.8201 58.847 32.253C59.3897 32.4695 60.0411 32.686 60.1496 32.686C60.3667 32.7942 62.4293 33.4436 63.8405 33.8765C64.2747 33.9848 64.8175 34.2012 64.9261 34.2012C65.0346 34.2012 65.686 34.5259 66.2287 34.6341C67.0972 34.9588 67.4229 35.1753 68.3999 35.9329C70.1367 37.4482 70.3539 37.8811 70.3539 39.6128C70.3539 40.5869 70.1367 41.2363 69.2683 42.5351C68.3998 43.8338 66.8801 44.8079 64.709 45.3491C63.0806 45.782 61.778 45.6738 60.5838 45.2409C59.2812 44.6997 59.0641 44.5915 58.1956 43.7256C57.3272 42.8598 56.893 42.6433 56.4587 43.0762C56.0245 43.5091 56.2416 43.9421 57.3272 45.0244C57.87 45.5655 58.4127 45.8902 58.9555 46.2149C59.3897 46.4314 59.9325 46.6479 60.1496 46.7561C60.6924 46.9726 62.1036 47.2973 62.4293 47.189C62.5378 47.189 62.9721 47.189 63.1892 47.189L63.6234 47.2973V48.2713C63.6234 49.3537 63.8405 49.7866 64.3833 49.7866C65.0346 49.7866 65.1432 49.5701 65.1432 48.1631V46.8643L66.1202 46.5396C68.1827 45.8902 70.1367 44.2668 70.8966 42.4268C71.6565 40.8034 71.8736 39.9375 71.6565 38.4223C71.3309 36.3659 69.3769 34.3095 66.7715 33.2271C65.7945 32.7942 64.2747 32.253 62.2122 31.7119C58.1956 30.5213 56.7844 29.7637 56.1331 28.4649C55.916 28.032 55.916 27.8155 55.916 26.8415C55.916 25.7591 55.916 25.6509 56.3502 24.8933C57.1101 23.2698 58.5213 22.2957 60.4753 21.8628C61.2352 21.6463 63.1892 21.7546 64.2747 22.0793C65.3603 22.2957 66.9886 23.1616 67.5314 23.5945C67.64 23.7027 67.8571 23.811 67.9656 23.9192C68.0742 24.0274 68.2913 24.2439 68.3999 24.3521C68.7255 24.7851 69.1597 25.0015 69.3769 24.7851C69.594 24.5686 69.594 24.3521 69.2683 23.7027C68.7255 22.5122 66.5544 21.1052 64.8175 20.7805C64.6004 20.6723 64.1662 20.6723 63.9491 20.564C63.732 20.4558 63.1892 20.4558 62.6464 20.3476C61.778 20.2393 61.5608 20.1311 61.5608 19.6982C61.5608 19.3735 61.2352 18.7241 61.0181 18.6159C60.4753 18.5076 60.2582 18.5076 60.0411 18.8323Z" fill="#0F0B0D"/>
<path fill-rule="evenodd" clip-rule="evenodd" d="M110.194 16.2348C109.76 16.343 109.76 16.8841 109.868 20.4558C109.977 25.6509 110.085 26.8415 110.411 30.846C110.519 31.6037 110.519 32.5777 110.628 32.9024C110.628 33.2271 110.737 34.3095 110.845 35.3918C110.954 36.4741 111.062 37.9893 111.062 38.9634C111.062 39.8293 111.171 40.6951 111.171 40.6951C111.171 40.6951 111.171 41.7774 111.171 43.0762C111.171 44.375 111.279 45.9985 111.279 46.6479C111.388 47.4055 111.388 48.4878 111.496 49.029C111.605 51.0854 111.714 51.4101 112.256 51.3018C112.691 51.1936 112.799 50.8689 112.799 49.1372C112.799 48.2713 112.691 47.2973 112.691 46.8643C112.691 46.4314 112.582 44.8079 112.582 43.4009C112.582 41.8857 112.473 40.2622 112.473 39.8293C112.473 39.3963 112.365 38.0976 112.256 37.0152C112.148 35.9329 112.039 34.4177 112.039 33.7683C111.931 33.1189 111.931 32.4695 111.931 32.3613C111.931 32.253 111.822 30.9543 111.714 29.439C111.496 26.5168 111.279 24.1357 111.171 21.1052C111.171 20.1311 111.062 18.9405 111.062 18.5076C111.062 18.0747 110.954 17.4253 110.954 17.1006C110.954 16.6677 110.954 16.343 110.954 16.343C110.737 16.1265 110.411 16.1265 110.194 16.2348Z" fill="#0F0B0D"/>
<path fill-rule="evenodd" clip-rule="evenodd" d="M11.6252 17.4253C10.8654 18.0747 11.9509 18.9405 14.122 19.3735C16.8359 19.9146 18.2471 20.1311 19.1156 20.1311C19.984 20.1311 20.2011 20.0229 20.2011 19.5899C20.2011 19.157 19.7669 18.8323 19.1156 18.7241C18.7899 18.7241 18.3557 18.6159 18.1386 18.5076C17.9215 18.3994 17.4872 18.3994 17.1616 18.2912C15.9675 18.1829 13.5792 17.6418 13.0365 17.4253C12.4937 17.2088 11.8424 17.2088 11.6252 17.4253Z" fill="#0F0B0D"/>
<path fill-rule="evenodd" clip-rule="evenodd" d="M8.69424 20.564C8.47713 20.7805 8.47713 20.997 8.58569 21.3216C8.69424 21.5381 8.69424 21.971 8.69424 22.1875C8.69424 22.404 8.8028 22.7287 8.8028 22.8369C8.91135 23.0534 9.01991 23.378 9.01991 23.5945C9.12846 24.1357 9.34557 25.0015 9.67124 25.9756C9.7798 26.3003 9.88835 26.8415 9.99691 27.0579C10.1055 27.2744 10.3226 28.1402 10.4311 29.0061C10.6482 29.7637 10.8654 30.6296 10.8654 30.846C11.5167 33.6601 11.7338 34.6341 12.0595 35.6082C12.168 36.0412 12.3851 36.6905 12.3851 36.907C12.3851 37.1235 12.6022 37.8811 12.8194 38.6387C13.0365 39.3963 13.2536 40.2622 13.3621 40.5869C13.5792 41.561 14.122 42.5351 14.3391 42.6433C14.5562 42.7515 14.8819 42.4268 14.8819 41.8857C14.8819 41.6692 14.7734 41.0198 14.6648 40.4787C14.5562 39.9375 14.3391 39.1799 14.3391 38.8552C14.2306 38.5305 14.122 37.9893 14.0135 37.6646C13.9049 37.3399 13.7964 36.6906 13.6878 36.3659C13.5792 35.7165 13.145 33.9848 13.0365 33.7683C13.0365 33.7683 12.8194 33.1189 12.7108 32.3613C12.3851 30.9543 11.7338 28.4649 11.0825 26.0838C10.6482 24.5686 10.4311 23.811 10.214 22.9451C9.67124 20.8887 9.34558 20.1311 9.01991 20.1311C9.01991 20.2393 8.8028 20.3476 8.69424 20.564Z" fill="#0F0B0D"/>
<path fill-rule="evenodd" clip-rule="evenodd" d="M79.5811 22.7287C79.2554 23.0534 79.364 23.4863 79.6897 24.3521C80.1239 25.3262 80.8838 27.9238 81.1009 29.439C81.318 30.7378 81.318 31.279 81.318 33.7683C81.318 37.4482 81.318 37.6646 81.4265 37.9893C81.6437 38.314 82.0779 38.314 82.295 37.9893C82.6207 37.5564 82.7292 36.6906 82.8378 34.8506C82.8378 33.8765 82.9463 33.0107 82.9463 33.0107C82.9463 32.9024 82.8378 31.4954 82.7292 29.7637C82.6206 28.8979 82.4035 27.9238 82.0779 26.7332C81.9693 26.1921 81.7522 25.6509 81.7522 25.4345C81.7522 25.3262 81.6437 25.1098 81.5351 24.8933C81.4265 24.6768 81.318 24.4604 81.318 24.4604C81.318 24.1357 80.6666 22.8369 80.341 22.6204C80.1239 22.404 79.9068 22.404 79.5811 22.7287Z" fill="#0F0B0D"/>
<path fill-rule="evenodd" clip-rule="evenodd" d="M41.9123 30.6296C41.8037 30.846 41.6952 31.1707 41.5866 31.3872C41.4781 32.1448 41.5866 38.0976 41.8037 39.3963C41.9123 40.0457 42.0208 40.9116 42.1294 41.3445C42.2379 42.2104 42.6722 43.7256 42.8893 44.2668C43.1064 44.8079 43.6492 45.8902 43.7577 45.9985C43.8663 46.2149 44.4091 46.2149 44.6262 45.9985C44.8433 45.782 44.8433 45.0244 44.4091 44.1585C44.0834 43.1844 43.6492 41.7774 43.5406 40.9116C43.5406 40.5869 43.3235 39.8293 43.2149 39.1799C43.1064 38.4223 42.9978 37.0152 42.9978 35.1753C42.8893 30.846 42.8893 30.7378 42.5636 30.4131C42.3465 30.0884 42.1294 30.0884 41.9123 30.6296Z" fill="#0F0B0D"/>
<path fill-rule="evenodd" clip-rule="evenodd" d="M102.161 50.8689C102.052 50.9771 101.944 51.1936 101.944 51.3018C102.052 51.7348 102.703 52.0594 104.006 52.2759C104.766 52.3841 105.634 52.6006 107.154 53.1418C108.674 53.6829 109.434 53.6829 109.76 53.4665C110.302 52.9253 109.651 52.2759 108.348 51.9512C108.023 51.843 107.48 51.6265 107.263 51.6265C106.72 51.4101 105.092 50.9771 104.006 50.8689C102.812 50.5442 102.378 50.5442 102.161 50.8689Z" fill="#0F0B0D"/>
</svg>
