<svg width="95" height="67" viewBox="0 0 95 67" fill="none" xmlns="http://www.w3.org/2000/svg">
<path d="M72.241 63.4396C72.9938 62.7923 74.1769 61.4976 74.8222 60.6345C75.36 59.7713 76.6506 56.7504 76.9732 55.4557C77.7261 52.5427 77.511 49.5217 76.4355 47.3639C75.7902 45.9614 75.2524 45.314 74.2845 44.343C72.5636 42.7246 70.7353 41.43 69.122 40.8905C68.9069 40.7826 68.4767 40.6747 68.2616 40.5668C68.0465 40.4589 67.6163 40.3511 67.4012 40.3511C67.1861 40.3511 66.7559 40.2432 66.4332 40.1353C65.4652 39.8116 62.884 39.5958 61.1632 39.7037C59.9801 39.8116 57.614 40.1353 56.5385 40.3511C56.3234 40.4589 55.8932 40.4589 55.6781 40.5668C54.2799 40.8905 52.0213 41.6457 50.9458 42.1852C50.408 42.5089 49.6552 42.9404 49.225 43.372C48.7948 43.8035 48.3646 44.1272 48.3646 44.0193C48.3646 44.0193 48.1495 43.6957 47.9343 43.372C47.7192 43.0483 47.1815 42.5089 46.8588 42.1852L46.2135 41.6457L46.106 40.7826C46.3211 37.9775 46.106 33.1224 45.3531 26.3253C45.2456 25.4622 45.138 23.8438 45.0305 22.8728C44.9229 21.9018 44.8154 20.8229 44.7078 20.6071C44.6003 20.2834 44.4927 19.4203 44.3852 18.5572C44.2776 17.694 44.17 16.6151 44.0625 15.9678C43.9549 15.3205 43.8474 14.1337 43.7398 13.1626C43.6323 12.2995 43.5247 11.3285 43.5247 11.2206C43.5247 11.0048 43.4172 10.5733 43.3096 10.1417C43.2021 9.71014 43.0945 9.17069 43.0945 9.0628C42.987 8.73913 42.987 8.73913 43.6323 8.30757C44.8154 7.55234 46.106 6.04187 46.3211 5.28663C46.3211 5.07085 46.4286 4.96296 46.5362 4.96296C46.5362 4.96296 46.9664 5.07085 47.289 5.17874C47.9343 5.28663 50.5156 5.50242 53.2044 5.61031C53.8497 5.61031 54.9252 5.7182 55.5705 5.82609C56.2158 5.93398 57.2913 5.93398 57.9366 6.04187C58.5819 6.04187 59.3348 6.14976 59.5499 6.14976C59.765 6.14976 60.1952 6.25765 60.4103 6.25765C60.6254 6.25765 61.3783 6.36554 62.0236 6.47343C62.5613 6.47343 63.6369 6.58132 64.3897 6.58132C65.1426 6.68921 65.7879 6.68921 66.003 6.7971C66.2181 6.7971 66.7559 6.90499 67.2936 6.90499C67.8314 6.90499 69.122 7.01288 70.1975 7.12077C71.273 7.22866 72.4561 7.22866 72.9938 7.33655C75.7902 7.44445 78.5865 7.76812 79.4469 8.09179C81.4904 8.63124 81.3829 8.52335 81.7055 9.27858C82.3508 10.4654 83.2112 11.4364 84.2867 12.0837C85.0396 12.5153 86.5453 12.9469 87.0831 12.9469C87.2982 12.9469 87.4057 13.0548 87.4057 13.3784C87.4057 13.5942 87.5133 14.1337 87.6208 14.5652C87.7284 14.9968 87.8359 15.4283 87.8359 15.6441C87.8359 15.752 87.8359 16.1836 87.9435 16.3994C88.051 16.723 88.1586 17.3704 88.1586 17.9098C88.2662 18.4493 88.3737 19.2045 88.3737 19.5282C88.4813 19.8519 88.4813 20.3913 88.5888 20.8229C88.5888 21.1465 88.6964 22.0097 88.8039 22.657C89.3417 26.4332 89.5568 34.525 89.1266 38.5169C89.019 39.7037 88.9115 40.9984 88.9115 41.43C88.9115 41.8615 88.8039 42.6168 88.6964 43.0483C88.5888 43.4799 88.5888 44.0193 88.4813 44.4509C88.3737 46.0692 87.7284 49.0902 87.0831 51.0322C86.5453 52.8663 84.7169 56.3188 83.6414 57.8293C82.0282 60.095 81.3829 60.8502 80.4149 61.7134C78.9092 63.1159 77.7261 63.8712 76.2204 64.3027C75.7902 64.4106 75.36 64.6264 75.2524 64.7343C74.9298 64.9501 73.8543 64.8422 72.8863 64.5185C72.4561 64.4106 72.0259 64.3027 71.9183 64.3027C71.5957 64.087 71.5957 63.9791 72.241 63.4396ZM71.1655 25.8937C70.9504 24.8148 70.8428 24.0596 70.7353 23.8438C70.6277 23.628 70.4126 23.3043 70.3051 22.9807C70.1975 22.657 69.6597 22.0097 69.2295 21.5781C68.4767 20.8229 68.3691 20.715 67.4012 20.3913C66.4332 20.0676 64.9275 19.9597 64.7124 20.1755C64.7124 20.1755 64.2822 20.2834 63.7444 20.3913C62.7764 20.4992 62.1311 20.715 60.9481 21.5781C59.5499 22.5491 58.797 24.599 59.2273 26.7568C59.5499 28.4831 60.733 29.7778 62.7765 30.7488C63.6369 31.1804 63.7444 31.1804 65.2501 31.1804C66.6483 31.1804 66.8634 31.1804 67.6163 30.8567C69.5522 30.1014 70.6277 29.0225 71.0579 27.1884C71.1655 26.5411 71.1655 26.1095 71.1655 25.8937Z" fill="#B2C786"/>
<path d="M55.1403 48.6586C55.7856 48.9823 56.8611 49.9533 57.0762 50.3849C57.1838 50.6006 57.3989 51.0322 57.614 51.4638C57.8291 51.7874 58.0442 52.3269 58.1517 52.6506C58.6895 53.9453 59.0121 55.2399 59.1197 55.7794C59.1197 55.9952 59.2272 56.4267 59.3348 56.5346C59.6575 57.182 59.5499 57.2899 59.1197 56.9662C58.3668 56.4267 56.4309 54.3768 55.2478 52.9742C54.6025 52.219 53.8497 51.248 53.4195 50.8164C53.0968 50.3849 52.6666 49.9533 52.5591 49.7375C52.344 49.306 52.4515 49.0902 53.0968 48.7665C53.8497 48.3349 54.495 48.3349 55.1403 48.6586Z" fill="#83965A"/>
<path d="M69.3371 63.2238C69.2295 63.1159 68.3691 62.6844 67.5087 62.2528C65.8954 61.3897 65.7879 61.2818 66.7559 61.1739C67.4012 61.066 68.5842 60.5266 69.3371 59.9871C70.4126 59.3398 70.8428 58.5845 71.5957 56.8583C71.7032 56.6425 71.8108 56.5346 71.9183 56.6425C72.0259 56.6425 72.4561 56.7504 72.8863 56.7504C73.7467 56.8583 74.1769 56.6425 74.1769 56.1031C74.1769 55.5636 73.8543 55.3478 72.4561 55.132L71.9183 55.0242L71.8108 54.161C71.5957 52.8663 71.3806 52.1111 70.9504 51.4638C70.5202 50.8164 69.2295 49.5217 68.7993 49.306C68.5842 49.1981 68.2616 48.9823 68.0465 48.8744C67.4012 48.3349 66.7559 48.5507 66.7559 49.1981C66.7559 49.6296 66.7559 49.7375 67.5087 50.277C69.4446 51.7874 69.8748 52.3269 70.1975 53.7295C70.4126 54.8084 70.4126 55.0242 70.09 56.3188C69.8748 57.3977 68.9069 58.5845 67.8314 59.0161C67.4012 59.2319 66.971 59.4477 66.7559 59.5556C66.2181 59.8792 64.3897 59.7713 63.4218 59.4477C62.9916 59.3398 62.5613 59.124 62.4538 59.124C62.2387 59.124 62.0236 58.9082 61.8085 58.3688C61.2707 57.2899 60.8405 55.9952 60.1952 54.0531C59.765 52.5427 59.1197 51.0322 58.2593 49.4138C57.8291 48.6586 56.2158 47.3639 55.2478 46.9324C54.8176 46.8245 54.495 46.7166 53.9572 46.8245C52.9893 46.9324 52.4515 47.1482 51.8062 47.6876C51.5911 47.9034 51.376 48.1192 51.376 48.1192C51.2684 48.1192 50.0854 46.5008 49.225 45.314L48.9023 44.8824L49.3325 44.4509C50.0854 43.8035 50.7307 43.372 51.376 43.0483C51.6987 42.9404 52.1288 42.7246 52.1288 42.6167C52.2364 42.5089 52.5591 42.401 52.8817 42.2931C53.2044 42.1852 54.0648 41.9694 54.7101 41.8615C56.0007 41.5378 56.4309 41.43 59.3348 40.9984C60.3028 40.7826 62.5613 40.7826 63.5293 40.8905C67.7238 41.43 70.5202 42.7246 73.1014 45.2061C74.1769 46.285 74.392 46.6087 74.9298 47.5797C75.6826 49.1981 75.7902 49.6296 75.7902 51.7874C75.7902 53.9453 75.5751 54.8084 74.8222 56.7504C73.7467 59.2319 72.6712 61.066 71.4881 62.037C70.09 63.4396 69.7673 63.5475 69.3371 63.2238Z" fill="#83965A"/>
<path d="M25.241 59.8792C25.1334 59.8792 23.7353 58.6924 23.09 58.153C22.8748 57.9372 22.6597 57.7214 22.5522 57.7214C22.0144 57.3977 18.8954 54.4847 16.4218 52.0032C12.8726 48.4428 12.5499 48.0113 12.0122 47.256C11.6895 46.9324 11.1517 46.1771 10.614 45.7456C9.86112 44.8825 8.67806 43.372 8.3554 42.7246C8.24785 42.6167 8.24785 42.5089 8.46295 42.5089C9.96867 42.6167 14.7009 42.9404 15.9916 43.0483C16.852 43.1562 18.1426 43.1562 18.6803 43.2641C19.2181 43.2641 20.0785 43.372 20.7238 43.4799C21.2616 43.5878 22.2295 43.5878 22.9824 43.6957C23.6277 43.6957 24.3806 43.8035 24.5957 43.9114C24.8108 44.0193 25.5636 44.1272 26.3165 44.1272C27.0694 44.2351 29.1128 44.343 30.8337 44.5588C32.5545 44.7746 35.0282 44.9903 36.4263 44.9903C37.717 45.0982 39.7604 45.314 40.9435 45.4219C42.1266 45.5298 43.2021 45.6377 43.2021 45.6377C43.3096 45.6377 43.6323 46.0692 43.9549 46.7166C44.4927 47.7955 45.3531 49.0902 46.4286 50.6006C46.7513 51.0322 47.289 51.6796 47.5041 52.0032C48.7948 53.7295 53.0968 58.0451 56.0007 60.4187C56.3234 60.6345 56.7536 61.066 57.0762 61.2818C57.3989 61.6055 57.7215 61.8213 57.8291 61.8213C57.9366 61.8213 58.1517 61.9291 58.2593 62.1449C58.6895 62.4686 60.8405 63.7633 60.9481 63.7633C60.9481 63.7633 61.2707 63.9791 61.5934 64.1948C61.916 64.4106 62.5613 64.7343 63.0991 64.9501C63.6369 65.1659 63.9595 65.3816 63.9595 65.4895C63.9595 65.7053 48.1494 65.5974 47.8268 65.3816C47.8268 65.3816 46.6437 65.2738 45.2456 65.2738C43.8474 65.2738 42.3417 65.1659 41.9115 65.1659C41.4813 65.1659 40.6208 65.058 39.9755 65.058C39.3302 65.058 38.3623 64.9501 37.8245 64.9501C36.5339 64.8422 33.4149 64.4106 32.4469 64.1948C32.0167 64.087 31.5865 63.9791 31.3714 63.9791C31.2639 63.9791 30.8337 63.7633 30.4035 63.5475C30.0808 63.3317 29.3279 62.7923 28.8977 62.4686C27.2845 61.3897 26.8543 61.066 26.1014 60.5266C25.6712 60.095 25.241 59.8792 25.241 59.8792ZM30.1884 56.2109C30.6186 56.9662 31.479 57.7214 32.4469 58.0451C33.8451 58.5845 34.9206 58.3688 35.8886 57.5056C36.6414 56.8583 36.9641 56.1031 36.8565 55.2399C36.749 54.3768 36.6414 53.8374 36.3188 53.4058C35.4584 52.4348 35.4584 52.4348 33.8451 51.6796C33.5224 51.5717 32.0167 51.5717 31.479 51.7874C30.9412 52.0032 30.0808 52.9742 29.8657 53.5137C29.6506 54.3768 29.7581 55.5636 30.1884 56.2109Z" fill="#B2C786"/>
<path d="M32.662 53.2979C33.63 53.19 34.0602 53.4058 35.1357 54.2689C35.5659 54.5926 35.5659 54.7005 35.781 55.5636C35.9961 56.211 35.6735 56.6425 35.0282 56.9662C34.0602 57.3977 32.662 57.182 31.6941 56.2109C31.2639 55.8873 31.2639 55.7794 31.2639 54.9163C31.2639 54.161 31.2639 54.0531 31.5865 53.7295C31.9092 53.4058 32.0167 53.2979 32.662 53.2979Z" fill="#83965A"/>
<path d="M68.154 28.8068C66.7559 29.6699 64.3897 29.7778 62.884 29.0225C62.1311 28.591 61.2707 27.8358 60.9481 27.4042C60.733 27.0805 60.5179 26.0016 60.5179 25.4622C60.5179 24.2754 61.1632 22.9807 61.916 22.5491C62.1311 22.4412 62.5613 22.1176 62.884 22.0097C63.3142 21.5781 63.5293 21.5781 64.3897 21.5781C64.9275 21.5781 65.4652 21.5781 65.4652 21.4702C65.5728 21.3623 65.5728 21.3623 66.3256 21.5781C66.6483 21.686 67.0785 21.7939 67.1861 21.7939C67.4012 21.7939 68.6918 22.9807 68.9069 23.4122C69.3371 24.3833 69.4446 24.7069 69.5522 25.3543C69.6597 26.2174 69.6597 26.7568 69.2295 27.4042C68.9069 28.2673 68.6918 28.4831 68.154 28.8068Z" fill="#83965A"/>
<path d="M43.6323 42.2931C43.8474 42.2931 44.17 42.401 45.3531 42.9404C45.8909 43.1562 45.9984 43.372 46.4286 43.9114C46.8588 44.6667 47.8268 45.9614 49.1174 47.4718C49.5476 48.0113 49.8703 48.5507 49.8703 48.6586C49.8703 48.7665 50.1929 49.0902 50.5156 49.5217C50.9458 49.9533 51.4835 50.6006 51.8062 51.0322C52.4515 51.7874 52.5591 51.8953 53.527 53.0821C55.4629 55.3478 56.3234 56.3188 56.646 56.6425C56.7536 56.7504 57.1838 57.0741 57.5064 57.3978C58.2593 58.0451 58.9046 58.6924 59.4424 59.0161C59.6575 59.124 59.9801 59.4477 60.3028 59.5556C60.5179 59.7713 61.0556 60.095 61.3783 60.3108C61.7009 60.5266 62.3462 60.9581 62.884 61.2818C63.3142 61.6055 64.0671 62.037 64.4973 62.2528C64.9275 62.4686 65.2501 62.6844 65.3577 62.7923C65.5728 63.0081 69.2295 64.8422 69.5522 64.8422C69.7673 64.8422 69.8748 64.9501 69.8748 65.058C69.8748 65.1659 69.3371 65.1659 68.3691 65.1659H66.8634L64.3897 63.9791C62.9916 63.3317 61.7009 62.5765 61.3783 62.4686C61.0556 62.2528 60.5179 61.9291 59.9801 61.6055C58.4744 60.8502 55.7856 58.8003 55.1403 58.153C55.0327 58.0451 54.7101 57.8293 54.3874 57.5056C53.527 56.8583 50.1929 53.5137 49.1174 52.3269C48.257 51.3559 47.3966 50.277 45.8909 48.2271C45.4607 47.6876 44.8154 46.7166 44.4927 46.0692C44.0625 45.4219 43.7398 44.7746 43.6323 44.6667C43.4172 44.4509 43.2021 44.4509 41.9115 44.2351C41.2662 44.1272 35.3508 43.5878 33.9527 43.4799C33.0922 43.372 31.3714 43.2641 29.9732 43.1562C28.6826 43.0483 26.9618 42.8325 26.3165 42.8325C24.9183 42.7246 22.8749 42.5089 22.3371 42.401C22.122 42.401 21.4767 42.2931 20.7238 42.2931C20.0785 42.2931 19.4332 42.1852 19.4332 42.1852C19.4332 42.1852 18.7879 42.0773 18.035 42.0773C17.2822 42.0773 15.9916 41.9694 15.1311 41.8615C10.614 41.43 7.81765 41.3221 7.17234 41.5378C6.74213 41.7536 6.63458 42.1852 6.84968 42.6167C7.17234 43.1562 9.21582 45.9614 9.86113 46.8245C10.1838 47.256 10.614 47.6876 10.7215 47.9034C11.797 49.5217 19.5408 57.2899 21.3691 58.6924C21.5842 58.9082 22.122 59.2319 22.4446 59.6634C22.8749 59.9871 23.6277 60.6345 24.1655 61.066C24.7032 61.4976 25.241 61.9292 25.3485 62.037C25.4561 62.1449 25.7787 62.3607 26.2089 62.6844C26.5316 62.9002 26.8543 63.1159 26.8543 63.1159C26.8543 63.1159 26.5316 63.1159 26.2089 63.0081C25.8863 62.9002 25.4561 62.7923 25.241 62.7923C22.9824 62.2528 21.154 61.1739 18.8954 59.2319C18.1426 58.5845 16.6369 57.182 16.0991 56.6425C15.9916 56.5346 15.4538 55.8873 14.916 55.4557C14.3783 54.9163 13.9481 54.3768 13.8405 54.161C13.733 53.9453 13.1952 53.4058 12.5499 52.7585C12.0122 52.1111 11.3668 51.4638 11.1517 51.248C10.9366 51.0322 10.614 50.6006 10.3989 50.277C9.86113 49.7375 9.00071 48.5507 7.81765 47.0403C7.38744 46.5008 6.84968 45.7456 6.52702 45.4219C5.98927 44.7746 4.8062 43.0483 4.26845 42.2931C4.05334 42.0773 3.83824 41.6457 3.73069 41.5378C3.62314 41.3221 3.19293 40.7826 2.76272 40.1353C2.00986 38.8406 1.90231 38.9485 3.73069 39.2721C4.26845 39.38 5.23641 39.4879 5.77417 39.4879C6.31192 39.4879 7.38744 39.5958 8.1403 39.7037C8.89316 39.8116 10.0762 39.8116 10.614 39.8116C11.1517 39.8116 11.9046 39.9195 12.2273 39.9195C12.5499 40.0274 13.4103 40.0274 14.2707 40.1353C15.1311 40.1353 16.3142 40.2432 16.9595 40.3511C18.8954 40.5668 21.6918 40.6747 24.1655 40.7826C25.4561 40.7826 26.9618 40.8905 27.4996 40.9984C28.0373 41.1063 29.1128 41.1063 29.8657 41.2142C30.6186 41.2142 31.6941 41.3221 32.2318 41.43C32.9847 40.8905 33.8451 40.9984 34.2753 40.9984C34.7055 40.9984 35.781 41.1063 36.5339 41.2142C37.2867 41.3221 38.3623 41.43 38.9 41.43C39.4378 41.43 40.0831 41.5378 40.4057 41.6457C40.6208 41.6457 41.1586 41.7536 41.5888 41.8615C42.019 41.9694 42.5568 42.0773 42.8794 42.1852C43.0945 42.2931 43.5247 42.2931 43.6323 42.2931Z" fill="#83965A"/>
<path d="M92.7833 42.6167C92.5682 44.9903 92.3531 46.5008 91.7078 48.8744C91.6003 49.1981 91.4927 49.6296 91.4927 49.9533C91.3851 50.277 91.2776 50.6006 91.2776 50.7085C91.17 50.9243 91.0625 51.248 91.0625 51.4638C91.0625 51.6795 90.8474 52.1111 90.7398 52.3269C90.6323 52.5427 90.5247 52.8663 90.5247 52.9742C90.5247 53.0821 90.3096 53.6216 90.2021 54.0531C88.9115 56.8583 88.3737 58.0451 88.051 58.3688C87.8359 58.5845 87.6208 58.9082 87.5133 59.124C86.868 60.3108 84.8245 62.037 83.2112 62.7923C82.9961 62.9002 82.3508 63.2238 81.9206 63.3317C81.0602 63.7633 79.8771 64.087 79.662 64.087C79.5545 64.087 79.7696 63.8712 79.9847 63.7633C80.8451 63.2238 82.781 61.3897 83.3188 60.6345C83.4263 60.4187 83.8565 59.7713 84.2867 59.3398C85.9 57.0741 87.9435 53.2979 88.5888 51.248C88.6964 50.8164 88.9115 50.1691 89.019 49.9533C89.1266 49.7375 89.2341 49.1981 89.2341 48.8744C89.2341 48.5507 89.3417 48.1192 89.4492 47.9034C89.5568 47.6876 89.6643 47.3639 89.6643 47.1481C89.6643 46.9324 89.7719 46.3929 89.8794 45.9613C89.987 45.5298 90.0945 44.8824 90.0945 44.4509C90.0945 44.1272 90.2021 43.5878 90.2021 43.4799C90.3096 43.1562 90.6323 39.7037 90.6323 39.1642C90.6323 39.0564 90.6323 38.3011 90.7398 37.438C90.8474 35.3881 90.8474 30.2093 90.7398 28.8068C90.7398 28.1594 90.6323 27.0805 90.6323 26.4332C90.5247 25.2464 90.5247 24.599 90.2021 21.9018C90.0945 21.3623 90.0945 20.4992 89.987 20.1755C89.987 19.744 89.8794 19.0966 89.7719 18.5572C89.6643 18.1256 89.5568 17.0467 89.4492 16.2915C89.2341 15.4283 89.1266 14.6731 89.1266 14.4573C89.019 14.2415 88.9115 13.81 88.8039 13.3784C88.6964 12.9469 88.5888 12.6232 88.4813 12.6232C88.3737 12.6232 88.3737 12.4074 88.4813 12.2995C88.5888 11.9758 88.1586 11.6522 86.868 11.2206C85.6849 10.789 85.0396 10.5733 84.1792 9.71014C83.6414 9.38647 82.6735 8.19968 82.6735 7.9839C82.6735 7.76812 82.3508 7.55233 81.7055 7.44444C81.3829 7.44444 80.5224 7.22866 79.7696 7.01288C79.0167 6.7971 77.4034 6.58132 76.3279 6.47343C72.5636 6.04187 69.5522 5.7182 68.6918 5.7182C68.2616 5.7182 67.0785 5.61031 66.1105 5.50242C65.1426 5.39453 63.9595 5.28663 63.4218 5.28663C62.9916 5.28663 62.3462 5.17874 62.0236 5.17874C61.8085 5.17874 60.6254 5.07085 59.6575 4.96296C58.5819 4.85507 56.7536 4.63929 55.5705 4.5314C54.495 4.31562 52.5591 4.20773 51.4835 4.09984C50.408 3.99195 48.6872 3.88406 47.7192 3.88406C46.5362 3.77617 45.7833 3.77617 45.6758 3.88406C45.5682 3.99195 45.2456 4.31562 45.0305 4.74718C44.6003 5.61031 43.5247 6.7971 42.4492 7.55234C41.4813 8.19968 41.5888 7.87601 42.019 10.2496C42.1266 11.0048 42.3417 12.1916 42.4492 13.0548C42.6643 14.8889 42.8794 16.8309 43.0945 18.3414C43.5247 21.2544 44.2776 27.7279 44.3851 29.2383C44.4927 30.4251 44.8154 34.525 44.8154 35.0644C44.8154 35.6039 44.9229 41.1063 44.8154 41.2142C44.7078 41.3221 43.5247 40.9984 43.2021 40.7826C42.987 40.6747 42.8794 40.5668 42.8794 40.351C42.987 39.7037 43.0945 39.0564 43.0945 37.9775C43.2021 36.467 43.2021 32.5829 43.0945 31.7198C43.0945 31.2882 42.987 30.4251 42.8794 29.7778C42.6643 27.62 42.5568 26.1095 42.3417 24.8148C42.2341 24.0596 42.1266 22.9807 42.019 22.4412C41.9115 21.4702 41.8039 20.8229 41.3737 18.4493C41.2662 18.0177 41.2662 17.5862 41.1586 17.3704C41.1586 17.1546 41.0511 16.8309 40.9435 16.6151C40.8359 16.3994 40.7284 15.752 40.6208 15.2126C40.5133 14.6731 40.2982 13.5942 40.1906 12.839C39.9755 12.0837 39.7604 10.5733 39.4378 9.60225C39.2227 8.52335 39.0076 7.44444 38.9 7.22866C38.7925 6.90499 38.6849 6.58132 38.6849 6.36554C38.6849 6.14976 38.5774 5.82609 38.4698 5.61031C38.3623 5.39452 38.2547 4.85507 38.1472 4.42351C38.0396 3.99195 37.8245 3.34461 37.717 2.91304C37.6094 2.48148 37.3943 2.04992 37.3943 1.94203C37.3943 1.83414 38.1472 1.83414 39.5453 1.83414C40.7284 1.83414 41.6964 1.83414 41.6964 1.83414C41.6964 1.83414 42.019 1.83414 42.4492 1.83414C42.8794 1.83414 43.7398 1.94203 44.4927 1.94203C45.8909 2.04992 49.8703 2.37359 52.7742 2.48148C55.1403 2.58937 60.8405 3.02093 61.5934 3.12882C61.916 3.12882 62.5613 3.23672 63.0991 3.23672C64.3897 3.34461 66.7559 3.4525 67.5087 3.56039C67.8314 3.56039 69.2295 3.66828 70.6277 3.77617C72.0259 3.88406 73.5316 3.88406 74.1769 3.99195C74.7147 3.99195 76.1128 4.09984 77.0808 4.20773C78.0488 4.31562 79.3394 4.31562 79.7696 4.42351C80.1998 4.42351 80.7375 4.5314 80.9527 4.5314C81.8131 4.5314 85.5774 4.74718 86.6529 4.85507L88.051 4.74718L88.2662 5.28663C88.5888 6.14976 89.5568 9.49436 89.987 11.6522C90.0945 12.1916 90.2021 12.7311 90.3096 12.839C90.3096 12.9469 90.4172 13.2705 90.5247 13.5942C90.7398 14.6731 90.8474 15.5362 90.9549 15.9678C91.17 16.6151 92.0305 22.0097 92.138 23.3043C92.138 23.5201 92.2456 24.0596 92.3531 24.599C92.3531 25.0306 92.3531 25.6779 92.4607 26.1095C92.4607 26.5411 92.5682 27.62 92.6758 28.591C92.7833 29.562 92.7833 30.4251 92.8909 30.4251C93.106 30.6409 93.2135 38.6248 93.106 40.5668C92.8909 41.1063 92.7833 42.0773 92.7833 42.6167Z" fill="#83965A"/>
<path fill-rule="evenodd" clip-rule="evenodd" d="M41.5888 0.107891C43.2021 0.107891 45.7833 0.323672 47.3966 0.431562C52.5591 0.863124 62.2387 1.61836 66.2181 1.83414C66.6483 1.83414 67.6163 1.94203 68.154 2.04992C68.6918 2.04992 69.3371 2.15781 69.4446 2.04992C69.6597 2.04992 70.09 2.04992 70.5202 2.04992C70.9504 2.04992 72.1334 2.15781 73.2089 2.15781C74.2845 2.15781 75.1449 2.2657 75.2524 2.2657C75.2524 2.2657 75.8977 2.37359 76.6506 2.37359C77.4034 2.37359 78.8016 2.48148 79.7696 2.58937C80.7375 2.69726 82.4584 2.80515 83.5339 2.80515C85.5774 3.02093 87.5133 3.34461 88.051 3.56039C88.4813 3.66828 89.2341 4.42351 89.5568 5.07085C89.7719 5.61031 90.8474 8.63124 90.8474 8.95491C90.8474 9.0628 90.9549 9.49436 91.0625 9.81804C91.17 10.2496 91.2776 10.6812 91.2776 10.8969C91.2776 11.1127 91.3851 11.6522 91.6003 12.1916C92.0305 13.3784 92.138 14.2415 92.138 14.5652C92.138 14.781 92.138 14.9968 92.2456 15.2126C92.6758 16.2915 93.7513 24.0596 93.9664 26.4332C93.9664 27.1884 94.0739 28.1594 94.1815 29.3462C94.1815 29.7778 94.289 30.2093 94.289 30.4251C94.289 30.6409 94.289 31.1804 94.3966 31.8277C94.5041 32.9066 94.5041 39.38 94.3966 40.7826C94.3966 41.2142 94.289 42.1852 94.289 42.7246C94.289 43.2641 94.1815 44.1272 94.0739 44.4509C93.9664 44.7746 93.9664 45.0982 93.9664 45.0982C93.9664 45.0982 93.9664 45.4219 93.8588 45.7456C93.7513 46.0692 93.6437 46.5008 93.6437 46.7166C93.6437 46.9324 93.5362 47.3639 93.4286 47.5797C93.3211 47.7955 93.2135 48.3349 93.2135 48.7665C93.2135 49.1981 93.106 49.6296 92.9984 49.7375C92.8909 49.9533 92.6758 50.6006 92.5682 51.248C92.3531 51.8953 92.2456 52.5427 92.138 52.6506C92.0305 52.7585 91.9229 53.19 91.8154 53.6216C91.4927 54.7005 91.0625 55.6715 90.4172 56.8583C90.0945 57.3977 89.8794 57.9372 89.8794 58.0451C89.8794 58.153 89.7719 58.3688 89.5568 58.5845C89.4492 58.8003 89.019 59.4477 88.6964 59.8792C88.051 60.9581 86.2227 62.7923 85.3623 63.2238C85.0396 63.4396 84.6094 63.6554 84.3943 63.8712C84.1792 63.9791 83.8565 64.1948 83.5339 64.3027C83.3188 64.4106 82.781 64.6264 82.4584 64.7343C79.9847 66.1369 75.1449 66.6763 62.884 66.7842C54.495 66.8921 49.8703 66.8921 47.8268 66.6763C47.1815 66.5684 45.5682 66.5684 44.3852 66.4605C43.2021 66.4605 41.8039 66.3527 41.1586 66.3527C40.6209 66.3527 39.5453 66.2448 38.9 66.2448C36.9641 66.1369 35.9961 66.1369 35.1357 65.9211C32.7696 65.5974 32.0167 65.4895 30.8337 65.2738C30.0808 65.1659 29.2204 64.9501 28.8977 64.8422C28.5751 64.7343 28.0373 64.6264 27.6071 64.5185C25.9938 64.3027 25.7787 64.1948 24.8108 63.8712C24.273 63.6554 23.6277 63.5475 23.4126 63.4396C22.2295 63.1159 19.2181 61.2818 18.3577 60.4187C18.1426 60.2029 17.8199 59.9871 17.7124 59.8792C17.3897 59.6634 12.5499 54.9163 12.5499 54.7005C12.5499 54.5926 12.0122 54.0531 11.4744 53.4058C10.8291 52.7585 10.2913 52.1111 10.1838 52.0032C10.0762 51.8953 9.75358 51.4638 9.32337 51.0322C9.00072 50.6006 8.46295 50.0612 8.1403 49.6296C7.81764 49.306 7.49499 48.8744 7.38744 48.7665C7.27989 48.6586 7.06478 48.4428 7.06478 48.2271C6.95723 48.0113 6.63458 47.6876 6.31193 47.256C5.98927 46.9324 5.55906 46.3929 5.34396 46.0692C5.12886 45.7456 4.69865 45.2061 4.376 44.7746C1.36455 40.6747 1.36456 40.6747 0.504144 38.9485C-0.0336132 37.8696 -0.14116 37.438 0.181495 37.2222C0.396598 37.0064 1.25701 37.0064 2.33252 37.1143C2.87028 37.2222 4.1609 37.2222 5.02131 37.3301C5.88172 37.438 7.38744 37.5459 8.35541 37.5459C9.32337 37.6538 10.3989 37.6538 10.8291 37.7617C13.3028 37.8696 16.7444 38.1932 18.2501 38.3011C19.4332 38.409 21.154 38.5169 24.273 38.6248C25.4561 38.6248 26.8543 38.7327 27.4996 38.8406C28.1449 38.9485 29.4355 39.0564 30.4035 39.0564C32.4469 39.1643 32.4469 39.1643 35.4584 39.4879C39.6529 39.9195 40.0831 40.0274 40.5133 40.0274C40.9435 40.1353 40.9435 40.0274 41.0511 39.7037C41.1586 39.38 41.2662 35.1723 41.2662 33.5539C41.2662 33.0145 41.2662 32.475 40.9435 29.7778C40.836 29.2383 40.8359 28.0515 40.7284 27.2963C40.6208 26.5411 40.5133 25.57 40.5133 25.2464C40.4057 24.9227 40.4057 24.2754 40.2982 23.8438C40.0831 21.7939 39.1151 15.8599 38.4698 13.0548C38.2547 12.2995 38.0396 11.2206 37.9321 10.5733C37.8245 9.92593 37.6094 9.17069 37.5019 8.73913C37.1792 7.33655 37.0716 7.12077 36.9641 6.58132C36.749 5.61031 36.1037 3.02093 35.8886 2.69726C35.781 2.58937 35.5659 2.04992 35.4584 1.51047C35.1357 0.431562 35.1357 0.215781 35.6735 0C36.6414 0 37.1792 0 41.5888 0.107891ZM37.717 1.61836C37.717 1.72625 37.8245 2.15781 38.0396 2.58937C38.2547 3.02093 38.4698 3.77617 38.4698 4.09984C38.5774 4.5314 38.7925 5.07085 38.9 5.39453C39.0076 5.7182 39.1151 6.04187 39.1151 6.14976C39.1151 6.36554 39.2227 6.68921 39.3302 7.01288C39.4378 7.33655 39.6529 8.41546 39.868 9.38647C40.0831 10.4654 40.4057 11.868 40.6208 12.6232C40.7284 13.3784 40.9435 14.4573 41.0511 14.9968C41.1586 15.5362 41.2662 16.1836 41.3737 16.3994C41.4813 16.6151 41.4813 16.9388 41.5888 17.1546C41.5888 17.3704 41.6964 17.9098 41.8039 18.2335C42.2341 20.6071 42.3417 21.2544 42.4492 22.2254C42.5568 22.7649 42.6643 23.8438 42.7719 24.599C42.987 25.8937 43.0945 27.4042 43.3096 29.562C43.4172 30.2093 43.4172 31.0725 43.5247 31.504C43.6323 32.3672 43.6323 36.3591 43.5247 37.7617C43.4172 38.7327 43.4172 39.38 43.3096 40.1353C43.3096 40.351 43.3096 40.4589 43.6323 40.5668C44.0625 40.7826 45.2456 41.1063 45.2456 40.9984C45.3531 40.8905 45.2456 35.3881 45.2456 34.8486C45.138 34.3092 44.8154 30.2093 44.8154 29.0225C44.7078 27.4042 43.9549 20.9308 43.5247 18.1256C43.3096 16.6151 43.0945 14.781 42.8794 12.839C42.7719 11.9758 42.5568 10.789 42.4492 10.0338C42.019 7.66023 41.9115 7.9839 42.8794 7.33655C43.9549 6.58132 45.0305 5.39452 45.4607 4.5314C45.6758 4.09984 45.8909 3.66828 45.9984 3.66828C46.106 3.56039 46.8588 3.56039 48.0419 3.66828C48.6872 3.99195 50.408 3.99195 51.4835 4.09984C52.5591 4.20773 54.495 4.31562 55.5705 4.42351C56.7536 4.5314 58.5819 4.74718 59.6575 4.85507C60.733 4.96296 61.8085 5.07085 62.0236 5.07085C62.2387 5.07085 62.884 5.17874 63.4218 5.17874C63.852 5.17874 65.1426 5.28663 66.1105 5.39453C67.0785 5.50242 68.2616 5.61031 68.6918 5.61031C69.5522 5.7182 72.5636 5.93398 76.3279 6.36554C77.511 6.47343 79.0167 6.68921 79.7696 6.90499C80.5224 7.12077 81.3829 7.22866 81.7055 7.33655C82.3508 7.55234 82.6735 7.66023 82.6735 7.9839C82.6735 8.19968 83.5339 9.38647 84.0716 9.81804C84.9321 10.5733 85.5774 10.8969 86.7604 11.3285C88.051 11.7601 88.4813 12.0837 88.3737 12.4074C88.3737 12.5153 88.3737 12.6232 88.3737 12.7311C88.4813 12.7311 88.5888 13.1626 88.6964 13.4863C88.8039 13.81 88.9115 14.3494 89.019 14.5652C89.1266 14.781 89.2341 15.5362 89.3417 16.2915C89.4492 17.0467 89.5568 18.1256 89.6643 18.5572C89.7719 18.9887 89.8794 19.744 89.8794 20.1755C89.8794 20.6071 89.987 21.3623 90.0945 21.9018C90.4172 24.4911 90.4172 25.1385 90.5247 26.4332C90.5247 27.1884 90.6323 28.2673 90.6323 28.8068C90.7398 30.2093 90.7398 35.3881 90.6323 37.438C90.5247 38.3011 90.5247 39.1642 90.5247 39.1642C90.5247 39.7037 90.2021 43.1562 90.0945 43.4799C90.0945 43.6957 89.987 44.1272 89.987 44.4509C89.987 44.7746 89.8794 45.4219 89.7719 45.9613C89.6643 46.3929 89.5568 46.9324 89.5568 47.1481C89.5568 47.3639 89.4492 47.6876 89.3417 47.9034C89.2341 48.1192 89.1266 48.5507 89.1266 48.8744C89.1266 49.1981 89.019 49.6296 88.9115 49.9533C88.8039 50.1691 88.5888 50.8164 88.4813 51.248C87.8359 53.2979 85.7925 57.182 84.1792 59.3398C83.8565 59.7713 83.4263 60.4187 83.2112 60.6345C82.6735 61.3897 80.7375 63.2238 79.8771 63.7633C79.662 63.8712 79.4469 64.087 79.5545 64.087C79.7696 64.1949 80.9527 63.7633 81.8131 63.3317C82.2433 63.1159 82.781 62.9002 83.1037 62.7923C84.7169 62.037 86.7604 60.2029 87.4057 59.124C87.5133 58.9082 87.7284 58.5845 87.9435 58.3688C88.2662 58.0451 88.8039 56.8583 90.0945 54.0531C90.3096 53.6216 90.4172 53.0821 90.4172 52.9742C90.4172 52.8663 90.5247 52.5427 90.6323 52.3269C90.7398 52.1111 90.8474 51.6795 90.9549 51.4638C90.9549 51.248 91.0625 50.9243 91.17 50.7085C91.2776 50.4928 91.3851 50.1691 91.3851 49.9533C91.3851 49.7375 91.4927 49.1981 91.6003 48.8744C92.2456 46.5008 92.4607 44.9903 92.6758 42.6167C92.6758 42.0773 92.7833 41.1063 92.7833 40.4589C92.8909 38.6248 92.7833 30.6409 92.5682 30.3172C92.5682 30.2093 92.4607 29.4541 92.3531 28.4831C92.2456 27.5121 92.2456 26.4332 92.138 26.0016C92.138 25.57 92.0305 24.9227 91.9229 24.4911C91.8154 24.0596 91.8154 23.5201 91.7078 23.1965C91.6003 21.9018 90.7398 16.5072 90.5247 15.8599C90.4172 15.4283 90.2021 14.5652 90.0945 13.4863C89.987 13.1626 89.987 12.7311 89.8794 12.7311C89.8794 12.6232 89.6643 12.0837 89.5568 11.5443C89.1266 9.38647 88.1586 6.04187 87.8359 5.17874L88.051 4.74718L86.868 4.63929C85.7925 4.5314 82.0282 4.31562 81.1678 4.31562C80.9527 4.31562 80.5224 4.31562 79.9847 4.20773C79.5545 4.20773 78.2639 4.09984 77.2959 3.99195C76.3279 3.88406 74.9298 3.88406 74.392 3.77617C73.8542 3.77617 72.241 3.66828 70.8428 3.56039C69.4446 3.4525 68.0465 3.4525 67.7238 3.34461C66.971 3.23671 64.6048 3.02093 63.3142 3.02093C62.7765 3.02093 62.1311 2.91304 61.8085 2.91304C61.0556 2.80515 55.2479 2.37359 52.9893 2.2657C50.1929 2.15781 46.106 1.94203 44.8154 1.72625C44.0625 1.61836 43.2021 1.61836 42.7719 1.61836C42.3417 1.61836 42.019 1.61836 42.019 1.61836C42.019 1.61836 41.0511 1.61836 39.868 1.61836C38.4698 1.51047 37.717 1.51047 37.717 1.61836ZM46.3211 5.28663C46.106 6.04187 44.8154 7.55234 43.6323 8.30757C42.987 8.73913 42.987 8.73913 43.0945 9.0628C43.2021 9.27858 43.3096 9.71014 43.3096 10.1417C43.4172 10.5733 43.4172 11.0048 43.5247 11.2206C43.5247 11.4364 43.6323 12.2995 43.7398 13.1626C43.8474 14.0258 43.9549 15.3205 44.0625 15.9678C44.17 16.6151 44.2776 17.8019 44.3852 18.5572C44.4927 19.4203 44.6003 20.2834 44.7078 20.6071C44.8154 20.9308 44.9229 21.9018 45.0305 22.8728C45.138 23.8438 45.2456 25.3543 45.3531 26.3253C46.106 33.0145 46.3211 37.9775 46.106 40.7826L45.9984 41.6457L46.6437 42.0773C46.9664 42.401 47.5041 42.8325 47.7192 43.2641C47.9343 43.5878 48.1495 43.9114 48.1495 43.9114C48.1495 43.9114 48.5797 43.5878 49.0099 43.2641C49.5476 42.8325 50.1929 42.2931 50.7307 42.0773C51.9138 41.5378 54.0648 40.7826 55.463 40.4589C55.6781 40.4589 56.1083 40.351 56.3234 40.2432C57.3989 40.0274 59.765 39.7037 60.9481 39.5958C62.5613 39.4879 65.1426 39.7037 66.2181 40.0274C66.5408 40.1353 66.971 40.2432 67.1861 40.2432C67.4012 40.2432 67.8314 40.351 68.0465 40.4589C68.2616 40.5668 68.6918 40.6747 68.9069 40.7826C70.5202 41.43 72.3485 42.6167 74.0694 44.2351C75.0373 45.2061 75.5751 45.8535 76.2204 47.256C77.2959 49.4138 77.511 52.4348 76.7581 55.3478C76.4355 56.6425 75.1449 59.6634 74.6071 60.5266C73.9618 61.4976 72.7787 62.7923 72.0259 63.3317C71.3806 63.8712 71.3806 63.9791 71.9183 64.087C72.1334 64.087 72.5636 64.1948 72.8863 64.3027C74.1769 64.7343 75.1449 64.7343 75.5751 64.5185C75.6826 64.4106 76.2204 64.1949 76.543 64.087C77.9412 63.6554 79.2318 62.7923 80.7375 61.4976C81.7055 60.6345 82.3508 59.8792 83.9641 57.6135C85.0396 56.1031 86.7604 52.6506 87.4057 50.8164C88.051 48.8744 88.6964 45.8535 88.8039 44.2351C88.8039 43.9114 88.9115 43.2641 89.019 42.8325C89.1266 42.401 89.2341 41.7536 89.2341 41.2142C89.2341 40.7826 89.3417 39.38 89.4492 38.3011C89.7719 34.3092 89.6643 26.2174 89.1266 22.4412C89.019 21.7939 88.9115 20.9308 88.9115 20.6071C88.9115 20.2834 88.8039 19.744 88.6964 19.3124C88.6964 18.9887 88.5888 18.2335 88.4813 17.694C88.1586 17.1546 88.051 16.5072 88.051 16.1836C87.9435 15.8599 87.9435 15.5362 87.9435 15.4283C87.9435 15.3205 87.8359 14.781 87.7284 14.3494C87.6208 13.9179 87.5133 13.3784 87.5133 13.1626C87.4057 12.839 87.4057 12.7311 87.1906 12.7311C86.6529 12.7311 85.0396 12.2995 84.3943 11.868C83.3188 11.2206 82.4584 10.3575 81.8131 9.0628C81.4904 8.41546 81.598 8.41546 79.5545 7.87601C78.5865 7.66023 75.7902 7.33655 73.1014 7.12077C72.5636 7.12077 71.273 7.01288 70.3051 6.90499C69.2295 6.7971 67.9389 6.7971 67.4012 6.68921C66.8634 6.68921 66.2181 6.58132 66.1105 6.58132C65.8954 6.58132 65.2501 6.47343 64.4973 6.36554C63.7444 6.25765 62.6689 6.14976 62.1311 6.14976C61.4858 6.04187 60.8405 6.04187 60.5179 5.93398C60.3028 5.93398 59.8726 5.82609 59.6575 5.82609C59.4424 5.82609 58.6895 5.7182 58.0442 5.7182C57.3989 5.7182 56.3234 5.61031 55.6781 5.50242C55.0327 5.39452 53.9572 5.39452 53.3119 5.28663C50.408 5.50242 47.8268 5.28663 47.1815 5.17874C46.8588 5.07085 46.5362 4.96296 46.4286 4.96296C46.4286 4.96296 46.3211 5.07085 46.3211 5.28663ZM2.97783 39.8116C3.30049 40.4589 3.73069 40.9984 3.9458 41.2142C4.05335 41.43 4.376 41.7536 4.48355 41.9694C5.02131 42.7246 6.20438 44.4509 6.74213 45.0982C7.06479 45.4219 7.60254 46.1771 8.03275 46.7166C9.21581 48.2271 10.1838 49.4138 10.614 49.9533C10.9366 50.277 11.2593 50.7085 11.3668 50.9243C11.5819 51.1401 12.1197 51.7874 12.765 52.4348C13.3028 53.0821 13.9481 53.7295 14.0556 53.8374C14.1632 54.0531 14.7009 54.5926 15.1311 55.132C15.6689 55.6715 16.2067 56.2109 16.3142 56.3188C16.852 56.9662 18.3577 58.3688 19.1106 58.9082C21.4767 60.8502 23.1975 61.9291 25.4561 62.4686C25.6712 62.4686 25.9938 62.5765 26.4241 62.6844C26.7467 62.7923 27.0694 62.7923 27.0694 62.7923C27.0694 62.7923 26.8543 62.5765 26.4241 62.3607C26.1014 62.1449 25.6712 61.8213 25.5636 61.7134C25.4561 61.6055 24.9183 61.1739 24.3806 60.7424C23.8428 60.3108 22.9824 59.6634 22.6597 59.3398C22.2295 59.0161 21.7993 58.5845 21.5842 58.3688C19.6483 56.9662 11.9046 49.1981 10.9366 47.5797C10.8291 47.3639 10.3989 46.8245 10.0762 46.5008C9.43092 45.7456 7.38744 42.8325 7.06478 42.2931C6.74213 41.8615 6.95723 41.43 7.38744 41.2142C8.03275 40.8905 10.8291 40.9984 15.3463 41.5378C16.2067 41.6457 17.6048 41.7536 18.2501 41.7536C19.003 41.7536 19.5408 41.8615 19.6483 41.8615C19.6483 41.8615 20.2936 41.9694 20.9389 41.9694C21.5842 41.9694 22.3371 42.0773 22.5522 42.0773C23.09 42.1852 25.1334 42.401 26.5316 42.5089C27.1769 42.6167 28.8977 42.7246 30.1884 42.8325C31.479 42.9404 33.3073 43.1562 34.1678 43.1562C35.5659 43.2641 41.4813 43.8035 42.1266 43.9114C43.4172 44.1272 43.6323 44.1272 43.8474 44.343C43.9549 44.4509 44.3852 45.0982 44.7078 45.7456C45.0305 46.3929 45.7833 47.3639 46.106 47.9034C47.6117 49.9533 48.4721 51.0322 49.3325 52.0032C50.3005 53.19 53.7421 56.5346 54.6025 57.182C54.9252 57.5056 55.2478 57.7214 55.3554 57.8293C56.0007 58.5845 58.6895 60.5266 60.1952 61.2818C60.6254 61.4976 61.2707 61.9291 61.5934 62.1449C61.916 62.3607 63.2067 63.0081 64.6048 63.6554L67.0785 64.8422H68.5842C69.5522 64.8422 70.09 64.8422 70.09 64.7343C70.09 64.6264 69.9824 64.6264 69.7673 64.5185C69.4446 64.4106 65.7879 62.6844 65.5728 62.4686C65.4652 62.3607 65.035 62.1449 64.7124 61.9291C64.2822 61.7134 63.6369 61.2818 63.0991 60.9581C62.6689 60.6345 61.916 60.2029 61.5934 59.9871C61.2707 59.7713 60.733 59.4477 60.5179 59.2319C60.3028 59.0161 59.8726 58.8003 59.6575 58.6924C59.1197 58.3688 58.4744 57.7214 57.7215 57.0741C57.3989 56.7504 57.0762 56.4267 56.8611 56.3188C56.4309 55.9952 55.5705 55.0242 53.7421 52.7585C52.7742 51.5717 52.6666 51.4638 52.0213 50.7085C51.6987 50.277 51.1609 49.6296 50.7307 49.1981C50.3005 48.7665 50.0854 48.4428 50.0854 48.3349C50.0854 48.2271 49.7627 47.7955 49.3325 47.1481C48.0419 45.5298 47.1815 44.343 46.6437 43.5878C46.3211 43.0483 46.106 42.8325 45.5682 42.6167C44.3851 42.0773 44.0625 41.9694 43.8474 41.9694C43.7398 41.9694 43.3096 41.8615 43.0945 41.7536C42.7719 41.6457 42.2341 41.5378 41.8039 41.43C41.3737 41.3221 40.836 41.2142 40.6208 41.2142C40.4057 41.1063 39.6529 41.1063 39.1151 40.9984C38.5774 40.9984 37.5019 40.8905 36.749 40.7826C35.9961 40.6747 34.9206 40.5668 34.4904 40.5668C34.0602 40.5668 33.1998 40.4589 32.5545 40.351C32.0167 40.2432 30.8337 40.2432 30.1884 40.1353C29.4355 40.1353 28.36 40.0274 27.8222 39.9195C27.2845 39.8116 25.7787 39.8116 24.4881 39.7037C22.0144 39.5958 19.2181 39.4879 17.2822 39.2721C16.6369 39.1643 15.4538 39.1643 14.5934 39.0564C13.733 39.0564 12.8726 38.9485 12.5499 38.8406C12.2273 38.8406 11.582 38.7327 10.9366 38.7327C10.3989 38.7327 9.21582 38.6248 8.46296 38.6248C7.7101 38.5169 6.63458 38.5169 6.09683 38.409C5.55907 38.409 4.69866 38.3011 4.05335 38.1932C2.22497 38.6248 2.22497 38.5169 2.97783 39.8116ZM59.5499 41.2142C56.646 41.6457 56.3234 41.7536 54.9252 42.0773C54.2799 42.2931 53.4195 42.5089 53.0968 42.5089C52.7742 42.6167 52.4515 42.7246 52.344 42.8325C52.2364 42.9404 51.9138 43.0483 51.5911 43.2641C50.9458 43.5878 50.3005 43.9114 49.5476 44.6667L49.1174 45.0982L49.3325 45.4219C50.0854 46.5008 51.376 48.2271 51.4835 48.2271C51.4835 48.2271 51.6987 48.0113 51.9138 47.7955C52.4515 47.256 53.0968 46.9324 54.0648 46.9324C54.6025 46.9324 55.0327 46.9324 55.3554 47.0403C56.3234 47.4718 57.9366 48.7665 58.3668 49.5217C59.2273 51.0322 59.8726 52.6506 60.3028 54.161C60.8405 56.1031 61.3783 57.5056 61.916 58.4767C62.2387 59.0161 62.3462 59.2319 62.5613 59.2319C62.7765 59.2319 63.2067 59.3398 63.5293 59.5556C64.3897 59.8792 66.2181 59.8792 66.8634 59.6634C67.0785 59.5556 67.5087 59.3398 67.9389 59.124C68.9069 58.5845 69.8748 57.5056 70.1975 56.4267C70.5202 55.132 70.5202 54.9163 70.3051 53.8374C69.9824 52.4348 69.5522 51.8953 67.6163 50.3849C66.8634 49.8454 66.8634 49.7375 66.8634 49.306C66.8634 48.6586 67.5087 48.4428 68.154 48.9823C68.3691 49.0902 68.6918 49.4138 68.9069 49.4138C69.3371 49.6296 70.6277 50.9243 71.0579 51.5717C71.4881 52.219 71.7032 52.9742 71.9183 54.2689V55.132L72.4561 55.2399C73.8543 55.4557 74.1769 55.5636 74.1769 56.2109C74.1769 56.7504 73.7467 56.9662 72.8863 56.8583C72.4561 56.8583 72.0259 56.7504 71.9183 56.7504C71.8108 56.6425 71.7032 56.7504 71.5957 56.9662C70.8428 58.6924 70.3051 59.4477 69.3371 60.095C68.5842 60.6345 67.2936 61.1739 66.7559 61.2818C65.7879 61.3897 65.8954 61.4976 67.5087 62.3607C68.3691 62.7923 69.2295 63.2238 69.3371 63.3317C69.8748 63.6554 70.1975 63.5475 71.5957 62.3607C72.7787 61.3897 73.9618 59.6634 74.9298 57.0741C75.6826 55.132 75.8977 54.2689 75.8977 52.1111C75.8977 49.8454 75.7902 49.5217 75.0373 47.9034C74.6071 46.9324 74.392 46.6087 73.2089 45.5298C70.6277 42.9404 67.8314 41.6457 63.6369 41.2142C62.7764 40.8905 60.5179 40.9984 59.5499 41.2142ZM8.35541 42.6167C8.67806 43.2641 9.86112 44.7746 10.614 45.6377C11.0442 46.1771 11.6895 46.8245 12.0122 47.1481C12.6575 47.9034 12.9801 48.2271 16.4218 51.8953C18.7879 54.3768 21.9069 57.2899 22.5522 57.6135C22.6597 57.7214 22.8749 57.8293 23.09 58.0451C23.7353 58.5845 25.1334 59.7713 25.241 59.7713C25.241 59.7713 25.6712 59.9871 25.9938 60.3108C26.6392 60.8502 27.1769 61.1739 28.7902 62.2528C29.2204 62.5765 29.9732 63.0081 30.2959 63.3317C30.7261 63.5475 31.0488 63.7633 31.2639 63.7633C31.3714 63.7633 31.9092 63.8712 32.3394 63.9791C33.3073 64.1948 36.5339 64.6264 37.717 64.7343C38.2547 64.7343 39.2227 64.8422 39.868 64.8422C40.5133 64.8422 41.3737 64.9501 41.8039 64.9501C42.2341 64.9501 43.7398 65.058 45.138 65.058C46.5362 65.058 47.7192 65.1659 47.7192 65.1659C48.0419 65.3816 63.852 65.4895 63.852 65.2738C63.852 65.2738 63.4218 64.9501 62.9916 64.7343C62.4538 64.5185 61.8085 64.1948 61.4858 63.9791C61.1632 63.7633 60.8405 63.5475 60.8405 63.5475C60.733 63.5475 58.4744 62.2528 58.1517 61.9291C57.9366 61.8213 57.7215 61.6055 57.7215 61.6055C57.614 61.6055 57.2913 61.3897 56.9687 61.066C56.646 60.7423 56.1083 60.4187 55.8932 60.2029C53.0968 57.8293 48.6872 53.5137 47.3966 51.7874C47.1815 51.4638 46.6437 50.8164 46.3211 50.3849C45.2456 48.8744 44.3852 47.6876 43.8474 46.5008C43.5247 45.8535 43.2021 45.4219 43.0945 45.4219C42.987 45.4219 41.9115 45.314 40.8359 45.2061C39.6529 45.0982 37.6094 44.8824 36.3188 44.7746C35.0282 44.6667 32.5545 44.4509 30.7261 44.343C29.0053 44.1272 26.9618 44.0193 26.209 43.9114C25.4561 43.8035 24.7032 43.6957 24.4881 43.6957C24.273 43.5878 23.6277 43.5878 22.8749 43.4799C22.2295 43.4799 21.154 43.372 20.6163 43.2641C20.0785 43.1562 19.2181 43.1562 18.5728 43.0483C18.035 43.0483 16.852 42.9404 15.884 42.8325C14.5934 42.7246 9.86113 42.401 8.35541 42.2931C8.24785 42.5089 8.24785 42.5089 8.35541 42.6167ZM53.2044 48.6586C52.4515 48.9823 52.344 49.1981 52.6666 49.6296C52.7742 49.8454 53.0968 50.3849 53.527 50.7085C53.8497 51.1401 54.7101 52.1111 55.3554 52.8663C56.5385 54.2689 58.4744 56.3188 59.2273 56.8583C59.6575 57.182 59.765 57.0741 59.4424 56.4267C59.3348 56.211 59.2273 55.8873 59.2273 55.6715C59.1197 55.2399 58.797 53.9453 58.2593 52.5427C58.1517 52.219 57.8291 51.6795 57.7215 51.3559C57.5064 51.0322 57.2913 50.6006 57.1838 50.277C56.9687 49.7375 56.0007 48.8744 55.2478 48.5507C54.495 48.3349 53.8497 48.3349 53.2044 48.6586Z" fill="#0F0B0D"/>
<path fill-rule="evenodd" clip-rule="evenodd" d="M67.4012 20.2834C68.3691 20.6071 68.4767 20.6071 69.2295 21.4702C69.6597 21.9018 70.1975 22.5491 70.3051 22.8728C70.4126 23.1965 70.6277 23.628 70.7353 23.7359C70.8428 23.9517 71.0579 24.7069 71.1655 25.7858C71.1655 26.0016 71.1655 26.4332 71.0579 26.8647C70.6277 28.6989 69.5522 29.7778 67.6163 30.533C66.8634 30.8567 66.6483 30.8567 65.2501 30.8567C63.7444 30.8567 63.6369 30.8567 62.7764 30.4251C60.733 29.562 59.5499 28.1594 59.2272 26.4332C58.9046 24.2754 59.5499 22.2254 60.9481 21.2544C62.1311 20.4992 62.7764 20.1755 63.7444 20.0676C64.2822 20.0676 64.7124 19.9597 64.7124 19.8519C64.8199 19.8519 66.3256 19.9597 67.4012 20.2834ZM65.5728 21.4702C65.5728 21.4702 65.035 21.5781 64.4973 21.5781C63.6369 21.5781 63.4218 21.5781 62.9916 21.9018C62.6689 22.1176 62.2387 22.3333 62.0236 22.4412C61.2707 22.8728 60.6254 24.1675 60.6254 25.3543C60.6254 26.0016 60.8405 26.9726 61.0556 27.2963C61.3783 27.8357 62.2387 28.591 62.9916 28.9147C64.4973 29.6699 66.8634 29.6699 68.2616 28.6989C68.7993 28.3752 69.0144 28.1594 69.3371 27.5121C69.7673 26.7568 69.7673 26.3253 69.6597 25.4622C69.5522 24.8148 69.4446 24.4911 69.0144 23.5201C68.7993 23.0886 67.6163 21.9018 67.2936 21.9018C67.1861 21.9018 66.7559 21.7939 66.4332 21.686C65.6803 21.3623 65.6803 21.3623 65.5728 21.4702Z" fill="#0F0B0D"/>
<path fill-rule="evenodd" clip-rule="evenodd" d="M33.8451 51.7874C35.4584 52.5427 35.4584 52.5427 36.3188 53.5137C36.6414 53.8374 36.749 54.3768 36.8565 55.3478C36.9641 56.2109 36.6414 56.9662 35.8886 57.6135C34.9206 58.4767 33.8451 58.5845 32.4469 58.153C31.479 57.8293 30.6186 57.0741 30.1884 56.3188C29.8657 55.5636 29.6506 54.3768 29.8657 53.7295C30.0808 53.19 30.9412 52.219 31.479 52.0032C32.0167 51.7874 33.5224 51.6795 33.8451 51.7874ZM31.5865 53.7295C31.2639 54.0531 31.2639 54.161 31.2639 54.9163C31.2639 55.7794 31.2639 55.7794 31.6941 56.2109C32.662 57.0741 33.9527 57.3977 35.0282 56.9662C35.6735 56.6425 35.9961 56.211 35.781 55.5636C35.5659 54.8084 35.5659 54.5926 35.1357 54.2689C34.0602 53.4058 33.63 53.2979 32.662 53.2979C32.0167 53.2979 31.9092 53.4058 31.5865 53.7295Z" fill="#0F0B0D"/>
<path fill-rule="evenodd" clip-rule="evenodd" d="M50.6231 7.12077C50.7307 7.22866 50.9458 7.22866 51.0533 7.12077C51.2684 7.12077 51.8062 7.12077 52.2364 7.22866C52.6666 7.33655 53.6346 7.44444 54.3874 7.44444C55.7856 7.55234 56.4309 7.66023 58.797 7.9839C60.1952 8.19968 60.733 8.19968 64.8199 8.52335C66.7558 8.73913 71.273 8.95491 71.7032 8.95491C72.7787 8.95491 78.3714 9.17069 79.1243 9.27858C80.4149 9.49436 80.8451 9.81804 80.5224 10.3575C80.4149 10.5733 79.9847 10.5733 76.6506 10.4654C75.36 10.4654 73.8542 10.3575 73.3165 10.3575C72.241 10.3575 66.2181 10.0338 65.1426 9.92593C64.1746 9.81804 59.9801 9.38647 59.1197 9.27858C58.0442 9.17069 56.4309 8.95491 54.1723 8.73913C49.0099 8.30757 48.5797 8.19968 48.3645 7.66023C48.3645 7.55233 48.3646 7.33655 48.4721 7.22866C48.6872 7.12077 50.408 6.90499 50.6231 7.12077Z" fill="#0F0B0D"/>
<path fill-rule="evenodd" clip-rule="evenodd" d="M46.2135 10.1417C46.5362 10.4654 46.6437 11.2206 46.6437 11.5443C46.6437 11.7601 46.6437 11.9758 46.6437 12.0837C46.7513 12.1916 46.8588 13.5942 46.9664 15.2126C47.1815 17.694 47.1815 18.1256 46.9664 18.4493C46.7513 18.8808 46.3211 18.9887 45.8909 18.5572C45.6758 18.3414 45.5682 18.1256 45.4607 16.3994C45.3531 15.4283 45.2456 14.0258 45.138 13.2705C44.9229 11.2206 44.9229 10.5733 45.2456 10.2496C45.7833 9.81804 45.9984 9.81803 46.2135 10.1417Z" fill="#0F0B0D"/>
<path fill-rule="evenodd" clip-rule="evenodd" d="M86.3302 15.3205C86.4378 15.6441 86.5453 16.1836 86.6529 16.6151C86.6529 17.0467 86.7604 17.4783 86.7604 17.4783C86.868 17.694 87.2982 21.9018 87.2982 23.3043C87.4057 24.3833 87.2982 24.599 87.1906 24.9227C87.0831 25.1385 86.868 25.2464 86.7604 25.2464C86.1151 25.1385 85.9 24.2754 85.5774 20.6071C85.4698 19.5282 85.3623 18.4493 85.2547 18.1256C85.1472 17.8019 85.1472 17.0467 85.0396 16.3994C84.9321 14.9968 85.0396 14.781 85.6849 14.781C86.1151 14.781 86.1151 14.8889 86.3302 15.3205Z" fill="#0F0B0D"/>
<path fill-rule="evenodd" clip-rule="evenodd" d="M62.7764 37.1143C64.8199 37.2222 66.003 37.438 68.3691 38.0853C69.7673 38.5169 70.1975 38.7327 70.1975 39.1643C70.1975 39.9195 69.3371 40.0274 67.7238 39.4879C66.4332 39.0564 64.9275 38.7327 64.4973 38.7327C64.2822 38.7327 63.6369 38.7327 63.0991 38.6248C61.8085 38.5169 58.0442 38.6248 57.614 38.8406C57.5064 38.9485 57.2913 38.9485 57.0762 38.9485C56.9687 38.9485 56.2158 39.1643 55.5705 39.2721C53.8497 39.8116 53.7421 39.8116 53.4195 39.5958C53.2044 39.4879 53.0968 39.2721 53.2044 39.0564C53.2044 38.6248 54.0648 38.1932 55.4629 37.7617C56.1083 37.5459 56.7536 37.438 56.8611 37.3301C57.3989 37.3301 61.3783 37.0064 62.7764 37.1143Z" fill="#0F0B0D"/>
</svg>
