<svg width="146" height="81" viewBox="0 0 146 81" fill="none" xmlns="http://www.w3.org/2000/svg">
<path d="M85.5694 65.8003C84.5581 65.8003 82.9148 66.4342 82.1564 67.0682C80.8923 68.2092 80.6395 68.9699 81.7772 68.336C82.03 68.2092 82.662 67.8288 83.1677 67.5753C83.6733 67.3217 84.1789 67.0682 84.3053 66.9414C84.4317 66.8146 85.0638 66.561 85.5694 66.3074C86.5806 65.9271 86.5806 65.8003 85.5694 65.8003Z" fill="#83965A"/>
<path d="M3.78411 59.2076C4.16333 59.588 5.04818 60.3487 5.80662 60.8558C6.56507 61.4897 7.32351 62.1236 7.57632 62.3772C7.82914 62.6308 8.20836 62.8843 8.46117 63.1379C8.71398 63.2647 9.09321 63.645 9.47243 63.8986C9.72524 64.1521 10.4837 64.6593 11.2421 65.1664C11.8742 65.5468 12.5062 65.9271 12.5062 66.0539C12.6326 66.1807 14.9079 67.7021 15.6664 68.0824C18.7001 69.8574 23.7564 72.1395 26.2845 73.1537C28.9391 74.168 32.8577 75.5626 33.1105 75.5626C33.4897 75.5626 36.1443 76.4501 37.1555 76.8304C37.5348 76.9572 38.0404 77.084 38.2932 77.2108C38.546 77.2108 39.0516 77.3376 39.5573 77.4643C40.9478 77.8447 42.7175 78.0983 43.8551 78.225C46.3833 78.6054 47.1417 78.3518 45.1192 77.9715C43.8551 77.7179 41.8326 77.2108 40.6949 76.8304C40.3157 76.7036 39.6837 76.5769 39.4309 76.4501C38.7988 76.3233 37.914 75.943 36.2707 75.4358C35.7651 75.1823 34.8802 74.9287 34.3746 74.6751C32.9841 74.168 30.0768 73.0269 28.4335 72.5198C25.3997 71.5056 19.9642 68.8431 17.3097 67.0682C17.0568 66.9414 16.4248 66.561 16.0456 66.3074C15.0343 65.6735 12.6326 64.1521 11.1157 63.1379C10.1045 62.504 9.34602 61.7433 9.21961 61.3629C9.21961 61.2361 9.47243 60.6022 9.85165 59.9683C10.3573 58.954 10.4837 58.7005 10.3573 58.1934C10.3573 57.813 10.1045 57.3059 9.97805 56.9255C9.85165 56.5452 9.72524 56.1648 9.72524 56.038C9.72524 55.9113 9.97805 55.7845 10.3573 55.6577C10.6101 55.5309 11.6213 55.1506 12.6326 54.6434C13.6439 54.2631 14.5287 53.756 14.7815 53.756C15.0343 53.6292 15.6664 53.3756 16.2984 53.122C16.9304 52.8685 18.0681 52.3613 18.7001 52.1078C19.3322 51.8542 20.5962 51.3471 21.3547 50.9667C22.1131 50.5864 22.8716 50.3328 22.8716 50.3328C22.998 50.3328 23.3772 50.0792 23.7564 49.9525C24.1356 49.6989 24.8941 49.4453 25.2733 49.1918C25.6525 49.065 26.5374 48.5578 27.2958 48.1775C28.0542 47.7971 29.4447 47.1632 30.456 46.6561C31.4672 46.149 32.8577 45.5151 33.7426 45.1347C37.1555 43.4865 37.6612 43.233 38.2932 42.9794C38.6724 42.8526 39.0516 42.599 39.0516 42.599C39.1781 42.3455 39.5573 42.3455 40.6949 42.599C41.959 42.8526 43.4759 43.1062 44.2343 42.9794C44.4871 42.9794 45.4984 42.7258 46.3833 42.599L48.0265 41.8384L48.6586 42.2187C49.0378 42.4723 49.5434 42.7258 49.6698 42.8526C50.1755 43.1062 51.8187 44.2472 52.0716 44.374C52.198 44.374 52.9564 44.8811 53.7149 45.3883C56.3694 47.1632 57.6335 47.9239 58.8975 48.6846C60.288 49.4453 69.0101 53.5024 69.2629 53.5024C69.3893 53.5024 69.8949 53.6292 70.527 53.8827C72.2967 54.5166 74.4456 55.2773 75.5833 55.5309C77.2265 55.9113 77.985 56.038 78.4906 56.1648C78.7434 56.1648 79.3755 56.2916 79.8811 56.4184C80.3867 56.5452 81.0188 56.5452 81.2716 56.5452C81.5244 56.5452 82.1564 56.672 82.662 56.672C83.5469 56.7987 85.6958 57.0523 86.4543 57.0523C86.7071 57.0523 87.2127 57.0523 87.7183 57.1791C88.0975 57.1791 88.6032 57.1791 88.856 57.1791C88.9824 57.1791 89.2352 57.1791 89.3616 57.1791C89.6144 57.3059 89.8672 57.3059 93.0274 57.1791C94.1651 57.1791 95.1763 57.1791 95.3027 57.1791C95.3027 57.1791 95.5555 57.1791 95.9348 57.0523C96.1876 57.0523 96.946 56.9255 97.4517 56.9255C99.2213 56.7987 100.738 56.5452 103.266 55.7845C104.151 55.5309 105.162 55.2773 105.415 55.1506C105.921 55.0238 106.427 54.897 108.323 53.756C108.702 53.5024 109.207 53.2488 109.46 53.122C109.713 52.9953 109.966 52.8685 110.092 52.7417C110.345 52.6149 110.219 52.6149 109.713 52.7417C108.449 53.122 104.404 54.1363 102.887 54.3899C102.382 54.5166 101.876 54.5166 101.749 54.6434C101.497 54.7702 95.0499 55.5309 94.2915 55.5309C93.9123 55.5309 92.3954 55.6577 91.1313 55.6577C90.8785 55.6577 90.6257 55.6577 90.4993 55.6577C90.3729 55.6577 89.7408 55.6577 89.1088 55.6577C86.8335 55.6577 83.6733 55.4041 80.5131 54.7702C76.0889 53.8827 73.8136 53.2488 69.8949 51.7274C66.9876 50.5864 61.5521 48.1775 59.9088 47.1632C59.0239 46.6561 58.1391 46.149 58.0127 46.149C57.7599 46.0222 57.1278 45.6418 56.4958 45.2615C55.8638 44.8811 54.9789 44.2472 54.3469 43.9937C53.8413 43.7401 53.2092 43.3597 53.0828 43.1062C52.9564 42.9794 52.4508 42.5991 52.0716 42.4723C51.6923 42.2187 51.3131 41.9651 51.0603 41.8384C50.6811 41.5848 47.9001 39.683 47.2681 39.1759C47.0153 39.0491 46.6361 38.6688 46.3833 38.542C46.1304 38.4152 45.8776 38.1617 45.8776 38.1617C45.7512 38.1617 45.372 38.1616 44.9928 38.4152C44.6136 38.6688 43.9815 38.7956 43.7287 38.9223C43.0967 39.0491 37.282 41.7116 36.3971 42.2187C36.0179 42.3455 35.3858 42.7258 34.8802 42.8526C34.3746 42.9794 33.4897 43.3597 32.9841 43.7401C31.2144 44.6276 28.0542 46.149 26.6638 46.7829C25.9053 47.1632 24.6413 47.6704 23.8828 48.0507C23.1244 48.4311 21.9867 48.9382 21.4811 49.1918C20.8491 49.4453 19.7114 49.9525 18.9529 50.4596C17.4361 51.2203 15.7928 51.981 13.7703 52.7417C13.1382 52.9952 12.127 53.5024 11.4949 53.756C10.8629 54.0095 9.47243 54.6434 8.58758 55.0238C7.44992 55.1506 6.31225 55.5309 6.05944 55.7845C5.68022 55.9113 5.301 56.1648 5.17459 56.1648C4.92178 56.1648 2.01442 57.5594 2.01442 57.6862C2.01442 57.6862 2.26723 57.9398 2.52004 58.1934C2.89927 58.4469 3.40489 58.954 3.78411 59.2076Z" fill="#83965A"/>
<path d="M47.1417 58.0666C46.3832 57.1791 45.8776 56.9255 44.74 56.9255C43.3495 56.7987 42.7174 57.0523 41.8326 57.6862C41.0742 58.1933 40.9477 58.3201 40.6949 58.954C40.3157 59.8415 40.3157 60.6022 40.8213 61.1094C41.4534 61.9968 42.8439 62.2504 44.8664 62.1236C46.1304 61.9968 47.7737 60.9826 47.9001 60.2219C48.0265 59.4612 47.6473 58.7005 47.1417 58.0666Z" fill="#83965A"/>
<path d="M97.1988 58.7005C96.5668 58.7005 95.8084 58.8273 95.4291 58.8273C94.6707 58.954 91.0049 58.954 90.8785 58.954C90.7521 58.954 90.4993 58.954 90.2465 58.954C89.9936 58.954 89.1088 58.954 88.2239 58.954C87.4655 58.8273 86.075 58.8273 85.3166 58.7005C82.2828 58.4469 78.7434 57.9398 76.3417 57.4326C75.4568 57.1791 74.572 57.0523 74.4456 57.0523C74.3192 57.0523 72.0439 56.2916 69.8949 55.5309C69.5157 55.4041 67.114 54.3899 64.5858 53.2488C59.7824 51.2203 57.6335 50.0792 55.1053 48.4311C54.3469 47.9239 53.462 47.4168 53.2092 47.29C52.9564 47.1632 52.7036 47.0365 52.7036 46.9097C52.7036 46.7829 52.4508 46.6561 52.0716 46.5293C51.4395 46.2758 49.1642 44.7544 48.0265 43.9937L47.5209 43.6133L46.3833 43.9937C45.2456 44.374 43.4759 44.6276 43.0967 44.5008C42.9703 44.5008 42.591 44.374 42.2118 44.2472C41.8326 44.1204 41.0742 43.9937 40.5685 43.8669C39.8101 43.6133 39.6837 43.6133 39.4309 43.7401C39.3045 43.8669 38.546 44.2472 37.6612 44.7544C36.9027 45.1347 36.0179 45.6418 35.7651 45.7686C35.5123 45.8954 34.8802 46.149 34.3746 46.4025C33.869 46.6561 32.7313 47.1632 31.9729 47.5436C31.2144 47.9239 29.8239 48.5578 28.8127 49.065C27.8014 49.5721 26.411 50.206 25.7789 50.5864C25.0205 50.9667 24.0092 51.4739 23.3772 51.7274C20.9755 52.8685 20.5962 52.9952 19.0794 53.6292C18.1945 54.0095 16.9304 54.5166 16.172 54.897C15.4136 55.2773 14.1495 55.9113 13.1382 56.1648L11.4949 56.7987L11.7478 57.5594C12.0006 58.7005 11.7478 60.0951 11.1157 60.9826L10.7365 61.4897L11.8742 62.2504C12.5062 62.6307 13.5174 63.2647 14.0231 63.645C14.6551 64.0254 15.54 64.5325 16.0456 64.9128C16.5512 65.2932 17.4361 65.8003 17.9417 66.1807C19.8378 67.4485 26.2845 70.3645 30.9616 71.8859C31.72 72.1395 33.7426 72.9002 35.3858 73.5341C39.5573 75.0555 42.591 75.943 47.9001 77.084C48.5322 77.2108 49.9226 77.3376 50.9339 77.4643C51.3131 77.4643 52.198 77.5911 52.7036 77.7179C53.8413 77.9715 54.3469 77.8447 58.5183 76.9572L58.8975 76.8304L58.6447 76.1965C58.3919 75.309 58.2655 74.8019 58.3919 73.7876C58.5183 72.7734 59.2768 71.252 60.0352 70.3645C60.6672 69.7306 62.5633 68.0824 63.069 67.8288C63.3218 67.7021 63.701 67.4485 63.9538 67.3217C66.7348 65.5468 71.0326 63.7718 75.204 62.6307C75.8361 62.504 76.7209 62.1236 77.2265 61.9968C77.7322 61.8701 78.2378 61.7433 78.2378 61.7433C78.2378 61.7433 78.7434 61.6165 79.2491 61.4897C80.5131 61.1094 83.0413 60.729 85.5694 60.3487C86.2014 60.2219 88.4768 60.2219 89.488 60.3487C89.7408 60.3487 90.6257 60.4754 91.3841 60.4754C92.1426 60.4754 93.0274 60.6022 93.4066 60.729C95.8084 61.3629 95.5555 61.3629 96.946 60.4754C97.7045 60.0951 98.7157 59.4612 99.3478 59.0808C99.9798 58.7005 100.359 58.4469 100.359 58.4469C100.359 58.4469 99.8534 58.4469 99.3478 58.5737C98.8421 58.4469 97.8309 58.5737 97.1988 58.7005ZM48.0265 62.3772C47.5209 62.7575 46.8889 63.2647 46.5097 63.3914C45.8776 63.645 44.2343 63.8986 43.9815 63.7718C43.8551 63.7718 43.6023 63.7718 43.3495 63.7718C43.0967 63.7718 42.3382 63.645 41.8326 63.3914C40.9478 63.0111 40.6949 62.8843 40.0629 62.2504C39.1781 61.2361 39.0516 60.4754 39.3045 59.0808C39.4309 58.1933 39.5573 58.0666 39.9365 57.4326C40.6949 56.5452 41.8326 55.7845 42.8439 55.5309C43.3495 55.4041 44.1079 55.4041 44.74 55.5309C46.004 55.6577 46.1304 55.6577 47.1417 56.4184C48.1529 57.0523 49.0378 58.1933 49.2906 59.0808C49.6698 60.3487 49.2906 61.2361 48.0265 62.3772Z" fill="#B2C786"/>
<path d="M82.662 53.122C82.9148 53.122 83.2941 53.2488 83.5469 53.2488C83.9261 53.2488 84.0525 53.122 85.0638 52.2345C86.5806 50.7132 88.6032 48.4311 89.6144 46.7829C89.7408 46.6561 89.9936 46.149 90.2465 45.7686C90.8785 44.8811 91.7633 43.1062 93.0274 40.0634C94.0387 37.7813 94.6707 35.8796 95.0499 34.2314C95.3027 33.0903 95.9348 30.935 96.4404 29.794C96.6932 29.0333 96.8196 28.9065 97.0724 28.9065C97.1988 28.9065 97.4516 28.7797 97.578 28.6529C97.7045 28.5262 97.9573 28.3994 98.0837 28.2726C98.2101 28.1458 99.0949 27.7655 99.8534 27.2583C100.612 26.878 101.497 26.3708 101.749 26.2441C102.002 26.1173 102.887 25.6101 103.646 25.103C104.404 24.5959 105.668 23.962 106.174 23.5816C106.806 23.2013 107.564 22.8209 107.943 22.5674C108.323 22.3138 109.081 21.9334 109.713 21.5531C110.345 21.1727 111.104 20.7924 111.356 20.6656C113 19.7781 115.022 18.6371 115.781 18.13C116.665 17.6228 117.803 16.9889 119.194 16.2282C119.573 16.1014 120.078 15.7211 120.458 15.5943C120.837 15.3407 121.343 15.0872 121.722 14.8336C122.101 14.7068 122.733 14.3265 123.239 13.9461C123.744 13.6926 124.629 13.1854 125.388 12.8051C126.146 12.4247 126.904 12.0444 127.157 11.7908C127.41 11.664 127.916 11.4105 128.295 11.1569C128.674 11.0301 129.053 10.7765 129.18 10.6498C129.433 10.523 130.444 10.0158 131.961 9.25515C132.34 9.12837 133.225 8.62124 133.857 8.24089C134.489 7.86054 135.5 7.48019 135.879 7.22662C136.385 6.97306 136.891 6.84628 137.017 6.59271C137.27 6.46593 137.775 6.21236 138.281 5.9588C139.04 5.70523 139.292 5.57845 139.672 5.83201C140.051 5.9588 140.177 6.21236 140.304 6.71949C140.43 7.09984 140.556 7.60697 140.556 7.73376C140.556 8.62124 139.672 12.5515 138.787 15.5943C138.155 17.7496 135.247 24.2155 134.362 25.6101C133.983 26.2441 133.604 26.878 133.604 27.0048C133.604 27.1315 133.351 27.5119 133.098 27.8922C132.846 28.2726 131.961 29.5404 131.202 30.8082C127.536 36.767 124.882 40.1902 122.227 42.3455C121.975 42.4723 121.848 42.7258 121.848 42.7258C121.848 42.8526 120.963 43.6133 120.458 43.9937C120.078 44.374 120.331 44.2472 120.963 43.7401C121.975 43.1062 124.629 40.8241 125.514 40.0634C125.767 39.8098 126.146 39.4295 126.525 39.0491C126.904 38.7956 127.284 38.2884 127.41 38.0349C127.536 37.7813 127.916 37.401 128.169 37.1474C128.927 36.3867 131.329 33.2171 132.846 31.0618C133.098 30.6815 133.604 29.9208 133.983 29.5404C134.236 29.1601 134.615 28.5261 134.742 28.2726C134.868 28.019 134.995 27.7655 135.121 27.6387C135.247 27.5119 135.5 27.0048 135.879 26.4976C136.132 25.9905 136.638 25.2298 136.891 24.8494C137.902 23.3281 141.188 15.4675 141.441 14.1997C141.441 13.9461 141.694 13.3122 141.82 12.8051C142.073 11.9176 142.453 10.7765 143.211 7.98732C143.59 6.59271 144.096 4.05705 144.096 3.42314C144.096 3.29636 144.222 2.66244 144.222 2.02853C144.349 1.39461 144.349 1.01426 144.222 1.01426C144.096 1.01426 143.969 0.88748 143.969 0.88748C143.969 0.633914 143.717 0.633914 142.832 1.14105C141.82 1.64818 141.315 1.90174 140.051 2.53566C139.545 2.78922 138.407 3.29636 137.649 3.6767C136.764 4.05705 135.627 4.56418 135.121 4.81775C132.214 6.08558 131.202 6.59271 130.444 7.22662C130.191 8.74802 129.812 8.8748 129.685 8.8748C129.559 8.8748 129.433 8.8748 129.433 9.00158C129.433 9.12837 128.801 9.38193 128.042 9.76228C127.284 10.1426 126.146 10.6498 125.514 11.0301C124.756 11.4105 123.871 11.7908 123.491 12.0444C123.112 12.2979 122.607 12.5515 122.227 12.6783C121.975 12.8051 121.216 13.1854 120.711 13.439C120.205 13.6926 119.194 14.1997 118.435 14.58C117.171 15.2139 115.781 15.9746 114.39 16.6086C114.011 16.7353 113.379 17.1157 112.873 17.3693C111.862 17.8764 111.483 18.13 109.84 18.8906C109.081 19.271 108.449 19.6513 108.196 19.7781C107.943 19.9049 107.691 20.1585 107.438 20.2853C106.806 20.5388 104.53 21.8067 104.025 22.187C103.772 22.3138 103.14 22.6941 102.634 23.0745C100.865 23.962 100.485 24.3423 100.359 24.3423C100.359 24.3423 99.727 24.8494 98.9685 25.2298C98.2101 25.7369 97.578 26.1173 97.3252 26.2441C97.1988 26.3708 96.946 26.6244 96.6932 26.6244C96.5668 26.7512 95.9348 27.1315 95.3027 27.6387C94.4179 28.2726 94.1651 28.5262 94.1651 28.7797C94.1651 28.9065 94.1651 29.4136 94.0387 29.794C93.9123 30.6815 93.7858 31.3154 93.6594 32.3296C93.4066 33.851 91.1313 40.6973 90.12 42.599C89.3616 43.9937 88.4767 45.5151 87.7183 46.5293C85.443 49.6989 84.1789 51.2203 82.662 52.2345C82.2828 52.4881 82.03 52.6149 82.03 52.7417C82.1564 53.122 82.4092 53.122 82.662 53.122Z" fill="#83965A"/>
<path d="M123.997 39.683C124.25 39.3027 124.756 38.7956 125.008 38.4152C125.261 38.0349 125.767 37.4009 126.146 36.8938C126.525 36.3867 126.904 35.7528 127.157 35.4992C128.295 34.1046 130.697 30.3011 132.34 27.2583C132.719 26.4976 133.225 25.7369 133.351 25.3566C134.615 23.2013 137.523 16.2282 138.155 14.0729C138.281 13.5658 138.534 12.6783 138.787 12.0444C139.04 11.2837 139.166 10.6498 139.166 10.6498C139.166 10.523 139.166 10.0158 139.166 9.6355C139.292 8.49445 139.166 8.36767 138.787 8.62124C138.407 8.8748 133.351 11.4105 131.834 12.0444C131.582 12.1712 130.949 12.4247 130.57 12.6783C130.191 12.9319 129.559 13.1854 129.306 13.3122C128.927 13.439 128.674 13.6926 128.674 13.6926C128.674 13.8193 128.421 13.9461 128.169 13.9461C127.916 14.0729 127.536 14.1997 127.41 14.3265C127.284 14.4532 126.778 14.7068 126.272 14.9604C125.767 15.2139 125.135 15.5943 124.882 15.7211C124.629 15.8479 123.871 16.355 123.112 16.7353C122.48 17.1157 121.595 17.6228 121.09 17.8764C120.584 18.13 119.699 18.6371 119.067 19.0174C118.435 19.3978 117.55 19.7781 117.298 20.0317C117.045 20.2853 116.539 20.412 116.413 20.5388C116.16 20.6656 113.758 22.0602 112.873 22.5674C112.368 22.8209 111.356 23.328 110.977 23.5816C110.598 23.7084 108.955 24.5959 106.806 25.8637C106.3 26.1173 105.668 26.4976 105.415 26.6244C105.162 26.7512 104.53 27.1315 103.898 27.5119C103.393 27.8922 102.634 28.2726 102.382 28.3994C102.129 28.5261 100.991 29.1601 99.727 29.9208C97.9573 30.935 97.578 31.1886 97.4516 31.5689C97.1988 32.5832 96.8196 34.2314 96.5668 35.3724C96.4404 36.0063 96.0612 37.0206 95.9348 37.6545C95.6819 38.7956 93.6594 43.3597 92.5218 45.6418C92.0161 46.5293 91.3841 47.6704 90.8785 48.3043C90.3729 48.9382 89.8672 49.6989 89.7408 49.9525C89.488 50.3328 89.1088 50.8399 88.7296 51.2203C88.3503 51.6006 88.0975 51.981 88.0975 51.981C87.9711 52.2345 86.3278 53.7559 86.075 54.0095C85.8222 54.1363 86.707 54.2631 87.7183 54.2631C88.856 54.2631 89.2352 54.2631 89.9936 54.2631C90.8785 54.2631 95.9348 54.0095 96.314 54.0095C96.4404 54.0095 96.6932 54.0095 96.8196 54.0095C97.1988 54.0095 101.244 53.3756 103.14 52.9952C107.311 52.1078 109.966 51.3471 111.23 50.7132C111.988 50.3328 113 49.6989 115.022 48.3043C115.528 48.0507 116.539 47.29 117.677 46.4025C118.688 45.6418 120.584 43.8669 120.963 43.4865C121.343 43.1062 122.48 41.9651 123.365 41.2044C123.365 40.4437 123.744 40.0634 123.997 39.683ZM116.665 38.542C115.907 39.683 115.401 40.317 114.517 40.6973C112.873 41.458 111.862 41.458 110.345 40.8241C109.334 40.317 109.081 40.1902 108.323 39.0491C107.438 37.6545 107.438 36.6403 108.449 34.9921C108.955 34.2314 109.207 33.851 109.84 33.4707C110.851 32.71 112.873 32.0761 113.758 32.0761C115.149 32.2028 116.16 32.8368 116.918 34.1046C117.171 34.4849 117.298 34.9921 117.424 34.9921C117.424 35.1189 117.424 35.7528 117.298 36.6403C117.045 37.6545 116.918 38.0349 116.665 38.542Z" fill="#B2C786"/>
<path d="M115.401 34.7385C114.643 33.5975 113.632 33.3439 111.988 33.9778C110.851 34.4849 110.345 34.8653 109.713 35.626C108.955 36.6403 108.955 37.2742 109.713 38.1617C110.851 39.5563 111.988 39.8098 113.505 39.3027C114.769 38.7956 115.401 38.0349 115.654 36.767C115.907 35.8796 115.781 35.4992 115.401 34.7385Z" fill="#83965A"/>
<path d="M92.3954 61.8701C91.7633 61.8701 90.6257 61.8701 89.2352 61.7433C88.856 61.7433 88.3503 61.7433 88.2239 61.7433C88.0975 61.7433 87.7183 61.7433 87.4655 61.7433C86.8335 61.7433 84.5581 61.8701 83.2941 62.1236C82.9148 62.2504 82.4092 62.2504 82.2828 62.2504C81.7772 62.2504 80.6395 62.504 79.7547 62.7575C79.3754 62.8843 78.8698 63.0111 78.617 63.0111C76.5945 63.3914 69.2629 65.9271 67.9988 66.8146C67.3668 67.1949 64.8387 68.7163 64.333 68.9699C63.701 69.3502 62.0577 70.7449 61.9313 70.9984C61.9313 71.1252 61.6785 71.252 61.5521 71.3788C61.4257 71.5056 61.1729 72.0127 60.92 72.393C60.4144 73.5341 60.288 74.4216 60.6672 75.309L60.92 75.943L61.5521 75.8162C61.9313 75.6894 62.5633 75.5626 63.069 75.4358C63.5746 75.309 63.9538 75.1823 64.0802 75.1823C64.0802 75.1823 64.5858 75.0555 65.2179 74.9287C65.7235 74.8019 66.3555 74.5483 66.6084 74.5483L66.9876 74.4216L66.7348 73.9144C66.4819 73.0269 66.6084 71.8859 66.9876 71.1252C67.3668 70.4913 67.6196 70.3645 68.1252 70.6181C68.5045 70.7449 68.6309 71.5056 68.5045 71.8859C68.2516 72.2663 68.2516 73.6609 68.5045 73.7876C68.6309 73.9144 70.1477 73.4073 71.2854 72.9002C71.6646 72.7734 72.6759 72.2663 73.6871 71.8859C78.3642 69.9842 78.8698 69.6038 79.6283 68.2092C80.5131 66.1807 82.662 64.6593 85.0638 64.2789C86.075 64.1521 87.9711 64.1521 88.856 64.4057C89.488 64.5325 89.488 64.5325 90.4993 64.0254C91.0049 63.7718 91.7633 63.3914 92.1426 63.1379C92.5218 63.0111 92.901 62.7575 93.1538 62.504C93.4066 62.3772 93.6594 62.1236 93.9122 62.1236C94.1651 62.1236 94.2915 61.9968 94.2915 61.9968C93.533 61.9968 92.901 61.8701 92.3954 61.8701Z" fill="#83965A"/>
<path fill-rule="evenodd" clip-rule="evenodd" d="M144.475 0C143.969 0 143.211 0.380349 141.062 1.39461C140.43 1.77496 138.787 2.40887 137.143 3.16957C136.385 3.54992 135.5 3.93027 135.121 4.18384C134.868 4.31062 133.73 4.81775 132.719 5.32488C131.708 5.83201 130.317 6.46593 129.685 6.84628C129.053 7.22662 127.916 7.73376 127.157 8.11411C126.525 8.49445 125.514 8.8748 125.135 9.12837C124.629 9.38193 123.618 9.88907 122.607 10.3962C121.722 10.9033 120.711 11.4105 120.458 11.5372C120.205 11.664 119.573 12.0444 119.067 12.1712C118.562 12.4247 117.93 12.6783 117.55 12.9319C116.666 13.439 115.022 14.3265 114.643 14.3265C114.517 14.3265 114.264 14.4532 114.264 14.4532C114.264 14.58 112.873 15.2139 110.851 16.355C110.472 16.4818 109.966 16.8621 109.587 16.9889C109.207 17.2425 108.955 17.3693 108.828 17.3693C108.828 17.3693 108.323 17.6228 107.817 17.8764C107.311 18.2567 106.427 18.7639 105.795 19.0174C105.162 19.271 104.53 19.6513 104.404 19.7781C104.151 19.9049 103.519 20.2853 103.014 20.6656C99.0949 22.9477 96.1876 24.8494 94.1651 26.4976L93.0274 27.3851L92.6482 29.1601C92.3954 29.9208 92.1426 31.1886 92.0162 31.8225C91.6369 33.851 91.5105 34.1046 91.1313 35.3724C89.6144 40.1902 88.4768 42.5991 86.4543 45.6418C85.5694 46.9097 83.4205 49.6989 83.1677 49.8257C83.0413 49.8257 82.7884 50.206 82.4092 50.5864C82.03 50.9667 81.6508 51.3471 81.398 51.4739C81.1452 51.6006 80.8923 51.8542 80.6395 52.1078C79.8811 52.8685 79.6283 52.7417 76.3417 51.981C74.6984 51.6006 72.8023 50.9667 71.159 50.3328C68.8837 49.4453 62.0577 46.4025 60.5408 45.5151C59.656 45.0079 58.6447 44.5008 58.2655 44.2472C57.8863 43.9937 57.3807 43.7401 57.0014 43.4865C56.7486 43.233 56.3694 43.1062 56.3694 43.1062C56.243 43.1062 53.7149 41.458 52.198 40.4437C51.8188 40.1902 51.3131 39.9366 51.1867 39.683C50.5547 39.3027 49.0378 38.1616 48.5322 37.7813C48.2794 37.6545 47.7737 37.1474 47.2681 36.8938C46.8889 36.6403 46.5097 36.2599 46.5097 36.2599C46.5097 36.1331 46.3833 36.0063 46.1304 36.0063C45.7512 35.8796 44.74 36.2599 40.3157 38.1617C39.0517 38.7956 37.282 39.4295 36.6499 39.683C35.133 40.317 34.1218 40.6973 32.8577 41.3312C32.2257 41.5848 31.3408 42.0919 30.7088 42.3455C30.0768 42.5991 29.1919 42.9794 28.6863 43.3598C28.1807 43.6133 27.4222 43.9937 27.043 44.1204C26.6638 44.2472 26.1582 44.5008 25.9053 44.6276C25.3997 45.0079 24.1356 45.5151 22.8716 46.0222C22.3659 46.2758 21.2283 46.7829 20.4698 47.1632C19.585 47.5436 18.3209 48.1775 17.6889 48.4311C17.0569 48.6846 16.0456 49.1918 15.54 49.4453C15.0343 49.6989 14.1495 50.0792 13.3911 50.4596C12.759 50.7132 11.3685 51.3471 10.4837 51.7274C9.47244 52.1078 8.58759 52.6149 8.46118 52.6149C3.53131 54.6434 1.88802 55.4041 0.750362 56.1648C-0.00807953 56.5452 -0.134486 56.9255 0.118327 57.6862C0.244734 58.3201 0.371141 58.4469 2.01443 59.9683C3.02569 60.8558 4.03694 61.7433 4.41616 61.9968C4.79538 62.2504 5.42742 62.7575 5.80664 63.1379C6.31227 63.5182 6.9443 64.0254 7.32352 64.4057C7.57634 64.6593 8.33478 65.2932 8.84041 65.6735C9.34603 66.0539 9.97807 66.561 10.3573 66.8146C10.7365 67.0681 11.6214 67.7021 12.2534 68.0824C15.0343 69.9842 18.7001 71.8859 26.0317 74.9287C27.2958 75.4358 30.2032 76.4501 31.9729 77.084C32.6049 77.2108 33.3633 77.4644 33.7426 77.5911C34.6274 77.8447 36.7763 78.4786 39.8101 79.2393C40.5685 79.3661 41.7062 79.6197 42.2118 79.7464C42.4646 79.7464 42.8439 79.8732 43.0967 79.8732C44.9928 80.2536 51.9452 80 53.462 79.4929C53.7149 79.3661 54.0941 79.3661 54.4733 79.3661C54.8525 79.3661 55.3581 79.2393 55.7374 79.1125C56.1166 78.9857 57.1278 78.7322 57.8863 78.6054C58.6447 78.4786 59.656 78.225 60.1616 77.9715C60.6672 77.8447 61.9313 77.4644 62.8162 77.2108C65.8499 76.4501 69.3893 75.309 72.6759 73.9144C73.6872 73.5341 75.0776 72.9002 75.7097 72.6466C76.4681 72.393 77.6058 71.7591 78.4906 71.5056C79.2491 71.1252 80.5131 70.6181 81.398 70.2377C82.2828 69.8574 83.1677 69.477 83.2941 69.3502C83.5469 69.2235 84.1789 68.8431 84.9374 68.4628C86.8335 67.5753 87.5919 67.1949 88.9824 66.4342C89.6144 66.0539 90.6257 65.5468 91.2577 65.2932C91.8897 65.0396 92.7746 64.5325 93.4066 64.1521C94.0387 63.7718 94.9235 63.2647 95.4291 63.0111C95.9348 62.7575 96.5668 62.3772 96.946 62.2504C97.1988 62.1236 98.0837 61.6165 98.8421 61.1094C101.244 59.7147 101.623 59.588 102.508 58.954C103.014 58.7005 103.519 58.3201 103.519 58.3201C103.646 58.3201 104.404 57.813 105.162 57.3059C105.795 56.7987 106.679 56.2916 107.438 55.9113C107.817 55.6577 108.449 55.4041 108.828 55.1506C109.207 54.897 109.84 54.3899 110.472 54.1363C110.977 53.8827 111.483 53.5024 111.483 53.3756C111.483 53.2488 111.988 52.9953 112.368 52.8685C112.873 52.6149 113.253 52.3613 113.253 52.3613C113.253 52.2346 113.505 52.1078 113.758 52.1078C114.011 52.1078 114.264 51.8542 114.517 51.7274C114.769 51.6006 115.149 51.3471 115.401 51.2203C115.654 51.0935 116.033 50.9667 116.033 50.8399C116.033 50.7132 117.045 50.0792 117.424 49.9525C117.93 49.6989 120.331 47.9239 121.343 47.0365C121.722 46.6561 122.101 46.4025 122.227 46.2758C122.48 46.149 125.135 43.9937 125.767 43.3598C126.02 43.1062 126.525 42.5991 127.031 42.0919C127.537 41.5848 127.916 41.2044 128.042 41.2044C128.169 41.2044 128.548 40.6973 128.801 40.317C129.18 39.9366 129.433 39.5563 129.559 39.4295C129.685 39.4295 129.812 39.1759 129.938 39.0491C130.065 38.7956 130.317 38.4152 130.697 38.0349C131.076 37.6545 131.455 37.1474 131.708 36.8938C131.834 36.6403 132.466 35.8796 133.098 35.1189C133.604 34.3582 134.236 33.5975 134.362 33.4707C134.995 32.5832 135.5 31.8225 136.511 30.1743C137.143 29.1601 137.902 28.019 138.155 27.5119C138.787 26.4976 141.82 19.7781 142.579 17.7496C143.211 15.9746 143.337 15.4675 143.59 14.3265C143.717 13.9461 143.843 13.5658 143.843 13.5658C143.843 13.5658 143.969 13.3122 143.969 13.0586C143.969 12.8051 144.096 12.1712 144.222 11.7908C145.107 8.74802 145.613 5.70523 145.613 4.31062C145.613 4.05705 145.613 3.42314 145.613 3.04279C145.613 2.40888 145.486 1.39461 145.233 0.507132C145.486 0.126783 144.981 0 144.475 0ZM144.222 2.15531C144.222 2.28209 144.349 2.28209 144.475 2.28209C144.601 2.28209 144.601 2.66244 144.475 3.29636C144.349 3.93027 144.349 4.4374 144.349 4.69097C144.349 5.1981 143.843 7.86054 143.464 9.25515C142.705 12.0444 142.453 13.1854 142.073 14.0729C141.947 14.58 141.694 15.2139 141.694 15.4675C141.441 16.7353 138.155 24.4691 137.143 26.1173C136.891 26.4976 136.385 27.2583 136.132 27.7655C135.879 28.2726 135.5 28.7797 135.374 28.9065C135.247 29.0333 135.121 29.2868 134.995 29.5404C134.868 29.794 134.489 30.3011 134.236 30.8082C133.983 31.1886 133.478 31.9493 133.098 32.3296C131.708 34.4849 129.18 37.6545 128.421 38.4152C128.169 38.6688 127.916 39.0491 127.663 39.3027C127.537 39.5563 127.157 39.9366 126.778 40.317C126.399 40.5705 126.02 41.0777 125.767 41.3312C124.882 42.2187 122.354 44.374 121.216 45.0079C120.584 45.3883 120.205 45.5151 120.711 45.2615C121.216 44.8811 121.975 44.1204 122.101 43.9937C122.101 43.9937 122.354 43.7401 122.48 43.6133C125.135 41.3312 127.789 37.9081 131.455 32.0761C132.214 30.8082 133.098 29.5404 133.351 29.1601C133.604 28.7797 133.857 28.2726 133.857 28.2726C133.857 28.1458 134.236 27.5119 134.615 26.878C135.5 25.4834 138.281 19.0174 139.04 16.8621C140.051 13.8193 140.936 9.76228 140.809 9.00159C140.809 8.8748 140.683 8.36767 140.556 7.98732C140.43 7.35341 140.304 7.22662 139.924 7.09984C139.545 6.97306 139.292 6.97306 138.534 7.22662C138.028 7.48019 137.523 7.73376 137.27 7.86054C137.017 7.98732 136.511 8.24089 136.132 8.49445C135.627 8.62124 134.742 9.12837 134.11 9.50872C133.478 9.88907 132.593 10.2694 132.214 10.523C130.57 11.2837 129.559 11.664 129.433 11.9176C129.306 12.0444 128.927 12.1712 128.548 12.4247C128.169 12.5515 127.663 12.9319 127.41 13.0586C127.157 13.1854 126.272 13.6926 125.64 14.0729C124.882 14.4533 123.997 14.9604 123.491 15.2139C122.986 15.4675 122.354 15.8479 121.975 16.1014C121.595 16.355 120.963 16.6086 120.711 16.8621C120.331 16.9889 119.826 17.3693 119.446 17.496C118.056 18.2567 116.918 18.8907 116.033 19.3978C115.275 19.9049 113.253 21.046 111.609 21.9334C111.356 22.0602 110.724 22.4406 109.966 22.8209C109.334 23.2013 108.449 23.5816 108.196 23.8352C107.817 24.0887 107.059 24.4691 106.427 24.8494C105.795 25.2298 104.657 25.8637 103.898 26.3708C103.14 26.878 102.255 27.3851 102.002 27.5119C101.749 27.6387 100.865 28.1458 100.106 28.5262C99.3478 29.0333 98.4629 29.4136 98.3365 29.5404C98.2101 29.6672 97.9573 29.794 97.8309 29.9208C97.5781 29.0333 97.3253 29.1601 97.1988 29.1601C96.946 29.1601 96.8196 29.2868 96.5668 30.0475C96.0612 31.0618 95.4291 33.3439 95.1763 34.4849C94.7971 36.1331 94.1651 38.0349 93.1538 40.317C91.7633 43.3597 90.8785 45.0079 90.3729 46.0222C90.12 46.4025 89.7408 46.9097 89.7408 47.0365C88.7296 48.6846 86.7071 50.9667 85.1902 52.4881C84.0525 53.2488 83.7997 53.3756 83.4205 53.2488C83.1677 53.2488 82.7885 53.122 82.5356 53.122C82.2828 53.122 82.1564 52.9952 82.03 52.9952C82.03 52.9952 82.2828 52.7417 82.662 52.4881C84.1789 51.4739 85.5694 49.9525 87.7183 46.7829C88.4768 45.7686 89.3616 44.2472 90.1201 42.8526C91.1313 40.9509 93.4066 34.1046 93.6594 32.5832C93.7859 31.5689 93.9123 30.8082 94.0387 30.0475C94.1651 29.6672 94.1651 29.1601 94.1651 29.0333C94.1651 28.7797 94.4179 28.5262 95.3027 27.8922C95.9348 27.3851 96.5668 27.0048 96.6932 26.878C96.8196 26.7512 97.0724 26.6244 97.3252 26.4976C97.4517 26.3708 98.2101 25.8637 98.9685 25.4834C99.727 24.9762 100.359 24.5959 100.359 24.5959C100.359 24.4691 100.865 24.2155 102.634 23.3281C103.14 23.0745 103.772 22.6941 104.025 22.4406C104.53 22.0602 106.806 20.7924 107.438 20.5388C107.691 20.412 108.07 20.1585 108.196 20.0317C108.449 19.9049 109.081 19.3978 109.84 19.1442C111.483 18.2567 111.862 18.13 112.873 17.6228C113.379 17.3693 114.011 16.9889 114.39 16.8621C115.781 16.2282 117.171 15.4675 118.435 14.8336C119.067 14.4532 120.078 13.9461 120.711 13.6926C121.216 13.439 121.975 13.0586 122.227 12.9319C122.48 12.8051 123.112 12.4247 123.491 12.2979C123.871 12.0444 124.756 11.664 125.514 11.2837C126.272 10.9033 127.41 10.3962 128.042 10.0158C128.801 9.6355 129.306 9.38193 129.433 9.25515C129.433 9.12837 129.559 9.12837 129.685 9.12837C129.812 9.12837 130.191 9.00159 130.444 8.74802C131.202 8.24089 132.214 7.73376 135.121 6.33914C135.627 6.08558 136.891 5.57845 137.649 5.1981C138.534 4.81775 139.672 4.31062 140.051 4.05705C141.315 3.42314 141.82 3.29636 142.832 2.66244C143.969 1.90174 144.222 1.90174 144.222 2.15531ZM139.292 9.50872C139.292 10.0158 139.292 10.3962 139.292 10.523C139.292 10.6498 139.166 11.2837 138.913 11.9176C138.66 12.5515 138.408 13.5658 138.281 13.9461C137.649 16.2282 134.742 23.0745 133.478 25.2298C133.351 25.4834 132.846 26.3708 132.466 27.1315C130.697 30.1743 128.295 33.9778 127.284 35.3724C127.031 35.626 126.652 36.2599 126.272 36.767C125.893 37.2742 125.388 37.9081 125.135 38.2884C124.882 38.6688 124.376 39.1759 124.124 39.5563C123.871 39.9366 123.491 40.317 123.365 40.317C122.48 41.0777 121.343 42.2187 120.963 42.599C120.584 42.9794 118.688 44.7544 117.677 45.5151C116.539 46.4025 115.528 47.1632 115.022 47.4168C112.873 48.8114 111.862 49.4453 111.23 49.8257C109.966 50.4596 107.311 51.2203 103.14 52.1078C101.37 52.4881 97.1988 53.122 96.8196 53.122C96.6932 53.122 96.4404 53.122 96.314 53.122C95.9348 53.2488 90.8785 53.5024 89.9936 53.3756C89.2352 53.3756 88.9824 53.3756 87.7183 53.3756C86.7071 53.3756 85.9486 53.2488 86.075 53.122C86.3278 52.9953 87.9711 51.3471 88.0975 51.0935C88.0975 50.9667 88.4768 50.5864 88.7296 50.3328C89.1088 49.9525 89.488 49.4453 89.7408 49.065C89.9936 48.6846 90.4993 47.9239 90.8785 47.4168C91.3841 46.7829 92.0162 45.6418 92.5218 44.7544C93.6594 42.4723 95.682 38.0349 95.9348 36.767C96.0612 36.2599 96.314 35.2456 96.5668 34.4849C96.8196 33.3439 97.3252 31.6957 97.4517 30.6815C97.4517 30.4279 97.8309 30.0475 99.727 29.0333C100.865 28.3994 102.129 27.6387 102.382 27.5119C102.634 27.3851 103.266 27.0048 103.898 26.6244C104.404 26.2441 105.162 25.8637 105.415 25.7369C105.668 25.6101 106.3 25.2298 106.806 24.9762C108.955 23.8352 110.598 22.9477 110.977 22.6941C111.483 22.5674 112.368 21.9334 112.873 21.6799C113.758 21.046 116.16 19.7781 116.413 19.6513C116.666 19.5246 117.045 19.3978 117.298 19.1442C117.55 18.8907 118.435 18.5103 119.067 18.13C119.699 17.7496 120.584 17.2425 121.09 16.9889C121.595 16.7353 122.48 16.2282 123.112 15.8479C123.744 15.4675 124.503 15.0872 124.882 14.8336C125.135 14.7068 125.767 14.3265 126.272 14.0729C126.778 13.8193 127.284 13.5658 127.41 13.439C127.537 13.3122 127.916 13.1854 128.169 13.0586C128.421 12.9319 128.674 12.8051 128.674 12.8051C128.674 12.8051 129.053 12.5515 129.306 12.4247C129.685 12.2979 130.191 12.0444 130.57 11.7908C130.949 11.5372 131.455 11.2837 131.834 11.1569C133.351 10.523 138.407 7.86054 138.787 7.73376C139.292 8.24089 139.292 8.36767 139.292 9.50872ZM109.966 52.6149C109.84 52.7417 109.587 52.8685 109.334 52.9952C109.081 53.122 108.575 53.3756 108.196 53.6292C106.3 54.7702 105.921 55.0238 105.289 55.0238C104.91 55.0238 104.025 55.2773 103.14 55.6577C100.612 56.4184 99.0949 56.672 97.3252 56.7987C96.8196 56.7987 96.1876 56.9255 95.8084 56.9255C95.5556 56.9255 95.3027 57.0523 95.1763 57.0523C95.1763 57.0523 94.1651 57.0523 92.901 57.0523C89.7408 57.0523 89.488 57.0523 89.2352 57.0523C89.1088 57.0523 88.9824 57.0523 88.7296 57.0523C88.6032 57.0523 88.0975 57.0523 87.5919 57.0523C87.2127 57.0523 86.5807 56.9255 86.3279 56.9255C85.5694 56.9255 83.4205 56.7987 82.5356 56.5452C82.03 56.4184 81.398 56.4184 81.1452 56.4184C80.8923 56.4184 80.2603 56.2916 79.7547 56.2916C79.2491 56.1648 78.617 56.1648 78.3642 56.038C77.8586 55.9113 77.1001 55.7845 75.4568 55.4041C74.3192 55.1506 72.1703 54.3899 70.4006 53.756C69.7685 53.5024 69.2629 53.3756 69.1365 53.3756C68.8837 53.3756 60.0352 49.4453 58.7711 48.5578C57.3807 47.7971 56.1166 47.0365 53.5885 45.2615C52.83 44.7544 52.0716 44.374 51.9452 44.2472C51.6923 44.1204 49.9227 43.1062 49.5434 42.7258C49.417 42.5991 48.9114 42.3455 48.5322 42.0919L48.0265 41.8384L46.3833 42.2187C45.4984 42.4723 44.4872 42.599 44.2343 42.599C43.4759 42.7258 41.959 42.4723 40.6949 42.2187C39.5573 41.9651 39.1781 41.9651 39.0517 42.2187C39.0517 42.3455 38.6724 42.4723 38.2932 42.599C37.5348 42.8526 37.1556 43.1062 33.7426 44.7544C32.9841 45.1347 31.4672 45.7686 30.456 46.2758C29.4447 46.7829 28.0543 47.4168 27.2958 47.7972C26.5374 48.1775 25.6525 48.5578 25.2733 48.8114C24.8941 48.9382 24.262 49.3185 23.7564 49.5721C23.3772 49.8257 22.8716 49.9525 22.8716 49.9525C22.8716 49.9525 22.1131 50.3328 21.3547 50.5864C20.5962 50.9667 19.4586 51.4739 18.7001 51.7274C18.0681 51.981 16.9304 52.4881 16.2984 52.7417C15.6664 52.9952 15.0343 53.3756 14.7815 53.3756C14.5287 53.5024 13.6439 53.8827 12.6326 54.2631C11.6214 54.6434 10.6101 55.1506 10.3573 55.2773C10.1045 55.4041 9.85166 55.5309 9.72525 55.6577C9.72525 55.7845 9.72525 56.1648 9.97807 56.5452C10.1045 56.9255 10.2309 57.5594 10.3573 57.813C10.3573 58.4469 10.3573 58.5737 9.85166 59.588C9.47244 60.2219 9.21963 60.8558 9.21963 60.9826C9.34603 61.3629 10.1045 61.9968 11.1157 62.7575C12.6326 63.7718 15.0343 65.2932 16.0456 65.9271C16.5512 66.1807 17.1833 66.561 17.3097 66.6878C19.9642 68.336 25.5261 70.9984 28.4335 72.1395C30.0768 72.6466 33.1105 73.7876 34.3746 74.2948C34.8802 74.5483 35.7651 74.8019 36.2707 75.0555C37.7876 75.5626 38.7988 75.9429 39.4309 76.0697C39.6837 76.0697 40.3157 76.3233 40.6949 76.4501C41.8326 76.8304 43.8551 77.3376 45.1192 77.5911C47.1417 77.9715 46.5097 78.225 43.8551 77.8447C42.7175 77.7179 41.0742 77.4643 39.5573 77.084C39.0517 76.9572 38.546 76.8304 38.2932 76.8304C38.0404 76.8304 37.5348 76.7036 37.1556 76.4501C36.1443 76.0697 33.3633 75.309 33.1105 75.1823C32.8577 75.1823 28.9391 73.6609 26.2846 72.7734C23.7564 71.7591 18.8266 69.477 15.6664 67.7021C14.9079 67.1949 12.5062 65.8003 12.5062 65.6735C12.5062 65.5468 11.8742 65.1664 11.2421 64.7861C10.6101 64.4057 9.85166 63.7718 9.47244 63.5182C9.21963 63.2647 8.714 63.0111 8.46118 62.7575C8.20837 62.6308 7.82915 62.2504 7.57634 61.9968C7.32352 61.7433 6.56508 61.1094 5.80664 60.4754C5.1746 60.3487 4.28974 59.588 3.78411 59.2076C3.40489 58.8273 2.77286 58.4469 2.52004 58.1934C2.14082 57.9398 1.88801 57.6862 2.01442 57.6862C2.01442 57.5594 4.92178 56.1648 5.17459 56.1648C5.301 56.1648 5.68022 56.038 6.05944 55.7845C6.43866 55.6577 7.44993 55.1506 8.33478 54.7702C9.21963 54.3899 10.6101 53.8827 11.2421 53.5024C11.8742 53.2488 13.0118 52.7417 13.5175 52.4881C15.54 51.6006 17.1833 50.9667 18.7001 50.206C19.585 49.8257 20.7227 49.1918 21.2283 48.9382C21.8603 48.6846 22.8716 48.1775 23.63 47.7972C24.3885 47.4168 25.6525 46.7829 26.411 46.5293C27.8014 45.8954 30.8352 44.374 32.7313 43.4865C33.3633 43.233 34.2482 42.8526 34.6274 42.599C35.133 42.4723 35.7651 42.0919 36.1443 41.9651C37.0291 41.5848 42.8439 38.9223 43.4759 38.6688C43.7287 38.542 44.2343 38.2884 44.74 38.1617C45.2456 37.9081 45.6248 37.7813 45.6248 37.9081C45.7512 37.9081 45.8776 38.1617 46.1304 38.2884C46.3833 38.4152 46.7625 38.7956 47.0153 38.9223C47.6473 39.4295 50.4283 41.3312 50.8075 41.5848C51.0603 41.7116 51.4395 41.9651 51.8188 42.2187C52.198 42.4723 52.7036 42.7258 52.83 42.8526C52.9564 42.9794 53.5885 43.3597 54.0941 43.7401C54.5997 43.9937 55.611 44.6276 56.243 45.0079C56.875 45.3883 57.5071 45.7686 57.7599 45.8954C58.0127 46.0222 58.8975 46.4025 59.656 46.9097C61.4257 47.9239 66.7348 50.3328 69.6421 51.4739C73.5607 52.9952 75.8361 53.6292 80.2603 54.5166C83.4205 55.1506 86.7071 55.4041 88.856 55.4041C89.6144 55.4041 90.2465 55.4041 90.2465 55.4041C90.3729 55.4041 90.6257 55.4041 90.8785 55.4041C92.1426 55.2773 93.7859 55.2773 94.0387 55.2773C94.9235 55.2773 101.37 54.5166 101.497 54.3899C101.497 54.3899 102.002 54.2631 102.634 54.1363C104.278 53.8827 108.323 52.8685 109.46 52.4881C110.092 52.4881 110.219 52.4881 109.966 52.6149ZM99.4742 58.954C98.8421 59.3344 97.8309 59.9683 97.0724 60.3487C95.682 61.1094 95.8084 61.1094 93.533 60.6022C93.1538 60.4754 92.269 60.3487 91.5105 60.3487C90.7521 60.3487 89.8672 60.2219 89.6144 60.2219C88.6032 60.0951 86.3279 60.0951 85.6958 60.2219C83.2941 60.6022 80.6395 60.9826 79.3755 61.3629C78.8698 61.4897 78.4906 61.6165 78.3642 61.6165C78.3642 61.6165 77.8586 61.7433 77.353 61.8701C76.8473 61.9968 75.9625 62.2504 75.3304 62.504C71.2854 63.645 66.8612 65.5468 64.0802 67.1949C63.8274 67.3217 63.4482 67.5753 63.1954 67.7021C62.6897 67.9556 60.7936 69.6038 60.1616 70.2377C59.4032 71.1252 58.6447 72.6466 58.5183 73.6609C58.3919 74.6751 58.3919 75.0555 58.7711 76.0697L59.024 76.7037L58.6447 76.8304C54.4733 77.8447 53.9677 77.8447 52.83 77.5911C52.3244 77.4644 51.5659 77.3376 51.0603 77.3376C50.0491 77.2108 48.785 77.084 48.0265 76.9572C42.8439 75.8162 39.6837 74.9287 35.5123 73.4073C33.869 72.7734 31.8465 72.0127 31.088 71.7591C26.5374 70.1109 20.0906 67.1949 18.1945 65.9271C17.6889 65.5468 16.804 64.9128 16.2984 64.6593C15.7928 64.2789 14.9079 63.7718 14.2759 63.3914C13.6439 63.0111 12.759 62.3772 12.127 61.9968L10.9893 61.2361L11.3685 60.729C12.127 59.7147 12.3798 58.3201 12.0006 57.3059L11.7478 56.5452L13.3911 55.9113C14.2759 55.5309 15.6664 55.0238 16.4248 54.6434C17.1833 54.2631 18.4473 53.6292 19.3322 53.3756C20.7227 52.7417 21.2283 52.6149 23.63 51.4739C24.2621 51.2203 25.2733 50.7132 26.0317 50.3328C26.7902 49.9525 28.1807 49.3185 29.0655 48.8114C30.0768 48.3043 31.4672 47.6704 32.2257 47.29C32.9841 46.9097 34.1218 46.4025 34.6274 46.149C35.133 45.8954 35.7651 45.6418 36.0179 45.5151C36.2707 45.3883 37.1556 44.8811 37.914 44.5008C38.7988 44.1204 39.5573 43.6133 39.6837 43.4865C39.9365 43.3597 40.0629 43.3598 40.8214 43.6133C41.327 43.7401 42.0854 43.9937 42.4646 43.9937C42.8439 44.1204 43.3495 44.1204 43.3495 44.2472C43.7287 44.374 45.372 44.1204 46.6361 43.7401L47.7737 43.3598L48.2794 43.7401C49.5434 44.6276 51.8188 46.0222 52.3244 46.2758C52.7036 46.4025 52.9564 46.6561 52.9564 46.6561C52.9564 46.7829 53.2092 46.9097 53.462 47.0365C53.7149 47.1632 54.5997 47.6704 55.3581 48.1775C57.8863 49.8257 60.0352 50.9667 64.8387 52.9952C67.3668 54.0095 69.7685 55.0238 70.1478 55.2773C72.2967 56.038 74.572 56.9255 74.6984 56.7987C74.8248 56.7987 75.5833 56.9255 76.5945 57.1791C78.8698 57.6862 82.5356 58.1933 85.5694 58.4469C86.3278 58.4469 87.7183 58.5737 88.4768 58.7005C89.2352 58.7005 90.12 58.8273 90.4993 58.7005C90.7521 58.7005 91.1313 58.7005 91.1313 58.7005C91.2577 58.7005 94.9235 58.7005 95.682 58.5737C95.9348 58.5737 96.8196 58.4469 97.4517 58.4469C98.0837 58.4469 99.095 58.3201 99.6006 58.1934C100.106 58.0666 100.612 58.0666 100.612 58.0666C100.485 58.3201 100.106 58.5737 99.4742 58.954ZM93.4066 62.3772C93.1538 62.3772 92.901 62.6308 92.6482 62.7575C92.3954 62.8843 92.0162 63.1379 91.6369 63.3914C91.2577 63.5182 90.6257 63.8986 89.9936 64.2789C89.1088 64.6593 88.9824 64.6593 88.4768 64.5325C87.7183 64.2789 85.6958 64.1521 84.6846 64.4057C82.2828 64.7861 80.2603 66.3075 79.2491 68.336C78.617 69.7306 77.985 70.1109 73.3079 72.0127C72.2967 72.393 71.2854 72.9002 70.9062 73.0269C69.7685 73.5341 68.2517 74.0412 68.1253 73.9144C67.9988 73.7876 67.9988 72.5198 68.1253 72.0127C68.2517 71.6323 68.1252 70.8716 67.746 70.7449C67.2404 70.4913 66.9876 70.6181 66.6084 71.252C66.1027 72.0127 65.9763 73.1537 66.3556 74.0412L66.6084 74.5483L66.2291 74.6751C65.9763 74.6751 65.3443 74.9287 64.8387 75.0555C64.333 75.309 63.8274 75.4358 63.701 75.309C63.701 75.309 63.1954 75.4358 62.6897 75.5626C62.1841 75.6894 61.5521 75.943 61.1729 75.943L60.7936 76.0697L60.5408 75.4358C60.1616 74.4216 60.288 73.5341 60.7936 72.5198C61.0465 72.0127 61.2993 71.5056 61.4257 71.5056C61.5521 71.3788 61.6785 71.252 61.8049 71.1252C61.9313 70.8716 63.701 69.477 64.2066 69.0967C64.7123 68.8431 67.3668 67.3217 67.8724 66.9414C69.1365 66.1807 76.4681 63.5182 78.4906 63.1379C78.617 63.1379 79.1227 63.0111 79.6283 62.8843C80.3867 62.6307 81.6508 62.504 82.1564 62.3772C82.2828 62.3772 82.7885 62.2504 83.1677 62.2504C84.4317 61.9968 86.7071 61.7433 87.3391 61.8701C87.7183 61.8701 88.0975 61.8701 88.0975 61.8701C88.2239 61.8701 88.6032 61.8701 89.1088 61.8701C90.4993 61.9968 91.6369 61.9968 92.269 61.9968C92.901 61.9968 93.533 62.1236 93.6594 62.2504C93.6594 62.2504 93.533 62.2504 93.4066 62.3772ZM85.5694 66.3074C85.0638 66.561 84.4317 66.8146 84.3053 66.9414C84.1789 67.0682 83.5469 67.3217 83.1677 67.5753C82.662 67.8288 82.03 68.2092 81.7772 68.336C80.6395 68.9699 80.8923 68.336 82.1564 67.0682C82.9148 66.4342 84.5581 65.8003 85.5694 65.8003C86.5806 65.8003 86.5806 65.9271 85.5694 66.3074Z" fill="#0F0B0D"/>
<path fill-rule="evenodd" clip-rule="evenodd" d="M113.632 31.9493C112.747 31.9493 110.851 32.5832 109.713 33.3439C109.207 33.7242 108.828 34.1046 108.323 34.8653C107.311 36.5135 107.185 37.5277 108.196 38.9223C108.955 40.0634 109.207 40.317 110.219 40.6973C111.736 41.3312 112.873 41.3312 114.39 40.5705C115.275 40.1902 115.907 39.5563 116.539 38.4152C116.792 37.9081 116.918 37.5277 117.045 36.3867C117.171 35.626 117.171 34.8653 117.171 34.7385C117.171 34.6117 116.918 34.2314 116.666 33.851C116.16 32.71 115.022 31.9493 113.632 31.9493ZM115.401 34.7385C115.781 35.4992 115.907 35.8796 115.654 36.767C115.401 38.0349 114.769 38.7956 113.505 39.3027C111.862 39.9366 110.851 39.5563 109.713 38.1617C108.955 37.2742 108.955 36.6403 109.713 35.626C110.345 34.8653 110.851 34.4849 111.988 33.9778C113.505 33.3439 114.643 33.5975 115.401 34.7385Z" fill="#0F0B0D"/>
<path fill-rule="evenodd" clip-rule="evenodd" d="M44.74 55.4041C44.1079 55.2773 43.2231 55.4041 42.8439 55.4041C41.8326 55.6577 40.6949 56.4184 39.9365 57.3059C39.4309 57.9398 39.4309 58.0666 39.3045 58.954C39.0516 60.3487 39.3045 61.1094 40.0629 62.1236C40.6949 62.8843 40.8213 62.8843 41.8326 63.2647C42.4646 63.5182 43.0967 63.645 43.3495 63.645C43.6023 63.645 43.9815 63.645 43.9815 63.645C44.2343 63.7718 45.8776 63.5182 46.5097 63.2647C46.7625 63.1379 47.5209 62.7575 48.0265 62.2504C49.2906 61.1094 49.6698 60.2219 49.2906 58.8273C49.0378 57.9398 48.1529 56.9255 47.1417 56.1648C46.004 55.5309 46.004 55.5309 44.74 55.4041ZM47.1417 58.0666C47.6473 58.5737 47.9001 59.4612 47.9001 60.0951C47.7737 60.8558 46.1304 61.9968 44.8664 61.9968C42.8439 62.2504 41.4534 61.87 40.8213 60.9826C40.3157 60.3487 40.3157 59.7147 40.6949 58.8273C40.9478 58.1933 41.0742 58.0666 41.8326 57.5594C42.8439 56.9255 43.4759 56.7987 44.74 56.7987C45.8776 56.9255 46.3832 57.1791 47.1417 58.0666Z" fill="#0F0B0D"/>
<path fill-rule="evenodd" clip-rule="evenodd" d="M47.6473 46.0222C47.1417 46.2758 47.0153 46.7829 47.5209 47.1632C47.9001 47.6704 50.6811 49.4453 52.4508 50.4596C55.611 52.2346 55.8638 52.2345 56.243 52.1078C57.0014 51.8542 56.875 50.9667 55.9902 50.3328C55.7374 50.206 54.8525 49.6989 53.9677 49.1918C53.2092 48.6846 51.9451 47.9239 51.1867 47.5436C49.5434 46.4025 48.1529 45.7686 47.6473 46.0222Z" fill="#0F0B0D"/>
<path fill-rule="evenodd" clip-rule="evenodd" d="M39.0516 45.8954C38.7988 45.8954 37.7876 46.4025 36.7763 46.7829C35.7651 47.29 34.501 47.7972 33.869 48.0507C32.2257 48.8114 30.7088 49.4453 30.456 49.6989C30.3296 49.8257 29.8239 50.0792 29.3183 50.206C28.1807 50.7132 26.2845 51.4739 25.6525 51.8542C24.6413 52.3613 22.2395 53.3756 21.4811 53.756C18.9529 54.7702 14.2759 56.672 14.0231 56.9255C13.5174 57.3059 13.6439 57.813 14.1495 57.9398C14.7815 58.0666 16.804 57.4327 19.585 56.1648C20.4698 55.7845 21.7339 55.2773 22.4923 54.897C23.2508 54.5166 24.0092 54.2631 24.1356 54.1363C24.262 54.0095 25.3997 53.5024 26.411 52.9953C27.5486 52.4881 29.0655 51.7274 29.8239 51.3471C30.5824 50.9667 31.4672 50.5864 31.9729 50.3328C32.8577 49.9525 34.6274 49.065 35.6387 48.5578C36.0179 48.4311 37.0291 47.7972 37.914 47.4168C38.7988 46.9097 39.6837 46.4025 39.6837 46.2758C39.9365 46.0222 39.5573 45.7686 39.0516 45.8954Z" fill="#0F0B0D"/>
<path fill-rule="evenodd" clip-rule="evenodd" d="M69.0101 62.2504C68.7573 62.2504 68.2516 62.3772 67.9988 62.3772C67.746 62.504 67.2404 62.6308 66.9876 62.6308C66.7348 62.6308 66.482 62.7575 66.3555 62.8843C66.2291 63.0111 65.9763 63.1379 65.5971 63.2647C65.2179 63.3914 64.7123 63.645 64.4594 63.8986C64.2066 64.1521 63.8274 64.2789 63.701 64.4057C63.5746 64.4057 63.1954 64.6593 62.8162 64.9128C62.4369 65.1664 61.9313 65.5468 61.5521 65.6735C61.2993 65.8003 60.6672 66.3074 60.4144 66.6878C60.0352 67.0681 59.656 67.4485 59.4032 67.7021C58.2655 68.7163 58.1391 68.8431 58.3919 69.3502C58.5183 69.7306 59.1503 69.9842 59.5296 69.8574C59.9088 69.7306 61.1729 68.5895 61.2993 68.336C61.4257 68.0824 62.8162 66.9414 63.5746 66.4342C64.4594 65.9271 65.3443 65.42 66.3555 64.7861C66.8612 64.5325 67.3668 64.2789 67.3668 64.1521C67.3668 64.1521 67.8724 63.8986 68.5045 63.7718C69.7685 63.3914 70.2742 63.0111 70.0213 62.3772C69.8949 62.2504 69.6421 62.1236 69.0101 62.2504Z" fill="#0F0B0D"/>
<path fill-rule="evenodd" clip-rule="evenodd" d="M14.2759 60.8558C13.7703 60.8558 13.391 61.3629 13.5174 61.7433C13.6439 61.9968 14.0231 62.2504 15.7928 63.1379C18.5737 64.5325 21.4811 65.6735 21.9867 65.5468C22.4923 65.42 22.6187 64.9128 22.3659 64.4057C22.1131 64.0254 21.7339 63.8986 18.4473 62.3772C15.54 61.2361 14.6551 60.8558 14.2759 60.8558Z" fill="#0F0B0D"/>
</svg>
