<svg width="32" height="32" viewBox="0 0 32 32" fill="none" xmlns="http://www.w3.org/2000/svg">
<path d="M6.79688 26.7656C6.39688 26.7656 5.99688 26.6131 5.69188 26.3081C5.08187 25.6981 5.08187 24.7087 5.69188 24.0981L24.0987 5.69188C24.7087 5.08187 25.6981 5.08187 26.3088 5.69188C26.9188 6.30187 26.9188 7.29125 26.3088 7.90188L7.90125 26.3081C7.59625 26.6131 7.19687 26.7656 6.79688 26.7656Z" fill="white"/>
<path d="M25.2031 26.7655C24.8031 26.7655 24.4031 26.613 24.0981 26.308L5.69188 7.90114C5.08187 7.29114 5.08187 6.30177 5.69188 5.69114C6.30187 5.08114 7.29125 5.08114 7.90188 5.69114L26.3088 24.098C26.9188 24.708 26.9188 25.6974 26.3088 26.308C26.0031 26.613 25.6031 26.7655 25.2031 26.7655Z" fill="white"/>
</svg>
