<svg width="56" height="56" viewBox="0 0 56 56" fill="none" xmlns="http://www.w3.org/2000/svg">
<g clip-path="url(#clip0_123_33)">
<path d="M0 0H56V56H0V0Z" fill="#012169"/>
<path d="M6.5625 0L27.9125 21.1167L49.175 0H56V7.23333L35 28.1167L56 48.8833V56H49L28 35.1167L7.0875 56H0V49L20.9125 28.2333L0 7.46667V0H6.5625Z" fill="white"/>
<path d="M37.1 32.7833L56 51.3333V56L32.2875 32.7833H37.1ZM21 35.1167L21.525 39.2L4.725 56H0L21 35.1167ZM56 0V0.35L34.2125 22.2833L34.3875 17.15L51.625 0H56ZM0 0L20.9125 20.5333H15.6625L0 4.9V0Z" fill="#C8102E"/>
<path d="M21.0875 0V56H35.0875V0H21.0875ZM0 18.6667V37.3333H56V18.6667H0Z" fill="white"/>
<path d="M0 22.5167V33.7167H56V22.5167H0ZM23.8875 0V56H32.2875V0H23.8875Z" fill="#C8102E"/>
</g>
<defs>
<clipPath id="clip0_123_33">
<rect width="56" height="56" fill="white"/>
</clipPath>
</defs>
</svg>
