<svg width="236" height="236" viewBox="0 0 236 236" fill="none" xmlns="http://www.w3.org/2000/svg">
<path d="M1.24023 1.23999H12.3602V12.36H1.24023V1.23999Z" fill="black"/>
<path d="M12.3602 1.23999H23.4802V12.36H12.3602V1.23999Z" fill="black"/>
<path d="M23.4802 1.23999H34.6002V12.36H23.4802V1.23999Z" fill="black"/>
<path d="M34.6002 1.23999H45.7202V12.36H34.6002V1.23999Z" fill="black"/>
<path d="M45.7202 1.23999H56.8402V12.36H45.7202V1.23999Z" fill="black"/>
<path d="M56.8402 1.23999H67.9602V12.36H56.8402V1.23999Z" fill="black"/>
<path d="M67.9602 1.23999H79.0802V12.36H67.9602V1.23999Z" fill="black"/>
<path d="M101.32 1.23999H112.44V12.36H101.32V1.23999Z" fill="black"/>
<path d="M123.56 1.23999H134.68V12.36H123.56V1.23999Z" fill="black"/>
<path d="M156.92 1.23999H168.04V12.36H156.92V1.23999Z" fill="black"/>
<path d="M168.04 1.23999H179.16V12.36H168.04V1.23999Z" fill="black"/>
<path d="M179.16 1.23999H190.28V12.36H179.16V1.23999Z" fill="black"/>
<path d="M190.28 1.23999H201.4V12.36H190.28V1.23999Z" fill="black"/>
<path d="M201.4 1.23999H212.52V12.36H201.4V1.23999Z" fill="black"/>
<path d="M212.52 1.23999H223.64V12.36H212.52V1.23999Z" fill="black"/>
<path d="M223.64 1.23999H234.76V12.36H223.64V1.23999Z" fill="black"/>
<path d="M1.24023 12.36H12.3602V23.48H1.24023V12.36Z" fill="black"/>
<path d="M67.9602 12.36H79.0802V23.48H67.9602V12.36Z" fill="black"/>
<path d="M123.56 12.36H134.68V23.48H123.56V12.36Z" fill="black"/>
<path d="M134.68 12.36H145.8V23.48H134.68V12.36Z" fill="black"/>
<path d="M156.92 12.36H168.04V23.48H156.92V12.36Z" fill="black"/>
<path d="M223.64 12.36H234.76V23.48H223.64V12.36Z" fill="black"/>
<path d="M1.24023 23.48H12.3602V34.6H1.24023V23.48Z" fill="black"/>
<path d="M23.4802 23.48H34.6002V34.6H23.4802V23.48Z" fill="black"/>
<path d="M34.6002 23.48H45.7202V34.6H34.6002V23.48Z" fill="black"/>
<path d="M45.7202 23.48H56.8402V34.6H45.7202V23.48Z" fill="black"/>
<path d="M67.9602 23.48H79.0802V34.6H67.9602V23.48Z" fill="black"/>
<path d="M90.2002 23.48H101.32V34.6H90.2002V23.48Z" fill="black"/>
<path d="M101.32 23.48H112.44V34.6H101.32V23.48Z" fill="black"/>
<path d="M112.44 23.48H123.56V34.6H112.44V23.48Z" fill="black"/>
<path d="M134.68 23.48H145.8V34.6H134.68V23.48Z" fill="black"/>
<path d="M156.92 23.48H168.04V34.6H156.92V23.48Z" fill="black"/>
<path d="M179.16 23.48H190.28V34.6H179.16V23.48Z" fill="black"/>
<path d="M190.28 23.48H201.4V34.6H190.28V23.48Z" fill="black"/>
<path d="M201.4 23.48H212.52V34.6H201.4V23.48Z" fill="black"/>
<path d="M223.64 23.48H234.76V34.6H223.64V23.48Z" fill="black"/>
<path d="M1.24023 34.6H12.3602V45.72H1.24023V34.6Z" fill="black"/>
<path d="M23.4802 34.6H34.6002V45.72H23.4802V34.6Z" fill="black"/>
<path d="M34.6002 34.6H45.7202V45.72H34.6002V34.6Z" fill="black"/>
<path d="M45.7202 34.6H56.8402V45.72H45.7202V34.6Z" fill="black"/>
<path d="M67.9602 34.6H79.0802V45.72H67.9602V34.6Z" fill="black"/>
<path d="M90.2002 34.6H101.32V45.72H90.2002V34.6Z" fill="black"/>
<path d="M101.32 34.6H112.44V45.72H101.32V34.6Z" fill="black"/>
<path d="M123.56 34.6H134.68V45.72H123.56V34.6Z" fill="black"/>
<path d="M156.92 34.6H168.04V45.72H156.92V34.6Z" fill="black"/>
<path d="M179.16 34.6H190.28V45.72H179.16V34.6Z" fill="black"/>
<path d="M190.28 34.6H201.4V45.72H190.28V34.6Z" fill="black"/>
<path d="M201.4 34.6H212.52V45.72H201.4V34.6Z" fill="black"/>
<path d="M223.64 34.6H234.76V45.72H223.64V34.6Z" fill="black"/>
<path d="M1.24023 45.72H12.3602V56.84H1.24023V45.72Z" fill="black"/>
<path d="M23.4802 45.72H34.6002V56.84H23.4802V45.72Z" fill="black"/>
<path d="M34.6002 45.72H45.7202V56.84H34.6002V45.72Z" fill="black"/>
<path d="M45.7202 45.72H56.8402V56.84H45.7202V45.72Z" fill="black"/>
<path d="M67.9602 45.72H79.0802V56.84H67.9602V45.72Z" fill="black"/>
<path d="M112.44 45.72H123.56V56.84H112.44V45.72Z" fill="black"/>
<path d="M123.56 45.72H134.68V56.84H123.56V45.72Z" fill="black"/>
<path d="M134.68 45.72H145.8V56.84H134.68V45.72Z" fill="black"/>
<path d="M156.92 45.72H168.04V56.84H156.92V45.72Z" fill="black"/>
<path d="M179.16 45.72H190.28V56.84H179.16V45.72Z" fill="black"/>
<path d="M190.28 45.72H201.4V56.84H190.28V45.72Z" fill="black"/>
<path d="M201.4 45.72H212.52V56.84H201.4V45.72Z" fill="black"/>
<path d="M223.64 45.72H234.76V56.84H223.64V45.72Z" fill="black"/>
<path d="M1.24023 56.84H12.3602V67.96H1.24023V56.84Z" fill="black"/>
<path d="M67.9602 56.84H79.0802V67.96H67.9602V56.84Z" fill="black"/>
<path d="M112.44 56.84H123.56V67.96H112.44V56.84Z" fill="black"/>
<path d="M123.56 56.84H134.68V67.96H123.56V56.84Z" fill="black"/>
<path d="M134.68 56.84H145.8V67.96H134.68V56.84Z" fill="black"/>
<path d="M156.92 56.84H168.04V67.96H156.92V56.84Z" fill="black"/>
<path d="M223.64 56.84H234.76V67.96H223.64V56.84Z" fill="black"/>
<path d="M1.24023 67.96H12.3602V79.08H1.24023V67.96Z" fill="black"/>
<path d="M12.3602 67.96H23.4802V79.08H12.3602V67.96Z" fill="black"/>
<path d="M23.4802 67.96H34.6002V79.08H23.4802V67.96Z" fill="black"/>
<path d="M34.6002 67.96H45.7202V79.08H34.6002V67.96Z" fill="black"/>
<path d="M45.7202 67.96H56.8402V79.08H45.7202V67.96Z" fill="black"/>
<path d="M56.8402 67.96H67.9602V79.08H56.8402V67.96Z" fill="black"/>
<path d="M67.9602 67.96H79.0802V79.08H67.9602V67.96Z" fill="black"/>
<path d="M90.2002 67.96H101.32V79.08H90.2002V67.96Z" fill="black"/>
<path d="M112.44 67.96H123.56V79.08H112.44V67.96Z" fill="black"/>
<path d="M134.68 67.96H145.8V79.08H134.68V67.96Z" fill="black"/>
<path d="M156.92 67.96H168.04V79.08H156.92V67.96Z" fill="black"/>
<path d="M168.04 67.96H179.16V79.08H168.04V67.96Z" fill="black"/>
<path d="M179.16 67.96H190.28V79.08H179.16V67.96Z" fill="black"/>
<path d="M190.28 67.96H201.4V79.08H190.28V67.96Z" fill="black"/>
<path d="M201.4 67.96H212.52V79.08H201.4V67.96Z" fill="black"/>
<path d="M212.52 67.96H223.64V79.08H212.52V67.96Z" fill="black"/>
<path d="M223.64 67.96H234.76V79.08H223.64V67.96Z" fill="black"/>
<path d="M112.44 79.08H123.56V90.2H112.44V79.08Z" fill="black"/>
<path d="M34.6002 90.2H45.7202V101.32H34.6002V90.2Z" fill="black"/>
<path d="M45.7202 90.2H56.8402V101.32H45.7202V90.2Z" fill="black"/>
<path d="M67.9602 90.2H79.0802V101.32H67.9602V90.2Z" fill="black"/>
<path d="M79.0802 90.2H90.2002V101.32H79.0802V90.2Z" fill="black"/>
<path d="M112.44 90.2H123.56V101.32H112.44V90.2Z" fill="black"/>
<path d="M123.56 90.2H134.68V101.32H123.56V90.2Z" fill="black"/>
<path d="M134.68 90.2H145.8V101.32H134.68V90.2Z" fill="black"/>
<path d="M190.28 90.2H201.4V101.32H190.28V90.2Z" fill="black"/>
<path d="M201.4 90.2H212.52V101.32H201.4V90.2Z" fill="black"/>
<path d="M12.3602 101.32H23.4802V112.44H12.3602V101.32Z" fill="black"/>
<path d="M23.4802 101.32H34.6002V112.44H23.4802V101.32Z" fill="black"/>
<path d="M45.7202 101.32H56.8402V112.44H45.7202V101.32Z" fill="black"/>
<path d="M79.0802 101.32H90.2002V112.44H79.0802V101.32Z" fill="black"/>
<path d="M101.32 101.32H112.44V112.44H101.32V101.32Z" fill="black"/>
<path d="M134.68 101.32H145.8V112.44H134.68V101.32Z" fill="black"/>
<path d="M156.92 101.32H168.04V112.44H156.92V101.32Z" fill="black"/>
<path d="M168.04 101.32H179.16V112.44H168.04V101.32Z" fill="black"/>
<path d="M179.16 101.32H190.28V112.44H179.16V101.32Z" fill="black"/>
<path d="M201.4 101.32H212.52V112.44H201.4V101.32Z" fill="black"/>
<path d="M212.52 101.32H223.64V112.44H212.52V101.32Z" fill="black"/>
<path d="M23.4802 112.44H34.6002V123.56H23.4802V112.44Z" fill="black"/>
<path d="M45.7202 112.44H56.8402V123.56H45.7202V112.44Z" fill="black"/>
<path d="M67.9602 112.44H79.0802V123.56H67.9602V112.44Z" fill="black"/>
<path d="M123.56 112.44H134.68V123.56H123.56V112.44Z" fill="black"/>
<path d="M145.8 112.44H156.92V123.56H145.8V112.44Z" fill="black"/>
<path d="M156.92 112.44H168.04V123.56H156.92V112.44Z" fill="black"/>
<path d="M168.04 112.44H179.16V123.56H168.04V112.44Z" fill="black"/>
<path d="M212.52 112.44H223.64V123.56H212.52V112.44Z" fill="black"/>
<path d="M223.64 112.44H234.76V123.56H223.64V112.44Z" fill="black"/>
<path d="M1.24023 123.56H12.3602V134.68H1.24023V123.56Z" fill="black"/>
<path d="M23.4802 123.56H34.6002V134.68H23.4802V123.56Z" fill="black"/>
<path d="M34.6002 123.56H45.7202V134.68H34.6002V123.56Z" fill="black"/>
<path d="M90.2002 123.56H101.32V134.68H90.2002V123.56Z" fill="black"/>
<path d="M101.32 123.56H112.44V134.68H101.32V123.56Z" fill="black"/>
<path d="M123.56 123.56H134.68V134.68H123.56V123.56Z" fill="black"/>
<path d="M145.8 123.56H156.92V134.68H145.8V123.56Z" fill="black"/>
<path d="M168.04 123.56H179.16V134.68H168.04V123.56Z" fill="black"/>
<path d="M179.16 123.56H190.28V134.68H179.16V123.56Z" fill="black"/>
<path d="M201.4 123.56H212.52V134.68H201.4V123.56Z" fill="black"/>
<path d="M212.52 123.56H223.64V134.68H212.52V123.56Z" fill="black"/>
<path d="M223.64 123.56H234.76V134.68H223.64V123.56Z" fill="black"/>
<path d="M23.4802 134.68H34.6002V145.8H23.4802V134.68Z" fill="black"/>
<path d="M67.9602 134.68H79.0802V145.8H67.9602V134.68Z" fill="black"/>
<path d="M90.2002 134.68H101.32V145.8H90.2002V134.68Z" fill="black"/>
<path d="M101.32 134.68H112.44V145.8H101.32V134.68Z" fill="black"/>
<path d="M134.68 134.68H145.8V145.8H134.68V134.68Z" fill="black"/>
<path d="M156.92 134.68H168.04V145.8H156.92V134.68Z" fill="black"/>
<path d="M168.04 134.68H179.16V145.8H168.04V134.68Z" fill="black"/>
<path d="M179.16 134.68H190.28V145.8H179.16V134.68Z" fill="black"/>
<path d="M212.52 134.68H223.64V145.8H212.52V134.68Z" fill="black"/>
<path d="M223.64 134.68H234.76V145.8H223.64V134.68Z" fill="black"/>
<path d="M90.2002 145.8H101.32V156.92H90.2002V145.8Z" fill="black"/>
<path d="M101.32 145.8H112.44V156.92H101.32V145.8Z" fill="black"/>
<path d="M112.44 145.8H123.56V156.92H112.44V145.8Z" fill="black"/>
<path d="M123.56 145.8H134.68V156.92H123.56V145.8Z" fill="black"/>
<path d="M134.68 145.8H145.8V156.92H134.68V145.8Z" fill="black"/>
<path d="M145.8 145.8H156.92V156.92H145.8V145.8Z" fill="black"/>
<path d="M156.92 145.8H168.04V156.92H156.92V145.8Z" fill="black"/>
<path d="M201.4 145.8H212.52V156.92H201.4V145.8Z" fill="black"/>
<path d="M1.24023 156.92H12.3602V168.04H1.24023V156.92Z" fill="black"/>
<path d="M12.3602 156.92H23.4802V168.04H12.3602V156.92Z" fill="black"/>
<path d="M23.4802 156.92H34.6002V168.04H23.4802V156.92Z" fill="black"/>
<path d="M34.6002 156.92H45.7202V168.04H34.6002V156.92Z" fill="black"/>
<path d="M45.7202 156.92H56.8402V168.04H45.7202V156.92Z" fill="black"/>
<path d="M56.8402 156.92H67.9602V168.04H56.8402V156.92Z" fill="black"/>
<path d="M67.9602 156.92H79.0802V168.04H67.9602V156.92Z" fill="black"/>
<path d="M90.2002 156.92H101.32V168.04H90.2002V156.92Z" fill="black"/>
<path d="M101.32 156.92H112.44V168.04H101.32V156.92Z" fill="black"/>
<path d="M145.8 156.92H156.92V168.04H145.8V156.92Z" fill="black"/>
<path d="M156.92 156.92H168.04V168.04H156.92V156.92Z" fill="black"/>
<path d="M190.28 156.92H201.4V168.04H190.28V156.92Z" fill="black"/>
<path d="M1.24023 168.04H12.3602V179.16H1.24023V168.04Z" fill="black"/>
<path d="M67.9602 168.04H79.0802V179.16H67.9602V168.04Z" fill="black"/>
<path d="M101.32 168.04H112.44V179.16H101.32V168.04Z" fill="black"/>
<path d="M112.44 168.04H123.56V179.16H112.44V168.04Z" fill="black"/>
<path d="M156.92 168.04H168.04V179.16H156.92V168.04Z" fill="black"/>
<path d="M201.4 168.04H212.52V179.16H201.4V168.04Z" fill="black"/>
<path d="M212.52 168.04H223.64V179.16H212.52V168.04Z" fill="black"/>
<path d="M1.24023 179.16H12.3602V190.28H1.24023V179.16Z" fill="black"/>
<path d="M23.4802 179.16H34.6002V190.28H23.4802V179.16Z" fill="black"/>
<path d="M34.6002 179.16H45.7202V190.28H34.6002V179.16Z" fill="black"/>
<path d="M45.7202 179.16H56.8402V190.28H45.7202V179.16Z" fill="black"/>
<path d="M67.9602 179.16H79.0802V190.28H67.9602V179.16Z" fill="black"/>
<path d="M90.2002 179.16H101.32V190.28H90.2002V179.16Z" fill="black"/>
<path d="M101.32 179.16H112.44V190.28H101.32V179.16Z" fill="black"/>
<path d="M179.16 179.16H190.28V190.28H179.16V179.16Z" fill="black"/>
<path d="M190.28 179.16H201.4V190.28H190.28V179.16Z" fill="black"/>
<path d="M201.4 179.16H212.52V190.28H201.4V179.16Z" fill="black"/>
<path d="M223.64 179.16H234.76V190.28H223.64V179.16Z" fill="black"/>
<path d="M1.24023 190.28H12.3602V201.4H1.24023V190.28Z" fill="black"/>
<path d="M23.4802 190.28H34.6002V201.4H23.4802V190.28Z" fill="black"/>
<path d="M34.6002 190.28H45.7202V201.4H34.6002V190.28Z" fill="black"/>
<path d="M45.7202 190.28H56.8402V201.4H45.7202V190.28Z" fill="black"/>
<path d="M67.9602 190.28H79.0802V201.4H67.9602V190.28Z" fill="black"/>
<path d="M90.2002 190.28H101.32V201.4H90.2002V190.28Z" fill="black"/>
<path d="M123.56 190.28H134.68V201.4H123.56V190.28Z" fill="black"/>
<path d="M134.68 190.28H145.8V201.4H134.68V190.28Z" fill="black"/>
<path d="M168.04 190.28H179.16V201.4H168.04V190.28Z" fill="black"/>
<path d="M179.16 190.28H190.28V201.4H179.16V190.28Z" fill="black"/>
<path d="M1.24023 201.4H12.3602V212.52H1.24023V201.4Z" fill="black"/>
<path d="M23.4802 201.4H34.6002V212.52H23.4802V201.4Z" fill="black"/>
<path d="M34.6002 201.4H45.7202V212.52H34.6002V201.4Z" fill="black"/>
<path d="M45.7202 201.4H56.8402V212.52H45.7202V201.4Z" fill="black"/>
<path d="M67.9602 201.4H79.0802V212.52H67.9602V201.4Z" fill="black"/>
<path d="M101.32 201.4H112.44V212.52H101.32V201.4Z" fill="black"/>
<path d="M168.04 201.4H179.16V212.52H168.04V201.4Z" fill="black"/>
<path d="M179.16 201.4H190.28V212.52H179.16V201.4Z" fill="black"/>
<path d="M190.28 201.4H201.4V212.52H190.28V201.4Z" fill="black"/>
<path d="M212.52 201.4H223.64V212.52H212.52V201.4Z" fill="black"/>
<path d="M223.64 201.4H234.76V212.52H223.64V201.4Z" fill="black"/>
<path d="M1.24023 212.52H12.3602V223.64H1.24023V212.52Z" fill="black"/>
<path d="M67.9602 212.52H79.0802V223.64H67.9602V212.52Z" fill="black"/>
<path d="M101.32 212.52H112.44V223.64H101.32V212.52Z" fill="black"/>
<path d="M112.44 212.52H123.56V223.64H112.44V212.52Z" fill="black"/>
<path d="M134.68 212.52H145.8V223.64H134.68V212.52Z" fill="black"/>
<path d="M145.8 212.52H156.92V223.64H145.8V212.52Z" fill="black"/>
<path d="M168.04 212.52H179.16V223.64H168.04V212.52Z" fill="black"/>
<path d="M190.28 212.52H201.4V223.64H190.28V212.52Z" fill="black"/>
<path d="M212.52 212.52H223.64V223.64H212.52V212.52Z" fill="black"/>
<path d="M223.64 212.52H234.76V223.64H223.64V212.52Z" fill="black"/>
<path d="M1.24023 223.64H12.3602V234.76H1.24023V223.64Z" fill="black"/>
<path d="M12.3602 223.64H23.4802V234.76H12.3602V223.64Z" fill="black"/>
<path d="M23.4802 223.64H34.6002V234.76H23.4802V223.64Z" fill="black"/>
<path d="M34.6002 223.64H45.7202V234.76H34.6002V223.64Z" fill="black"/>
<path d="M45.7202 223.64H56.8402V234.76H45.7202V223.64Z" fill="black"/>
<path d="M56.8402 223.64H67.9602V234.76H56.8402V223.64Z" fill="black"/>
<path d="M67.9602 223.64H79.0802V234.76H67.9602V223.64Z" fill="black"/>
<path d="M156.92 223.64H168.04V234.76H156.92V223.64Z" fill="black"/>
<path d="M168.04 223.64H179.16V234.76H168.04V223.64Z" fill="black"/>
<path d="M179.16 223.64H190.28V234.76H179.16V223.64Z" fill="black"/>
<path d="M201.4 223.64H212.52V234.76H201.4V223.64Z" fill="black"/>
<path d="M12.3602 1.23999H1.24023V12.36M12.3602 1.23999V12.36M12.3602 1.23999H23.4802M12.3602 12.36H1.24023M12.3602 12.36H23.4802M12.3602 12.36V23.48M1.24023 12.36V23.48M23.4802 1.23999V12.36M23.4802 1.23999H34.6002M23.4802 12.36H34.6002M34.6002 1.23999V12.36M34.6002 1.23999H45.7202M34.6002 12.36H45.7202M45.7202 1.23999V12.36M45.7202 1.23999H56.8402M45.7202 12.36H56.8402M56.8402 1.23999V12.36M56.8402 1.23999H67.9602M56.8402 12.36H67.9602M67.9602 1.23999V12.36M67.9602 1.23999H79.0802V12.36M67.9602 12.36H79.0802M67.9602 12.36V23.48M79.0802 12.36V23.48M134.68 12.36V1.23999H123.56V12.36M134.68 12.36H123.56M134.68 12.36V23.48M134.68 12.36H145.8V23.48M123.56 12.36V23.48M168.04 1.23999H156.92V12.36M168.04 1.23999V12.36M168.04 1.23999H179.16M168.04 12.36H156.92M168.04 12.36H179.16M168.04 12.36V23.48M156.92 12.36V23.48M179.16 1.23999V12.36M179.16 1.23999H190.28M179.16 12.36H190.28M190.28 1.23999V12.36M190.28 1.23999H201.4M190.28 12.36H201.4M201.4 1.23999V12.36M201.4 1.23999H212.52M201.4 12.36H212.52M212.52 1.23999V12.36M212.52 1.23999H223.64M212.52 12.36H223.64M223.64 1.23999V12.36M223.64 1.23999H234.76V12.36M223.64 12.36H234.76M223.64 12.36V23.48M234.76 12.36V23.48M12.3602 23.48H1.24023M12.3602 23.48V34.6M1.24023 23.48V34.6M79.0802 23.48H67.9602M79.0802 23.48V34.6M67.9602 23.48V34.6M134.68 23.48H123.56M134.68 23.48H145.8M134.68 23.48V34.6M123.56 23.48H112.44M123.56 23.48V34.6M145.8 23.48V34.6H134.68M168.04 23.48H156.92M168.04 23.48V34.6M156.92 23.48V34.6M234.76 23.48H223.64M234.76 23.48V34.6M223.64 23.48V34.6M12.3602 34.6H1.24023M12.3602 34.6V45.72M1.24023 34.6V45.72M34.6002 23.48H23.4802V34.6M34.6002 23.48V34.6M34.6002 23.48H45.7202M34.6002 34.6H23.4802M34.6002 34.6H45.7202M34.6002 34.6V45.72M23.4802 34.6V45.72M45.7202 23.48V34.6M45.7202 23.48H56.8402V34.6M45.7202 34.6H56.8402M45.7202 34.6V45.72M56.8402 34.6V45.72M79.0802 34.6H67.9602M79.0802 34.6V45.72M67.9602 34.6V45.72M101.32 23.48H90.2002V34.6M101.32 23.48V34.6M101.32 23.48H112.44M101.32 34.6H90.2002M101.32 34.6H112.44M101.32 34.6V45.72M90.2002 34.6V45.72H101.32M112.44 23.48V34.6M112.44 34.6H123.56M112.44 34.6V45.72M123.56 34.6H134.68M123.56 34.6V45.72M134.68 34.6V45.72M168.04 34.6H156.92M168.04 34.6V45.72M156.92 34.6V45.72M190.28 23.48H179.16V34.6M190.28 23.48V34.6M190.28 23.48H201.4M190.28 34.6H179.16M190.28 34.6H201.4M190.28 34.6V45.72M179.16 34.6V45.72M201.4 23.48V34.6M201.4 23.48H212.52V34.6M201.4 34.6H212.52M201.4 34.6V45.72M212.52 34.6V45.72M234.76 34.6H223.64M234.76 34.6V45.72M223.64 34.6V45.72M12.3602 45.72H1.24023M12.3602 45.72V56.84M1.24023 45.72V56.84M34.6002 45.72H23.4802M34.6002 45.72H45.7202M34.6002 45.72V56.84M23.4802 45.72V56.84H34.6002M45.7202 45.72H56.8402M45.7202 45.72V56.84M56.8402 45.72V56.84H45.7202M79.0802 45.72H67.9602M79.0802 45.72V56.84M67.9602 45.72V56.84M101.32 45.72H112.44M112.44 45.72H123.56M112.44 45.72V56.84M134.68 45.72H123.56M134.68 45.72V56.84M134.68 45.72H145.8V56.84M123.56 45.72V56.84M168.04 45.72H156.92M168.04 45.72V56.84M156.92 45.72V56.84M190.28 45.72H179.16M190.28 45.72H201.4M190.28 45.72V56.84M179.16 45.72V56.84H190.28M201.4 45.72H212.52M201.4 45.72V56.84M212.52 45.72V56.84H201.4M234.76 45.72H223.64M234.76 45.72V56.84M223.64 45.72V56.84M12.3602 56.84H1.24023M12.3602 56.84V67.96M1.24023 56.84V67.96M34.6002 56.84H45.7202M79.0802 56.84H67.9602M79.0802 56.84V67.96M67.9602 56.84V67.96M123.56 56.84H112.44M123.56 56.84H134.68M123.56 56.84V67.96M112.44 56.84V67.96M134.68 56.84H145.8M134.68 56.84V67.96M145.8 56.84V67.96M168.04 56.84H156.92M168.04 56.84V67.96M156.92 56.84V67.96M190.28 56.84H201.4M234.76 56.84H223.64M234.76 56.84V67.96M223.64 56.84V67.96M12.3602 67.96H1.24023M12.3602 67.96V79.08M12.3602 67.96H23.4802M1.24023 67.96V79.08H12.3602M79.0802 67.96H67.9602M79.0802 67.96V79.08H67.9602M67.9602 67.96H56.8402M67.9602 67.96V79.08M123.56 67.96H112.44M123.56 67.96H134.68M123.56 67.96V79.08M112.44 67.96V79.08M134.68 67.96H145.8M134.68 67.96V79.08H145.8V67.96M168.04 67.96H156.92M168.04 67.96V79.08M168.04 67.96H179.16M156.92 67.96V79.08H168.04M234.76 67.96H223.64M234.76 67.96V79.08H223.64M223.64 67.96H212.52M223.64 67.96V79.08M12.3602 79.08H23.4802M23.4802 67.96V79.08M23.4802 67.96H34.6002M23.4802 79.08H34.6002M34.6002 67.96V79.08M34.6002 67.96H45.7202M34.6002 79.08H45.7202M45.7202 67.96V79.08M45.7202 67.96H56.8402M45.7202 79.08H56.8402M56.8402 67.96V79.08M56.8402 79.08H67.9602M123.56 79.08H112.44M123.56 79.08V90.2M112.44 79.08V90.2M168.04 79.08H179.16M179.16 67.96V79.08M179.16 67.96H190.28M179.16 79.08H190.28M190.28 67.96V79.08M190.28 67.96H201.4M190.28 79.08H201.4M201.4 67.96V79.08M201.4 67.96H212.52M201.4 79.08H212.52M212.52 67.96V79.08M212.52 79.08H223.64M123.56 90.2H112.44M123.56 90.2V101.32M123.56 90.2H134.68M112.44 90.2V101.32M45.7202 90.2H34.6002V101.32M45.7202 90.2V101.32M45.7202 90.2H56.8402V101.32M45.7202 101.32H34.6002M45.7202 101.32H56.8402M45.7202 101.32V112.44M34.6002 101.32H23.4802M34.6002 101.32V112.44M56.8402 101.32V112.44M79.0802 90.2H67.9602V101.32H79.0802M79.0802 90.2V101.32M79.0802 90.2H90.2002V101.32M79.0802 101.32H90.2002M79.0802 101.32V112.44M90.2002 101.32V112.44H79.0802M123.56 101.32H112.44M123.56 101.32H134.68M112.44 101.32H101.32V112.44H112.44V101.32ZM134.68 90.2V101.32M134.68 90.2H145.8V101.32M134.68 101.32H145.8M134.68 101.32V112.44M145.8 101.32V112.44M201.4 90.2H190.28V101.32M201.4 90.2V101.32M201.4 90.2H212.52V101.32M201.4 101.32H190.28M201.4 101.32H212.52M201.4 101.32V112.44H212.52M190.28 101.32H179.16M190.28 101.32V112.44H179.16M212.52 101.32V112.44M212.52 101.32H223.64V112.44M23.4802 101.32H12.3602V112.44H23.4802M23.4802 101.32V112.44M23.4802 112.44H34.6002M23.4802 112.44V123.56M34.6002 112.44V123.56M56.8402 112.44H45.7202M56.8402 112.44V123.56H45.7202M45.7202 112.44V123.56M79.0802 112.44H67.9602V123.56H79.0802V112.44ZM145.8 112.44H134.68M145.8 112.44H156.92M145.8 112.44V123.56M134.68 112.44H123.56V123.56M134.68 112.44V123.56M168.04 101.32H156.92V112.44M168.04 101.32V112.44M168.04 101.32H179.16M168.04 112.44H156.92M168.04 112.44H179.16M168.04 112.44V123.56M156.92 112.44V123.56M179.16 101.32V112.44M179.16 112.44V123.56M212.52 112.44H223.64M212.52 112.44V123.56M223.64 112.44V123.56M223.64 112.44H234.76V123.56M34.6002 123.56H23.4802M34.6002 123.56V134.68M34.6002 123.56H45.7202M23.4802 123.56V134.68M45.7202 123.56V134.68H34.6002M134.68 123.56H123.56M134.68 123.56V134.68M123.56 123.56V134.68H134.68M156.92 123.56H145.8M156.92 123.56H168.04M156.92 123.56V134.68M145.8 123.56V134.68M168.04 123.56H179.16M168.04 123.56V134.68M179.16 123.56V134.68M179.16 123.56H190.28V134.68M223.64 123.56H212.52M223.64 123.56H234.76M223.64 123.56V134.68M212.52 123.56H201.4V134.68H212.52M212.52 123.56V134.68M234.76 123.56V134.68M34.6002 134.68H23.4802M34.6002 134.68V145.8H23.4802V134.68M101.32 123.56H90.2002V134.68M101.32 123.56V134.68M101.32 123.56H112.44V134.68M101.32 134.68H90.2002M101.32 134.68H112.44M101.32 134.68V145.8M90.2002 134.68V145.8M112.44 134.68V145.8M134.68 134.68H145.8M134.68 134.68V145.8M156.92 134.68H145.8M156.92 134.68H168.04M156.92 134.68V145.8M145.8 134.68V145.8M179.16 134.68H168.04M179.16 134.68H190.28M179.16 134.68V145.8M168.04 134.68V145.8M190.28 134.68V145.8H179.16M212.52 134.68H223.64M212.52 134.68V145.8M223.64 134.68H234.76M223.64 134.68V145.8M234.76 134.68V145.8H223.64M101.32 145.8H90.2002M101.32 145.8H112.44M101.32 145.8V156.92M90.2002 145.8V156.92M112.44 145.8V156.92M112.44 145.8H123.56M145.8 145.8H134.68M145.8 145.8V156.92M145.8 145.8H156.92M134.68 145.8H123.56M134.68 145.8V156.92M168.04 145.8H156.92M168.04 145.8H179.16M168.04 145.8V156.92M156.92 145.8V156.92M223.64 145.8H212.52M212.52 145.8H201.4V156.92M212.52 145.8V156.92H201.4M101.32 156.92H90.2002M101.32 156.92H112.44M101.32 156.92V168.04M90.2002 156.92V168.04H101.32M112.44 156.92H123.56M112.44 156.92V168.04M123.56 145.8V156.92M123.56 156.92H134.68M134.68 156.92H145.8M145.8 156.92H156.92M145.8 156.92V168.04H156.92M156.92 156.92H168.04M156.92 156.92V168.04M168.04 156.92V168.04M201.4 156.92H190.28V168.04H201.4M201.4 156.92V168.04M12.3602 156.92H1.24023V168.04M12.3602 156.92V168.04M12.3602 156.92H23.4802M12.3602 168.04H1.24023M12.3602 168.04H23.4802M12.3602 168.04V179.16M1.24023 168.04V179.16M23.4802 156.92V168.04M23.4802 156.92H34.6002M23.4802 168.04H34.6002M34.6002 156.92V168.04M34.6002 156.92H45.7202M34.6002 168.04H45.7202M45.7202 156.92V168.04M45.7202 156.92H56.8402M45.7202 168.04H56.8402M56.8402 156.92V168.04M56.8402 156.92H67.9602M56.8402 168.04H67.9602M67.9602 156.92V168.04M67.9602 156.92H79.0802V168.04M67.9602 168.04H79.0802M67.9602 168.04V179.16M79.0802 168.04V179.16M101.32 168.04H112.44M101.32 168.04V179.16M112.44 168.04V179.16M112.44 168.04H123.56V179.16H112.44M156.92 168.04H168.04M156.92 168.04V179.16H168.04V168.04M201.4 168.04H212.52M201.4 168.04V179.16M12.3602 179.16H1.24023M12.3602 179.16V190.28M1.24023 179.16V190.28M79.0802 179.16H67.9602M79.0802 179.16V190.28M67.9602 179.16V190.28M112.44 179.16H101.32M112.44 179.16V190.28H101.32M101.32 179.16H90.2002V190.28M101.32 179.16V190.28M212.52 168.04V179.16M212.52 168.04H223.64V179.16M212.52 179.16H201.4M212.52 179.16H223.64M212.52 179.16V190.28H201.4M201.4 179.16H190.28M201.4 179.16V190.28M223.64 179.16H234.76V190.28H223.64V179.16ZM12.3602 190.28H1.24023M12.3602 190.28V201.4M1.24023 190.28V201.4M34.6002 179.16H23.4802V190.28M34.6002 179.16V190.28M34.6002 179.16H45.7202M34.6002 190.28H23.4802M34.6002 190.28H45.7202M34.6002 190.28V201.4M23.4802 190.28V201.4M45.7202 179.16V190.28M45.7202 179.16H56.8402V190.28M45.7202 190.28H56.8402M45.7202 190.28V201.4M56.8402 190.28V201.4M79.0802 190.28H67.9602M79.0802 190.28V201.4M67.9602 190.28V201.4M101.32 190.28H90.2002M101.32 190.28V201.4M90.2002 190.28V201.4H101.32M190.28 179.16H179.16V190.28M190.28 179.16V190.28M190.28 190.28H179.16M190.28 190.28H201.4M190.28 190.28V201.4M179.16 190.28H168.04V201.4M179.16 190.28V201.4M12.3602 201.4H1.24023M12.3602 201.4V212.52M1.24023 201.4V212.52M34.6002 201.4H23.4802M34.6002 201.4H45.7202M34.6002 201.4V212.52M23.4802 201.4V212.52H34.6002M45.7202 201.4H56.8402M45.7202 201.4V212.52M56.8402 201.4V212.52H45.7202M79.0802 201.4H67.9602M79.0802 201.4V212.52M67.9602 201.4V212.52M101.32 201.4H112.44V212.52M101.32 201.4V212.52M134.68 190.28H123.56V201.4H134.68M134.68 190.28V201.4M134.68 190.28H145.8V201.4H134.68M179.16 201.4H168.04M179.16 201.4H190.28M179.16 201.4V212.52M168.04 201.4V212.52M190.28 201.4V212.52M190.28 201.4H201.4V212.52M12.3602 212.52H1.24023M12.3602 212.52V223.64M1.24023 212.52V223.64M34.6002 212.52H45.7202M79.0802 212.52H67.9602M79.0802 212.52V223.64M67.9602 212.52V223.64M112.44 212.52H101.32M112.44 212.52V223.64M112.44 212.52H123.56V223.64H112.44M101.32 212.52V223.64H112.44M179.16 212.52H168.04M179.16 212.52H190.28M179.16 212.52V223.64M168.04 212.52V223.64M190.28 212.52H201.4M190.28 212.52V223.64M201.4 212.52V223.64M223.64 201.4H212.52V212.52M223.64 201.4V212.52M223.64 201.4H234.76V212.52M223.64 212.52H212.52M223.64 212.52H234.76M223.64 212.52V223.64M212.52 212.52V223.64M234.76 212.52V223.64H223.64M12.3602 223.64H1.24023M12.3602 223.64V234.76M12.3602 223.64H23.4802M1.24023 223.64V234.76H12.3602M79.0802 223.64H67.9602M79.0802 223.64V234.76H67.9602M67.9602 223.64H56.8402M67.9602 223.64V234.76M145.8 212.52H134.68V223.64H145.8M145.8 212.52V223.64M145.8 212.52H156.92V223.64M145.8 223.64H156.92M156.92 223.64H168.04M156.92 223.64V234.76H168.04M179.16 223.64H168.04M179.16 223.64V234.76M179.16 223.64H190.28M168.04 223.64V234.76M201.4 223.64H190.28M201.4 223.64H212.52M201.4 223.64V234.76H212.52V223.64M190.28 223.64V234.76H179.16M223.64 223.64H212.52M12.3602 234.76H23.4802M23.4802 223.64V234.76M23.4802 223.64H34.6002M23.4802 234.76H34.6002M34.6002 223.64V234.76M34.6002 223.64H45.7202M34.6002 234.76H45.7202M45.7202 223.64V234.76M45.7202 223.64H56.8402M45.7202 234.76H56.8402M56.8402 223.64V234.76M56.8402 234.76H67.9602M168.04 234.76H179.16M101.32 1.23999H112.44V12.36H101.32V1.23999ZM90.2002 67.96H101.32V79.08H90.2002V67.96ZM1.24023 123.56H12.3602V134.68H1.24023V123.56ZM67.9602 134.68H79.0802V145.8H67.9602V134.68Z" stroke="black" stroke-width="0.556"/>
</svg>
