<svg width="20" height="21" viewBox="0 0 20 21" fill="none" xmlns="http://www.w3.org/2000/svg">
<path d="M12.1091 10.4881L5.51581 17.0806C5.18429 17.4122 4.73465 17.5984 4.26581 17.5984C3.79697 17.5984 3.34733 17.4122 3.01581 17.0806C2.68429 16.7491 2.49805 16.2995 2.49805 15.8306C2.49805 15.3618 2.68429 14.9122 3.01581 14.5806L9.60915 7.9873" stroke="black" stroke-width="1.66667" stroke-linecap="round" stroke-linejoin="round"/>
<path d="M13.0717 3.69245C11.8136 2.90869 10.4027 2.40246 8.93325 2.2076C7.46384 2.01273 5.96977 2.13371 4.55085 2.56245C4.42453 2.64287 4.32221 2.75584 4.25466 2.88948C4.1871 3.02312 4.15681 3.17249 4.16695 3.32189C4.1771 3.47129 4.22732 3.6152 4.31232 3.73848C4.39733 3.86176 4.51398 3.95985 4.65002 4.02245C6.54785 4.67064 8.32648 5.62583 9.91502 6.84995" stroke="black" stroke-width="1.66667" stroke-linecap="round" stroke-linejoin="round"/>
<path d="M14.75 3.1806C14.5942 3.02791 14.3848 2.94238 14.1667 2.94238C13.9485 2.94238 13.7391 3.02791 13.5833 3.1806L9.74999 7.01393C9.59731 7.1697 9.51178 7.37914 9.51178 7.59726C9.51178 7.81539 9.59731 8.02482 9.74999 8.1806L11.9167 10.3473C12.0724 10.5 12.2819 10.5855 12.5 10.5855C12.7181 10.5855 12.9276 10.5 13.0833 10.3473L16.9167 6.51393C17.0693 6.35816 17.1549 6.14872 17.1549 5.9306C17.1549 5.71247 17.0693 5.50304 16.9167 5.34726L14.75 3.1806Z" stroke="black" stroke-width="1.66667" stroke-linecap="round" stroke-linejoin="round"/>
<path d="M16.405 7.02563C17.1887 8.28377 17.6949 9.69467 17.8898 11.1641C18.0847 12.6335 17.9637 14.1275 17.535 15.5465C17.4545 15.6726 17.3416 15.7747 17.2081 15.8421C17.0745 15.9095 16.9253 15.9397 16.776 15.9296C16.6268 15.9195 16.483 15.8693 16.3598 15.7845C16.2366 15.6996 16.1385 15.5831 16.0759 15.4473C15.4277 13.5492 14.4726 11.7703 13.2484 10.1815" stroke="black" stroke-width="1.66667" stroke-linecap="round" stroke-linejoin="round"/>
</svg>
