<svg width="25" height="25" viewBox="0 0 25 25" fill="none" xmlns="http://www.w3.org/2000/svg">
<path d="M2.64753 12.3099C7.8949 10.0237 11.394 8.51654 13.1447 7.78833C18.1435 5.70916 19.1822 5.34799 19.8592 5.33606C20.0081 5.33344 20.3411 5.37034 20.5567 5.54534C20.7388 5.6931 20.7889 5.89271 20.8129 6.0328C20.8369 6.1729 20.8667 6.49204 20.843 6.7414C20.5721 9.58763 19.4 16.4947 18.8037 19.6825C18.5514 21.0314 18.0546 21.4836 17.5736 21.5279C16.5283 21.6241 15.7345 20.8371 14.7221 20.1735C13.1379 19.135 12.2429 18.4885 10.7051 17.4751C8.92795 16.304 10.08 15.6603 11.0928 14.6084C11.3579 14.3331 15.9635 10.144 16.0526 9.76395C16.0637 9.71642 16.0741 9.53926 15.9688 9.44571C15.8636 9.35216 15.7083 9.38415 15.5962 9.4096C15.4373 9.44566 12.9064 11.1184 8.00365 14.428C7.28528 14.9212 6.63461 15.1616 6.05163 15.149C5.40893 15.1351 4.17265 14.7856 3.2536 14.4869C2.12635 14.1204 1.23043 13.9267 1.30845 13.3044C1.34908 12.9803 1.79544 12.6488 2.64753 12.3099Z" fill="#DC5341"/>
</svg>
