<svg width="56" height="56" viewBox="0 0 56 56" fill="none" xmlns="http://www.w3.org/2000/svg">
<g clip-path="url(#clip0_123_17)">
<mask id="mask0_123_17" style="mask-type:luminance" maskUnits="userSpaceOnUse" x="-12" y="-2" width="80" height="60">
<path d="M-11.0177 -1.26318H67.0177V57.2634H-11.0177V-1.26318Z" fill="white"/>
</mask>
<g mask="url(#mask0_123_17)">
<path fill-rule="evenodd" clip-rule="evenodd" d="M-11.0177 -1.26318V57.2634H67.0177V-1.26318H-11.0177Z" fill="#F7FCFF"/>
<mask id="mask1_123_17" style="mask-type:luminance" maskUnits="userSpaceOnUse" x="-12" y="-2" width="80" height="60">
<path fill-rule="evenodd" clip-rule="evenodd" d="M-11.0177 -1.26318V57.2634H67.0177V-1.26318H-11.0177Z" fill="white"/>
</mask>
<g mask="url(#mask1_123_17)">
<path fill-rule="evenodd" clip-rule="evenodd" d="M-11.0177 -1.26318V18.2457H67.0177V-1.26318H-11.0177Z" fill="#FF8C1A"/>
<path fill-rule="evenodd" clip-rule="evenodd" d="M-11.0177 37.7544V57.2633H67.0177V37.7544H-11.0177Z" fill="#5EAA22"/>
<path fill-rule="evenodd" clip-rule="evenodd" d="M18.2455 28C18.2455 33.3872 22.6128 37.7545 28 37.7545C33.3871 37.7545 37.7544 33.3872 37.7544 28C37.7544 22.6128 33.3871 18.2456 28 18.2456C22.6128 18.2456 18.2455 22.6128 18.2455 28ZM35.3158 28C35.3158 32.0406 32.0405 35.3159 28 35.3159C23.9594 35.3159 20.6842 32.0406 20.6842 28C20.6842 23.9595 23.9594 20.6842 28 20.6842C32.0405 20.6842 35.3158 23.9595 35.3158 28Z" fill="#3D58DB"/>
<path fill-rule="evenodd" clip-rule="evenodd" d="M27.9863 30.0987L26.5944 37.7087L27.4028 30.0149L23.9231 36.9242L26.8663 29.7698L21.5811 35.4191L26.4205 29.3837L19.7577 33.315L26.1018 28.8875L18.6014 30.7825L25.9355 28.3217L18.2051 28.0267L25.9355 27.7318L18.6014 25.271L26.1018 27.1661L19.7577 22.7386L26.4205 26.6698L21.5811 20.6345L26.8663 26.2838L23.9231 19.1293L27.4028 26.0387L26.5944 18.345L27.9863 25.9548L29.3785 18.345L28.5701 26.0387L32.0498 19.1293L29.1066 26.2838L34.3918 20.6345L29.5524 26.6698L36.2152 22.7386L29.8711 27.1661L37.3716 25.271L30.0374 27.7318L37.7678 28.0267L30.0374 28.3217L37.3716 30.7825L29.8711 28.8875L36.2152 33.315L29.5524 29.3837L34.3918 35.4191L29.1066 29.7698L32.0498 36.9242L28.5701 30.0149L29.3785 37.7087L27.9863 30.0987Z" fill="#3D58DB"/>
</g>
</g>
</g>
<defs>
<clipPath id="clip0_123_17">
<rect width="56" height="56" fill="white"/>
</clipPath>
</defs>
</svg>
