<svg width="128" height="5" viewBox="0 0 128 5" fill="none" xmlns="http://www.w3.org/2000/svg">
<path fill-rule="evenodd" clip-rule="evenodd" d="M77.8709 2.0098C52.0601 1.91402 21.6461 2.51413 1.0766 4.0944L0.923401 2.10028C21.5725 0.513891 52.0488 -0.0860384 77.8784 0.00980982C90.7958 0.0577438 102.563 0.279732 111.37 0.6403C115.771 0.820516 119.444 1.03577 122.156 1.28243C123.51 1.40563 124.639 1.53792 125.505 1.6802C125.937 1.75126 126.318 1.82698 126.635 1.90896C126.934 1.98634 127.244 2.08587 127.494 2.22803L126.506 3.9665C126.507 3.96743 126.481 3.95284 126.41 3.92773C126.343 3.90376 126.252 3.8759 126.134 3.84528C125.896 3.78378 125.58 3.71935 125.18 3.65374C124.382 3.52265 123.308 3.39548 121.974 3.27421C119.311 3.03194 115.676 2.8183 111.288 2.63863C102.514 2.27942 90.7737 2.05768 77.8709 2.0098Z" fill="black"/>
</svg>
