<svg width="241" height="86" viewBox="0 0 241 86" fill="none" xmlns="http://www.w3.org/2000/svg">
<g clip-path="url(#clip0_18_46)">
<path d="M238.961 48.1829H2.15178V83.8358H238.961V48.1829Z" fill="#DC5341"/>
<path opacity="0.35" d="M238.961 48.1829H2.15178V83.8358H238.961V48.1829Z" fill="white"/>
<path d="M238.961 52.3975H2.15178V83.8359H238.961V52.3975Z" fill="#DC5341"/>
<path d="M218.987 12.739L239.887 46.8699V47.1364L239.021 45.7239L219.202 13.3743L218.91 12.8967H218.35H187.545H184.426L186.964 14.7103C191.17 17.7163 193.34 20.8726 193.34 24.1483C193.34 28.4787 189.492 32.7855 181.973 36.553C174.543 40.275 163.899 43.272 151.159 45.1431L150.305 45.2686V46.1324V46.2464V47.1828H2.15179H1.15179V48.1828V83.8358V84.8358H2.15179H238.961H239.961V83.8358V48.1828V47.3036L240 47.3423V84.8609C240 84.8697 239.998 84.874 239.998 84.8758C239.997 84.8782 239.995 84.8803 239.994 84.882C239.992 84.8837 239.99 84.8845 239.99 84.8849C239.989 84.885 239.987 84.8861 239.981 84.8861H1.01927C1.01296 84.8861 1.01076 84.885 1.01048 84.8849C1.00956 84.8845 1.0081 84.8837 1.00643 84.882C1.00475 84.8803 1.00332 84.8782 1.00231 84.8758C1.00155 84.874 1 84.8697 1 84.8609V47.3423L1.11325 47.2284V46.8691L21.9592 12.7138C21.9971 12.6828 22.0352 12.6566 22.0696 12.6377C22.0885 12.6273 22.1017 12.6216 22.1096 12.6185H34.7683H35.5578L35.741 11.8506C36.3174 9.43509 38.4206 7.72053 40.8839 7.72053H53.5681C55.6182 7.72053 57.4473 9.03978 58.326 10.9055L58.7572 11.821L59.6675 11.379C72.6106 5.09447 94.7486 1 120.5 1C147.842 1 171.083 5.66611 183.548 12.6062L183.775 12.7324H184.034H218.916C218.953 12.7324 218.975 12.7363 218.987 12.739ZM39.9972 18.5669V18.9766L40.2847 19.2686L52.1761 31.3428L52.4 31.57L52.7141 31.6257C78.4304 36.1834 114.111 41.9938 121.133 43.1328L122.293 43.321V42.1457V37.5894V36.6957L121.788 36.6389C121.814 36.6417 121.84 36.6445 121.865 36.6472L122.2 36.6833L122.489 36.5092C123.315 36.0109 124.819 35.1702 126.294 34.4425C127.031 34.0786 127.748 33.7498 128.36 33.5073C128.983 33.2608 129.404 33.1429 129.615 33.1209C129.999 33.1087 131.03 32.981 132.02 32.7612C132.177 32.7337 132.339 32.7053 132.506 32.6762C135.104 32.2205 138.787 31.5748 142.441 31.165C146.386 30.7225 150.125 30.5782 152.42 31.1553L152.433 31.1586C156.021 32.0077 158.119 34.4634 158.119 36.6781C158.119 38.185 156.96 39.6214 154.286 40.1387L154.282 40.1395C151.174 40.7535 143.45 41.5465 136.306 42.2035C131.592 42.6371 127.136 43.0111 124.529 43.2298C123.332 43.3303 122.524 43.3981 122.261 43.4238H122.261H122.26H122.26H122.26H122.259H122.259H122.258H122.258H122.257H122.257H122.257H122.256H122.256H122.255H122.255H122.254H122.254H122.254H122.253H122.253H122.252H122.252H122.252H122.251H122.251H122.25H122.25H122.25H122.249H122.249H122.248H122.248H122.248H122.247H122.247H122.247H122.246H122.246H122.245H122.245H122.245H122.244H122.244H122.244H122.243H122.243H122.243H122.242H122.242H122.242H122.241H122.241H122.24H122.24H122.24H122.239H122.239H122.239H122.238H122.238H122.238H122.237H122.237H122.237H122.237H122.236H122.236H122.236H122.235H122.235H122.235H122.234H122.234H122.234H122.233H122.233H122.233H122.233H122.232H122.232H122.232H122.231H122.231H122.231H122.23H122.23H122.23H122.23H122.229H122.229H122.229H122.229H122.228H122.228H122.228H122.227H122.227H122.227H122.227H122.226H122.226H122.226H122.226H122.225H122.225H122.225H122.225H122.224H122.224H122.224H122.224H122.223H122.223H122.223H122.223H122.222H122.222H122.222H122.222H122.222H122.221H122.221H122.221H122.221H122.22H122.22H122.22H122.22H122.22H122.219H122.219H122.219H122.219H122.219H122.218H122.218H122.218H122.218H122.217H122.217H122.217H122.217H122.217H122.217H122.216H122.216H122.216H122.216H122.216H122.215H122.215H122.215H122.215H122.215H122.214H122.214H122.214H122.214H122.214H122.214H122.213H122.213H122.213H122.213H122.213H122.213H122.212H122.212H122.212H122.212H122.212H122.212H122.211H122.211H122.211H122.211H122.211H122.211H122.211H122.21H122.21H122.21H122.21H122.21H122.21H122.21H122.209H122.209H122.209H122.209H122.209H122.209H122.209H122.209H122.208H122.208H122.208H122.208H122.208H122.208H122.208H122.208H122.207H122.207H122.207H122.207H122.207H122.207H122.207H122.207H122.206H122.206H122.206H122.206H122.206H122.206H122.206H122.206H122.206H122.206H122.205H122.205H122.205H122.205H122.205H122.205H122.205H122.205H122.205H122.205H122.204H122.204H122.204H122.204H122.204H122.204H122.204H122.204H122.204H122.204H122.204H122.204H122.203H122.203H122.203H122.203H122.203H122.203H122.203H122.203H122.203H122.203H122.203H122.203H122.203H122.202H122.202H122.202H122.202H122.202H122.202H122.202H122.202H122.202H122.202H122.202H122.202H122.202H122.202H122.202H122.201H122.201H122.201H122.201H122.201H122.201H122.201H122.201H122.201H122.201H122.201H122.2H122.2H122.2H122.2H122.2H122.2H122.2H122.2H122.2H122.2H122.2H122.2H122.2H122.2H122.199H122.199H122.199H122.199H122.199H122.199H122.199H122.199H122.199H122.199H122.199H122.142C122.127 43.4219 122.109 43.4193 122.086 43.4161C122.008 43.405 121.894 43.388 121.744 43.365C121.443 43.3191 121.006 43.2509 120.444 43.162C119.321 42.9843 117.702 42.7247 115.68 42.3973C111.636 41.7425 105.982 40.8173 99.4572 39.7353C86.4065 37.5714 69.876 34.7813 55.7817 32.2764L55.0612 34.0991C60.9911 37.9583 70.2788 41.2076 81.5692 43.496C92.8814 45.7887 106.284 47.1324 120.5 47.1324C139.997 47.1324 158.022 44.6182 171.204 40.5817C177.789 38.5653 183.221 36.1525 187.029 33.444C190.808 30.7567 193.188 27.6268 193.188 24.1483C193.188 20.6699 190.808 17.54 187.029 14.8527C183.221 12.1442 177.789 9.73137 171.204 7.71501C158.022 3.67849 139.997 1.16424 120.5 1.16424C95.1729 1.16424 72.2375 5.38554 59.1339 11.744L58.5705 12.0174V12.6437V12.645V12.6464V12.6477V12.649V12.6503V12.6517V12.653V12.6543V12.6556V12.6569V12.6582V12.6595V12.6608V12.6621V12.6634V12.6647V12.666V12.6673V12.6686V12.6699V12.6712V12.6725V12.6737V12.675V12.6763V12.6775V12.6788V12.6801V12.6813V12.6826V12.6839V12.6851V12.6864V12.6876V12.6889V12.6901V12.6914V12.6926V12.6938V12.6951V12.6963V12.6975V12.6988V12.7V12.7012V12.7024V12.7037V12.7049V12.7061V12.7073V12.7085V12.7097V12.7109V12.7121V12.7133V12.7145V12.7157V12.7169V12.7181V12.7193V12.7205V12.7217V12.7228V12.724V12.7252V12.7264V12.7275V12.7287V12.7299V12.7311V12.7322V12.7334V12.7345V12.7357V12.7368V12.738V12.7392V12.7403V12.7414V12.7426V12.7437V12.7449V12.746V12.7471V12.7483V12.7494V12.7505V12.7517V12.7528V12.7539V12.755V12.7561V12.7573V12.7584V12.7595V12.7606V12.7617V12.7628V12.7639V12.765V12.7661V12.7672V12.7683V12.7694V12.7705V12.7716V12.7727V12.7737V12.7748V12.7759V12.777V12.7781V12.7791V12.7802V12.7813V12.7823V12.7834V12.7845V12.7855V12.7866V12.7876V12.7887V12.7898V12.7908V12.7919V12.7929V12.7939V12.795V12.796V12.7971V12.7981V12.7991V12.8002V12.8012V12.8022V12.8033V12.8043V12.8053V12.8063V12.8074V12.8084V12.8094V12.8104V12.8114V12.8124V12.8135V12.8145V12.8155V12.8165V12.8175V12.8185V12.8195V12.8205V12.8215V12.8225V12.8234V12.8244V12.8254V12.8264V12.8274V12.8284V12.8294V12.8303V12.8313V12.8323V12.8333V12.8342V12.8352V12.8362V12.8371V12.8381V12.8391V12.84V12.841V12.8419V12.8429V12.8438V12.8448V12.8457V12.8467V12.8476V12.8486V12.8495V12.8505V12.8514V12.8524V12.8533V12.8542V12.8552V12.8561V12.857V12.858V12.8589V12.8598V12.8607V12.8617V12.8626V12.8635V12.8644V12.8653V12.8662V12.8672V12.8681V12.869V12.8699V12.8708V12.8717V12.8726V12.8735V12.8744V12.8753V12.8762V12.8771V12.878V12.8789V12.8798V12.8807V12.8815V12.8824V12.8833V12.8842V12.8851V12.886V12.8868V12.8877V12.8886V12.8895V12.8903V12.8912V12.8921V12.893V12.8938V12.8947V12.8956V12.8964V12.8973V12.8981V12.899V12.8999V12.9007V12.9016V12.9024V12.9033V12.9041V12.905V12.9058V12.9067V12.9075V12.9084V12.9092V12.9101V12.9109V12.9117V12.9126V12.9134V12.9142V12.9151V12.9159V12.9167V12.9176V12.9184V12.9192V12.92V12.9209V12.9217V12.9225V12.9233V12.9242V12.925V12.9258V12.9266V12.9274V12.9282V12.929V12.9299V12.9307V12.9315V12.9323V12.9331V12.9339V12.9347V12.9355V12.9363V12.9371V12.9379V12.9387V12.9395V12.9403V12.9411V12.9419V12.9427V12.9435V12.9443V12.945V12.9458V12.9466V12.9474V12.9482V12.949V12.9498V12.9505V12.9513V12.9521V12.9529V12.9537V12.9544V12.9552V12.956V12.9567V12.9575V12.9583V12.9591V12.9598V12.9606V12.9614V12.9621V12.9629V12.9637V12.9644V12.9652V12.9659V12.9667V12.9675V12.9682V12.969V12.9697V12.9705V12.9712V12.972V12.9727V12.9735V12.9743V12.975V12.9757V12.9765V12.9772V12.978V12.9787V12.9795V12.9802V12.981V12.9817V12.9824V12.9832V12.9839V12.9847V12.9854V12.9861V12.9869V12.9876V12.9883V12.9891V12.9898V12.9905V12.9913V12.992V12.9927V12.9935V12.9942V12.9949V12.9956V12.9964V12.9971V12.9978V12.9985V12.9993V13V13.0007V13.0014V13.0021V13.0029V13.0036V13.0043V13.005V13.0057V13.0064V13.0071V13.0079V13.0086V13.0093V13.01V13.0107V13.0114V13.0121V13.0128V13.0135V13.0143V13.015V13.0157V13.0164V13.0171V13.0178V13.0185V13.0192V13.0199V13.0206V13.0213V13.022V13.0227V13.0234V13.0241V13.0248V13.0255V13.0262V13.0269V13.0276V13.0283V13.029V13.0297V13.0304V13.0311V13.0317V13.0324V13.0331V13.0338V13.0345V13.0352V13.0359V13.0366V13.0373V13.038V13.0386V13.0393V13.04V13.0407V13.0414V13.0421V13.0428V13.0435V13.0441V13.0448V13.0455V13.0462V13.0469V13.0476V13.0482V13.0489V13.0496V13.0503V13.051V13.0516V13.0523V13.053V13.0537V13.0544V13.055V13.0557V13.0564V13.0571V13.0578V13.0584V13.0591V13.0598V13.0605V13.0611V13.0618V13.0625V13.0632V13.0638V13.0645V13.0652V13.0659V13.0665V13.0672V13.0679V13.0686V13.0692V13.0699V13.0706V13.0712V13.0719V13.0726V13.0733V13.0739V13.0746V13.0753V13.0759V13.0766V13.0773V13.078V13.0786V13.0793V13.08V13.0806V13.0813V13.082V13.0826V13.0833V13.084V13.0846V13.0853V13.086V13.0866V13.0873V13.088V13.0887V13.0893V13.09V13.0907V13.0913V13.092V13.0927V13.0933V13.094V13.0947V13.0953V13.096V13.0967V13.0973V13.098V13.0987V13.0993V15.7192C58.5705 18.5896 56.1815 20.9841 53.3416 20.9841H52.8886H50.4953L44.5225 15.227L44.1127 14.8321L43.5639 14.9826C42.2399 15.3458 41.171 15.8847 40.5184 16.8529C39.9968 17.5676 39.9971 18.2876 39.9972 18.5562V18.5669ZM73.8736 28.9383C89.9833 31.7438 112.031 35.4837 120.913 36.539C113.624 35.6804 97.6984 33.0461 83.3529 30.581C80.0666 30.0163 76.8656 29.4609 73.8736 28.9383ZM35.6551 13.7828V12.7828H34.6551H22.7636H22.2035L21.9109 13.2604L2.09185 45.61L1.15915 47.1324H2.94455H89.8087L89.9546 45.1431C79.1919 43.5562 69.9339 41.181 62.8408 38.2458C55.7049 35.293 50.9293 31.8426 48.8906 28.2147L48.826 28.0999L48.7339 28.0057L42.1653 21.2851L41.8711 20.9841H41.4502H40.8839C38.0441 20.9841 35.6551 18.5896 35.6551 15.7192V13.7828Z" fill="#DC5341" stroke="black" stroke-width="2"/>
<path d="M187.432 13.7829C191.849 16.8583 194.227 20.3895 194.227 24.0345C194.227 33.9444 176.786 42.2597 151.191 46.0186H238.055L218.236 13.6689H187.432V13.7829Z" fill="#FFC567"/>
<path d="M89.8087 46.1324C68.2909 42.943 52.5489 36.5642 48.0188 28.7046L41.4502 21.984H40.8839C37.4864 21.984 34.6551 19.1364 34.6551 15.7191V13.7827H22.7636L2.94455 46.1324H89.8087ZM27.5202 32.9191C33.7491 32.9191 40.4309 34.9695 40.4309 38.7284C40.4309 42.4873 33.7491 44.5377 27.5202 44.5377C21.2914 44.5377 14.6095 42.4873 14.6095 38.7284C14.6095 34.9695 21.2914 32.9191 27.5202 32.9191Z" fill="#FFC567"/>
<path d="M120.5 2.16431C95.2448 2.16431 72.4812 6.37888 59.6837 12.6438C59.6837 12.7577 59.6837 12.8716 59.6837 13.0994V15.7193C59.6837 19.1365 56.8524 21.9842 53.4549 21.9842H53.0019L55.8332 24.7179C60.25 25.5153 109.401 34.2862 122.086 35.653C123.784 34.6279 128.314 32.2358 129.673 32.1219C129.9 32.1219 130.919 31.8941 131.938 31.7802C137.035 30.8689 147.794 28.9325 152.777 30.1855C156.514 31.0968 159.232 33.8305 159.232 36.6782C159.232 38.8425 157.42 40.5511 154.589 41.1206C148.133 42.4875 123.445 44.4239 122.312 44.4239C122.312 44.4239 122.312 44.4239 122.199 44.4239H122.086C121.746 44.31 83.8064 38.2729 55.6067 33.261C67.1584 40.7789 92.187 46.1325 120.5 46.1325C159.345 46.1325 192.188 36.1087 192.188 24.1484C192.188 12.1881 159.345 2.16431 120.5 2.16431ZM147.454 20.959C147.454 26.9961 133.637 30.1855 120.613 30.1855C107.589 30.1855 93.7726 26.9961 93.7726 20.959C93.7726 14.9219 107.589 11.7325 120.613 11.7325C133.524 11.7325 147.454 14.9219 147.454 20.959Z" fill="black"/>
<path d="M120.5 13.7827C105.891 13.7827 95.6978 17.5417 95.6978 20.9589C95.6978 24.3761 105.891 28.135 120.5 28.135C135.109 28.135 145.302 24.3761 145.302 20.9589C145.302 17.5417 135.109 13.7827 120.5 13.7827ZM120.5 25.0595C113.365 25.0595 107.589 23.237 107.589 20.9589C107.589 18.6807 113.365 16.8582 120.5 16.8582C127.635 16.8582 133.411 18.6807 133.411 20.9589C133.524 23.237 127.635 25.0595 120.5 25.0595Z" fill="white"/>
<path d="M93.6593 20.9589C93.6593 26.996 107.476 30.1854 120.5 30.1854C133.524 30.1854 147.341 26.996 147.341 20.9589C147.341 14.9218 133.524 11.7324 120.5 11.7324C107.476 11.7324 93.6593 14.9218 93.6593 20.9589ZM120.5 28.0212C105.891 28.0212 95.6978 24.2622 95.6978 20.845C95.6978 17.4278 105.891 13.6688 120.5 13.6688C135.109 13.6688 145.302 17.4278 145.302 20.845C145.302 24.2622 135.109 28.0212 120.5 28.0212Z" fill="#1F2654"/>
<path d="M120.5 25.0597C127.63 25.0597 133.411 23.2238 133.411 20.9591C133.411 18.6943 127.63 16.8584 120.5 16.8584C113.37 16.8584 107.589 18.6943 107.589 20.9591C107.589 23.2238 113.37 25.0597 120.5 25.0597Z" fill="#1F2654"/>
<path d="M205.099 60.5986H194.34V71.4198H205.099V60.5986Z" fill="#009A5E"/>
<path d="M193.208 73.5841H206.118C206.685 73.5841 207.138 73.1285 207.138 72.5589V59.5735C207.138 59.004 206.685 58.5483 206.118 58.5483H193.208C192.641 58.5483 192.188 59.004 192.188 59.5735V72.5589C192.188 73.1285 192.641 73.5841 193.208 73.5841ZM194.34 60.5987H205.099V71.4199H194.34V60.5987Z" fill="#1F2654"/>
<path d="M52.8886 30.6411C78.4836 35.3113 114.158 41.0066 121.18 42.1457V37.7033C106.91 36.1086 55.6067 26.7682 55.1537 26.7682C54.9272 26.7682 54.8139 26.6543 54.5874 26.5404L43.8285 15.947C42.5827 16.2887 41.7899 16.7444 41.3369 17.4278C41.1104 17.8834 40.9972 18.2252 40.9972 18.5669L52.8886 30.6411Z" fill="white"/>
<path d="M29.8985 58.2065C25.5949 58.2065 22.0841 61.7377 22.0841 66.0661C22.0841 70.3946 25.5949 73.9258 29.8985 73.9258C34.2021 73.9258 37.7129 70.3946 37.7129 66.0661C37.7129 61.7377 34.2021 58.2065 29.8985 58.2065Z" fill="black"/>
<path d="M29.8985 56.0425C24.4624 56.0425 20.0456 60.4849 20.0456 65.9524C20.0456 71.42 24.4624 75.8623 29.8985 75.8623C35.3346 75.8623 39.7514 71.42 39.7514 65.9524C39.7514 60.5988 35.3346 56.0425 29.8985 56.0425ZM29.8985 73.9259C25.5949 73.9259 22.0841 70.3948 22.0841 66.0663C22.0841 61.7378 25.5949 58.2067 29.8985 58.2067C34.2021 58.2067 37.7129 61.7378 37.7129 66.0663C37.7129 70.3948 34.2021 73.9259 29.8985 73.9259Z" fill="#1F2654"/>
<path d="M52.8886 60.8264C50.0573 60.8264 47.679 63.2185 47.679 66.0661C47.679 68.9138 50.0573 71.3059 52.8886 71.3059C55.7199 71.3059 58.0982 68.9138 58.0982 66.0661C58.0982 63.1046 55.8332 60.8264 52.8886 60.8264Z" fill="black"/>
<path d="M52.8886 58.6624C48.8116 58.6624 45.5273 61.9657 45.5273 66.0663C45.5273 70.167 48.8116 73.4703 52.8886 73.4703C56.9657 73.4703 60.25 70.167 60.25 66.0663C60.25 61.9657 56.9657 58.6624 52.8886 58.6624ZM52.8886 71.3061C50.0573 71.3061 47.679 68.914 47.679 66.0663C47.679 63.2186 50.0573 60.8266 52.8886 60.8266C55.7199 60.8266 58.0982 63.2186 58.0982 66.0663C58.0982 68.914 55.8332 71.3061 52.8886 71.3061Z" fill="#1F2654"/>
<path d="M27.5202 42.3736C34.0888 42.3736 38.2791 40.2093 38.2791 38.7285C38.2791 37.2477 34.0888 35.0835 27.5202 35.0835C20.9516 35.0835 16.7613 37.2477 16.7613 38.7285C16.648 40.2093 20.9516 42.3736 27.5202 42.3736Z" fill="#009A5E"/>
<path d="M27.5202 44.4237C33.7491 44.4237 40.4309 42.3734 40.4309 38.6144C40.4309 34.8555 33.7491 32.8052 27.5202 32.8052C21.2913 32.8052 14.6095 34.8555 14.6095 38.6144C14.6095 42.4873 21.2913 44.4237 27.5202 44.4237ZM27.5202 35.0833C34.0888 35.0833 38.2791 37.2476 38.2791 38.7284C38.2791 40.2092 34.0888 42.3734 27.5202 42.3734C20.9516 42.3734 16.7613 40.2092 16.7613 38.7284C16.648 37.2476 20.9516 35.0833 27.5202 35.0833Z" fill="#1F2654"/>
</g>
<defs>
<clipPath id="clip0_18_46">
<rect width="241" height="86" fill="white"/>
</clipPath>
</defs>
</svg>
