<svg width="205" height="167" viewBox="0 0 205 167" fill="none" xmlns="http://www.w3.org/2000/svg">
<path d="M203.736 41.4985C203.549 41.859 203.348 42.2196 203.16 42.5801C167.428 58.8756 132.171 65.5956 97.3899 63.7353C111.749 65.1486 125.935 65.0765 139.949 63.6488C139.877 63.9084 139.79 64.168 139.718 64.4276C118.014 67.7443 96.5689 67.6866 75.412 64.5862C105.758 70.2391 135.686 69.345 165.181 62.5961C165.066 62.8845 164.965 63.1729 164.85 63.4614C146.718 68.4221 128.859 71.0034 111.259 71.4937C124.841 72.1427 138.177 71.5514 151.269 69.8642C132.2 73.8443 113.448 75.2864 95.0279 74.5077C116.199 76.6131 137.025 75.6757 157.519 72.085C157.39 72.3878 157.246 72.6762 157.116 72.9791C127.116 79.4684 97.5771 79.8866 68.5133 74.9259C104.173 82.1651 139.243 80.9538 173.722 72.2869C173.549 72.6185 173.376 72.9358 173.189 73.2675C144.975 81.2566 117.236 83.9389 89.9871 81.9488C112.829 84.5878 135.297 83.8379 157.347 80.1318C157.203 80.4346 157.059 80.7519 156.915 81.0547C133.208 86.0731 109.92 87.4431 87.049 85.6117C119.296 89.4764 150.923 86.7797 181.917 78.3868C181.687 78.7474 181.442 79.1079 181.211 79.4684C152.176 88.3516 123.732 91.7982 95.892 90.5724C111.576 92.101 126.972 92.101 142.051 90.7743C141.951 91.0771 141.835 91.3655 141.735 91.6684C127.275 93.9757 113.132 94.9851 99.3054 94.8554C112.7 96.1677 125.748 96.3984 138.451 95.735C128.844 97.4655 119.512 98.6048 110.453 99.2681C120.563 99.9026 130.429 99.9459 140.021 99.4844C139.877 99.7873 139.747 100.105 139.603 100.407C121.773 102.873 104.361 103.436 87.3803 102.397C113.348 105.411 138.624 104.488 163.194 100.306C162.949 100.653 162.719 101.013 162.474 101.359C141.158 106.046 120.434 108.022 100.299 107.762C115.234 108.959 129.766 108.887 143.88 107.776C143.722 108.108 143.549 108.425 143.391 108.757C129.435 111.007 115.926 112.117 102.848 112.319C111.115 113.155 119.137 113.602 126.9 113.732C126.799 114.049 126.713 114.352 126.612 114.669C114.759 115.895 103.295 116.342 92.2194 116.155C108.048 117.972 123.242 118.39 137.774 117.77C129.377 119.371 121.384 120.553 113.808 121.433C119.656 122.01 125.273 122.399 130.659 122.659C130.501 122.99 130.357 123.308 130.198 123.639C114.385 125.283 99.2478 125.586 84.8167 124.879C96.8138 126.595 108.307 127.533 119.281 127.85C119.238 128.167 119.181 128.499 119.137 128.816C114.053 129.552 109.2 130.157 104.591 130.662C111.807 131.614 118.561 132.292 124.869 132.782C119.944 133.806 115.364 134.7 111.101 135.508C117.02 136.373 122.464 137.065 127.419 137.671C120.145 138.81 113.405 139.646 107.227 140.324C114.586 141.103 121.384 141.607 127.635 141.968C127.419 142.314 127.188 142.675 126.972 143.021C120.059 144.001 113.693 144.722 107.86 145.285C115.652 146.064 122.724 146.539 129.046 146.871C128.729 147.232 128.427 147.592 128.11 147.953C118.532 149.135 109.963 149.827 102.431 150.303C108.753 151.14 114.37 151.76 119.253 152.293C119.065 152.639 118.893 153 118.705 153.346C115.94 154.125 113.549 154.86 111.576 155.581C112.973 156.432 114.053 157.268 114.802 158.105C112.988 158.927 111.605 159.734 110.683 160.542C112.138 161.378 113.045 162.2 113.376 163.022C112.311 164.133 111.763 165.229 111.778 166.339C111.778 165.979 111.778 165.632 111.778 165.272C111.879 164.623 112.152 163.974 112.613 163.34C112.138 162.431 110.986 161.537 109.185 160.614C109.963 159.706 111.317 158.797 113.232 157.889C112.267 157.023 110.971 156.158 109.344 155.293C111.274 154.572 113.636 153.822 116.401 153.058C111.043 152.394 104.749 151.616 97.5339 150.563C97.217 150.202 96.9002 149.842 96.5833 149.481C104.26 149.15 112.973 148.602 122.724 147.578C116.747 147.145 110.122 146.568 102.863 145.732C102.719 145.386 102.56 145.04 102.416 144.694C108.436 144.203 115.033 143.569 122.191 142.675C116.199 142.228 109.689 141.636 102.69 140.786C102.575 140.439 102.445 140.108 102.33 139.762C107.788 139.257 113.693 138.608 120.016 137.772C115.436 137.137 110.496 136.416 105.167 135.551C109.157 134.844 113.463 134.065 118.086 133.171C111.36 132.494 104.145 131.614 96.4393 130.403C101.84 129.941 107.587 129.35 113.679 128.571C101.451 127.965 88.5613 126.595 75.0375 124.202C74.7495 123.841 74.4614 123.481 74.1734 123.12C90.0015 124.476 106.651 124.663 124.106 123.235C118 122.803 111.591 122.197 104.893 121.346C111.346 120.784 118.115 120.02 125.186 118.967C111.663 118.952 97.5915 117.986 82.9588 115.823C82.7859 115.491 82.5987 115.16 82.4259 114.828C94.207 115.434 106.449 115.362 119.109 114.41C111.302 114.049 103.252 113.372 94.9559 112.304C94.8695 111.987 94.7831 111.684 94.6966 111.367C107.011 111.555 119.713 110.949 132.805 109.348C118.014 109.896 102.762 109.291 87.049 107.243C86.9338 106.926 86.8042 106.608 86.689 106.305C105.83 107.531 125.518 106.781 145.738 103.609C121.687 106.104 96.9434 105.426 71.5377 100.927C71.3505 100.595 71.1633 100.263 70.9761 99.9315C90.1311 102.296 109.833 102.671 130.083 100.638C119.555 100.739 108.724 100.22 97.5915 98.9653C106.348 98.749 115.364 98.1145 124.653 96.9464C113.304 96.932 101.682 96.1821 89.7855 94.5525C89.7134 94.2641 89.627 93.9613 89.555 93.6729C102.82 94.3074 116.372 93.9324 130.213 92.3606C113.881 93.0095 97.2026 92.0866 80.1647 89.3322C80.0639 89.0294 79.9631 88.741 79.8623 88.4381C105.815 91.2934 132.287 90.1109 159.277 84.2994C128.888 89.6783 97.8939 89.5197 66.2953 82.9871C66.1369 82.6698 65.9929 82.367 65.8344 82.0497C89.7135 86.0875 114.068 86.6788 138.854 83.3332C116.574 85.3377 93.8901 84.2849 70.8176 79.728C70.7024 79.4251 70.5728 79.1367 70.4576 78.8339C96.4537 82.9005 122.882 82.7708 149.757 77.8821C115.033 83.0015 79.6894 80.5067 43.7557 69.3306C43.5541 68.9845 43.3669 68.6528 43.1652 68.3067C74.4182 77.089 106.204 79.7424 138.537 75.4018C119.728 77.1178 100.63 76.5698 81.2449 73.455C81.1585 73.181 81.0721 72.907 80.9712 72.633C97.4907 74.3779 114.284 74.349 131.336 72.3301C118.057 72.8637 104.533 72.2436 90.7648 70.2968C109.646 71.537 128.83 70.4122 148.331 66.5762C117.956 71.1476 87.2074 69.4892 56.0121 60.88C55.868 60.5772 55.7384 60.2888 55.5944 59.986C78.5373 65.4658 101.811 67.4126 125.417 65.3937C110.741 65.884 95.8776 64.8602 80.8272 62.1923C80.784 61.9328 80.7408 61.6876 80.6976 61.428C112.858 65.711 145.422 62.6971 178.388 51.6075C147.236 61.1108 115.695 63.8219 83.7797 59.0053C83.7077 58.7458 83.6501 58.5006 83.5781 58.241C105.297 60.7791 127.26 59.9283 149.454 55.3425C116.891 60.9089 83.9237 58.7602 50.5968 48.0888C50.4672 47.8004 50.3376 47.512 50.2223 47.2236C75.8584 54.5926 101.811 57.2172 128.067 54.5493C115.652 55.0396 103.093 54.4051 90.3615 52.4871C103.871 53.4389 117.567 53.0207 131.408 51.0883C109.387 52.8477 87.1354 50.9009 64.639 44.8586C64.567 44.599 64.495 44.3538 64.423 44.0943C89.3822 49.8482 114.586 50.7999 140.035 46.5314C115.09 49.776 89.8575 48.1465 64.351 41.1236C79.2862 44.3538 94.3942 45.8969 109.675 45.5363C88.0428 44.8442 66.1945 40.316 44.1446 31.6347C44.0726 31.3607 43.9862 31.1012 43.9141 30.8416C83.2612 45.1181 122.983 46.8486 163.05 34.9082C136.651 41.96 109.992 43.3444 83.074 38.5134C102.085 41.1092 121.283 40.7054 140.669 37.0137C94.7975 44.1087 48.5229 33.3364 1.84503 3.0816C1.701 2.72108 1.55698 2.36057 1.42736 2.00005C56.0985 36.5378 111.202 45.6661 166.751 27.2652C135.83 36.8695 104.677 38.1962 73.3236 30.6685C73.2516 30.4378 73.1796 30.2215 73.1076 29.9908C91.6722 33.8844 110.352 34.7785 129.161 32.4423C99.2334 35.1678 69.0893 29.861 38.7149 15.8873C38.6285 15.6277 38.5565 15.3681 38.4701 15.1085C72.1282 29.7745 106.017 34.3026 140.136 27.9142C112.786 32.3413 85.2487 29.9042 57.5387 20.1125C57.4667 19.8818 57.4091 19.6511 57.3371 19.4203C84.0966 28.1449 111.029 30.2936 138.148 25.3328C123.386 27.3662 108.508 27.3662 93.5157 25.1598C114.701 27.2075 136.06 24.9579 157.548 18.0504C142.152 22.2901 126.67 24.2657 111.086 23.8475C111.259 23.6745 111.418 23.5014 111.591 23.3139C135.729 23.8764 159.68 18.6272 183.4 8.14329C160.818 19.2617 138.393 25.1598 116.127 26.2414C132.157 26.2558 148.057 23.8043 163.828 19.0887C135.052 29.0678 106.478 30.9858 78.1196 25.4338C106.967 31.9087 135.642 30.4522 164.13 21.5834C164.058 21.8142 164 22.0449 163.928 22.2756C129.953 33.6392 96.2089 34.1151 62.6947 24.482C91.1681 33.4085 119.454 34.7785 147.553 29.0822C147.524 29.2986 147.51 29.5005 147.481 29.7168C129.061 34.043 110.77 35.2543 92.5939 33.5527C128.182 38.0231 163.482 31.1156 198.523 13.7097C198.393 14.0125 198.278 14.3154 198.148 14.6326C144.226 42.4214 90.7216 44.1664 37.6347 21.8142C78.4076 39.7825 118.892 42.9839 159.061 32.4711C159.032 32.7019 159.017 32.9182 158.988 33.1489C143.52 37.7635 128.124 40.2151 112.858 40.7054C137.313 40.9794 161.567 36.1917 185.604 26.7461C185.474 27.0345 185.359 27.3229 185.229 27.6258C144.73 44.6711 104.605 47.7139 64.8407 37.9078C87.9132 44.3538 110.77 46.2862 133.41 44.0943C118.259 46.416 103.266 46.8198 88.446 45.5075C111.965 48.9252 135.254 47.8148 158.297 42.5945C158.211 42.8541 158.139 43.0992 158.052 43.3588C132.546 50.0789 107.284 51.5065 82.2819 48.0888C106.766 52.3862 130.962 51.8959 154.869 47.0794C139.041 51.2325 123.415 53.338 108.004 53.6408C122.608 54.5205 136.996 53.7706 151.197 51.5642C124.337 57.4335 97.8075 57.7219 71.6098 52.9775C104.951 60.159 137.904 58.8611 170.482 49.9058C170.381 50.1943 170.265 50.4682 170.165 50.7567C148.028 57.5921 126.137 60.6781 104.49 60.3465C137.99 62.0337 171.072 55.4723 203.736 41.4985Z" fill="black" stroke="black"/>
</svg>
